<ttFont>
    <TTGlyph name="A" xMin="-35" yMin="0" xMax="591" yMax="690">
      <contour>
        <pt x="437" y="194" on="1"/>
        <pt x="179" y="194" on="1"/>
        <pt x="96" y="0" on="1"/>
        <pt x="-35" y="0" on="1"/>
        <pt x="265" y="659" on="1"/>
        <pt x="275" y="690" on="0"/>
        <pt x="311" y="690" on="1"/>
        <pt x="434" y="690" on="1"/>
        <pt x="450" y="690" on="0"/>
        <pt x="473" y="669" on="0"/>
        <pt x="474" y="654" on="1"/>
        <pt x="591" y="0" on="1"/>
        <pt x="466" y="0" on="1"/>
      </contour>
      <contour>
        <pt x="421" y="300" on="1"/>
        <pt x="386" y="534" on="1"/>
        <pt x="380" y="597" on="1"/>
        <pt x="350" y="597" on="1"/>
        <pt x="342" y="576" on="0"/>
        <pt x="325" y="535" on="1"/>
        <pt x="224" y="300" on="1"/>
      </contour>
    </TTGlyph>
    <TTGlyph name="AE" xMin="-48" yMin="-2" xMax="928" yMax="691">
      <contour>
        <pt x="912" y="588" on="1"/>
        <pt x="664" y="588" on="1"/>
        <pt x="605" y="588" on="0"/>
        <pt x="597" y="527" on="1"/>
        <pt x="580" y="407" on="1"/>
        <pt x="849" y="407" on="1"/>
        <pt x="837" y="314" on="1"/>
        <pt x="567" y="314" on="1"/>
        <pt x="546" y="159" on="1"/>
        <pt x="541" y="127" on="0"/>
        <pt x="563" y="102" on="0"/>
        <pt x="594" y="102" on="1"/>
        <pt x="844" y="102" on="1"/>
        <pt x="839" y="6" on="1"/>
        <pt x="749" y="-2" on="0"/>
        <pt x="562" y="-2" on="1"/>
        <pt x="491" y="-2" on="0"/>
        <pt x="417" y="79" on="0"/>
        <pt x="427" y="150" on="1"/>
        <pt x="434" y="199" on="1"/>
        <pt x="218" y="199" on="1"/>
        <pt x="84" y="0" on="1"/>
        <pt x="-48" y="0" on="1"/>
        <pt x="342" y="570" on="1"/>
        <pt x="389" y="641" on="0"/>
        <pt x="503" y="691" on="0"/>
        <pt x="616" y="691" on="1"/>
        <pt x="816" y="691" on="0"/>
        <pt x="928" y="684" on="1"/>
      </contour>
      <contour>
        <pt x="449" y="304" on="1"/>
        <pt x="482" y="543" on="1"/>
        <pt x="487" y="587" on="0"/>
        <pt x="516" y="611" on="1"/>
        <pt x="510" y="611" on="1"/>
        <pt x="482" y="590" on="0"/>
        <pt x="455" y="550" on="1"/>
        <pt x="289" y="304" on="1"/>
      </contour>
    </TTGlyph>
    <TTGlyph name="Aacute" xMin="-35" yMin="0" xMax="591" yMax="926">
      <contour>
        <pt x="344" y="724" on="1"/>
        <pt x="311" y="778" on="1"/>
        <pt x="518" y="926" on="1"/>
        <pt x="570" y="835" on="1"/>
      </contour>
      <contour>
        <pt x="437" y="194" on="1"/>
        <pt x="179" y="194" on="1"/>
        <pt x="96" y="0" on="1"/>
        <pt x="-35" y="0" on="1"/>
        <pt x="265" y="659" on="1"/>
        <pt x="275" y="690" on="0"/>
        <pt x="311" y="690" on="1"/>
        <pt x="434" y="690" on="1"/>
        <pt x="450" y="690" on="0"/>
        <pt x="473" y="669" on="0"/>
        <pt x="474" y="654" on="1"/>
        <pt x="591" y="0" on="1"/>
        <pt x="466" y="0" on="1"/>
      </contour>
      <contour>
        <pt x="421" y="300" on="1"/>
        <pt x="386" y="534" on="1"/>
        <pt x="380" y="597" on="1"/>
        <pt x="350" y="597" on="1"/>
        <pt x="342" y="576" on="0"/>
        <pt x="325" y="535" on="1"/>
        <pt x="224" y="300" on="1"/>
      </contour>
    </TTGlyph>
    <TTGlyph name="Abreve" xMin="-35" yMin="0" xMax="591" yMax="894">
      <contour>
        <pt x="502" y="894" on="1"/>
        <pt x="560" y="882" on="1"/>
        <pt x="557" y="820" on="0"/>
        <pt x="464" y="741" on="0"/>
        <pt x="389" y="741" on="1"/>
        <pt x="309" y="741" on="0"/>
        <pt x="229" y="824" on="0"/>
        <pt x="244" y="886" on="1"/>
        <pt x="304" y="890" on="1"/>
        <pt x="300" y="858" on="0"/>
        <pt x="344" y="826" on="0"/>
        <pt x="389" y="826" on="1"/>
        <pt x="439" y="826" on="0"/>
        <pt x="498" y="862" on="0"/>
      </contour>
      <contour>
        <pt x="437" y="194" on="1"/>
        <pt x="179" y="194" on="1"/>
        <pt x="96" y="0" on="1"/>
        <pt x="-35" y="0" on="1"/>
        <pt x="265" y="659" on="1"/>
        <pt x="275" y="690" on="0"/>
        <pt x="311" y="690" on="1"/>
        <pt x="434" y="690" on="1"/>
        <pt x="450" y="690" on="0"/>
        <pt x="473" y="669" on="0"/>
        <pt x="474" y="654" on="1"/>
        <pt x="591" y="0" on="1"/>
        <pt x="466" y="0" on="1"/>
      </contour>
      <contour>
        <pt x="421" y="300" on="1"/>
        <pt x="386" y="534" on="1"/>
        <pt x="380" y="597" on="1"/>
        <pt x="350" y="597" on="1"/>
        <pt x="342" y="576" on="0"/>
        <pt x="325" y="535" on="1"/>
        <pt x="224" y="300" on="1"/>
      </contour>
    </TTGlyph>
    <TTGlyph name="Acircumflex" xMin="-35" yMin="0" xMax="591" yMax="905">
      <contour>
        <pt x="244" y="724" on="1"/>
        <pt x="211" y="774" on="1"/>
        <pt x="359" y="905" on="1"/>
        <pt x="443" y="905" on="1"/>
        <pt x="569" y="767" on="1"/>
        <pt x="528" y="722" on="1"/>
        <pt x="404" y="822" on="1"/>
        <pt x="396" y="822" on="1"/>
      </contour>
      <contour>
        <pt x="437" y="194" on="1"/>
        <pt x="179" y="194" on="1"/>
        <pt x="96" y="0" on="1"/>
        <pt x="-35" y="0" on="1"/>
        <pt x="265" y="659" on="1"/>
        <pt x="275" y="690" on="0"/>
        <pt x="311" y="690" on="1"/>
        <pt x="434" y="690" on="1"/>
        <pt x="450" y="690" on="0"/>
        <pt x="473" y="669" on="0"/>
        <pt x="474" y="654" on="1"/>
        <pt x="591" y="0" on="1"/>
        <pt x="466" y="0" on="1"/>
      </contour>
      <contour>
        <pt x="421" y="300" on="1"/>
        <pt x="386" y="534" on="1"/>
        <pt x="380" y="597" on="1"/>
        <pt x="350" y="597" on="1"/>
        <pt x="342" y="576" on="0"/>
        <pt x="325" y="535" on="1"/>
        <pt x="224" y="300" on="1"/>
      </contour>
    </TTGlyph>
    <TTGlyph name="Adieresis" xMin="-35" yMin="0" xMax="591" yMax="879">
      <contour>
        <pt x="323" y="763" on="1"/>
        <pt x="281" y="763" on="1"/>
        <pt x="251" y="763" on="0"/>
        <pt x="254" y="791" on="1"/>
        <pt x="264" y="849" on="1"/>
        <pt x="268" y="879" on="0"/>
        <pt x="298" y="879" on="1"/>
        <pt x="336" y="879" on="1"/>
        <pt x="354" y="879" on="0"/>
        <pt x="366" y="865" on="0"/>
        <pt x="364" y="849" on="1"/>
        <pt x="354" y="792" on="1"/>
        <pt x="351" y="763" on="0"/>
      </contour>
      <contour>
        <pt x="492" y="763" on="1"/>
        <pt x="450" y="763" on="1"/>
        <pt x="420" y="763" on="0"/>
        <pt x="423" y="791" on="1"/>
        <pt x="433" y="849" on="1"/>
        <pt x="437" y="879" on="0"/>
        <pt x="467" y="879" on="1"/>
        <pt x="505" y="879" on="1"/>
        <pt x="523" y="879" on="0"/>
        <pt x="535" y="865" on="0"/>
        <pt x="533" y="849" on="1"/>
        <pt x="523" y="792" on="1"/>
        <pt x="520" y="763" on="0"/>
      </contour>
      <contour>
        <pt x="437" y="194" on="1"/>
        <pt x="179" y="194" on="1"/>
        <pt x="96" y="0" on="1"/>
        <pt x="-35" y="0" on="1"/>
        <pt x="265" y="659" on="1"/>
        <pt x="275" y="690" on="0"/>
        <pt x="311" y="690" on="1"/>
        <pt x="434" y="690" on="1"/>
        <pt x="450" y="690" on="0"/>
        <pt x="473" y="669" on="0"/>
        <pt x="474" y="654" on="1"/>
        <pt x="591" y="0" on="1"/>
        <pt x="466" y="0" on="1"/>
      </contour>
      <contour>
        <pt x="421" y="300" on="1"/>
        <pt x="386" y="534" on="1"/>
        <pt x="380" y="597" on="1"/>
        <pt x="350" y="597" on="1"/>
        <pt x="342" y="576" on="0"/>
        <pt x="325" y="535" on="1"/>
        <pt x="224" y="300" on="1"/>
      </contour>
    </TTGlyph>
    <TTGlyph name="Agrave" xMin="-35" yMin="0" xMax="591" yMax="925">
      <contour>
        <pt x="405" y="724" on="1"/>
        <pt x="195" y="842" on="1"/>
        <pt x="255" y="925" on="1"/>
        <pt x="446" y="777" on="1"/>
      </contour>
      <contour>
        <pt x="437" y="194" on="1"/>
        <pt x="179" y="194" on="1"/>
        <pt x="96" y="0" on="1"/>
        <pt x="-35" y="0" on="1"/>
        <pt x="265" y="659" on="1"/>
        <pt x="275" y="690" on="0"/>
        <pt x="311" y="690" on="1"/>
        <pt x="434" y="690" on="1"/>
        <pt x="450" y="690" on="0"/>
        <pt x="473" y="669" on="0"/>
        <pt x="474" y="654" on="1"/>
        <pt x="591" y="0" on="1"/>
        <pt x="466" y="0" on="1"/>
      </contour>
      <contour>
        <pt x="421" y="300" on="1"/>
        <pt x="386" y="534" on="1"/>
        <pt x="380" y="597" on="1"/>
        <pt x="350" y="597" on="1"/>
        <pt x="342" y="576" on="0"/>
        <pt x="325" y="535" on="1"/>
        <pt x="224" y="300" on="1"/>
      </contour>
    </TTGlyph>
    <TTGlyph name="Amacron" xMin="-35" yMin="0" xMax="591" yMax="862">
      <contour>
        <pt x="532" y="778" on="1"/>
        <pt x="242" y="778" on="1"/>
        <pt x="254" y="862" on="1"/>
        <pt x="544" y="862" on="1"/>
      </contour>
      <contour>
        <pt x="437" y="194" on="1"/>
        <pt x="179" y="194" on="1"/>
        <pt x="96" y="0" on="1"/>
        <pt x="-35" y="0" on="1"/>
        <pt x="265" y="659" on="1"/>
        <pt x="275" y="690" on="0"/>
        <pt x="311" y="690" on="1"/>
        <pt x="434" y="690" on="1"/>
        <pt x="450" y="690" on="0"/>
        <pt x="473" y="669" on="0"/>
        <pt x="474" y="654" on="1"/>
        <pt x="591" y="0" on="1"/>
        <pt x="466" y="0" on="1"/>
      </contour>
      <contour>
        <pt x="421" y="300" on="1"/>
        <pt x="386" y="534" on="1"/>
        <pt x="380" y="597" on="1"/>
        <pt x="350" y="597" on="1"/>
        <pt x="342" y="576" on="0"/>
        <pt x="325" y="535" on="1"/>
        <pt x="224" y="300" on="1"/>
      </contour>
    </TTGlyph>
    <TTGlyph name="Aogonek" xMin="-35" yMin="-213" xMax="591" yMax="690">
      <contour>
        <pt x="474" y="654" on="1"/>
        <pt x="591" y="0" on="1"/>
        <pt x="548" y="-48" on="0"/>
        <pt x="512" y="-110" on="1"/>
        <pt x="495" y="-139" on="0"/>
        <pt x="527" y="-157" on="0"/>
        <pt x="569" y="-144" on="1"/>
        <pt x="583" y="-193" on="1"/>
        <pt x="541" y="-209" on="0"/>
        <pt x="474" y="-216" on="0"/>
        <pt x="434" y="-200" on="0"/>
        <pt x="412" y="-171" on="0"/>
        <pt x="414" y="-131" on="0"/>
        <pt x="425" y="-109" on="1"/>
        <pt x="452" y="-55" on="0"/>
        <pt x="531" y="0" on="1"/>
        <pt x="466" y="0" on="1"/>
        <pt x="437" y="194" on="1"/>
        <pt x="179" y="194" on="1"/>
        <pt x="96" y="0" on="1"/>
        <pt x="-35" y="0" on="1"/>
        <pt x="265" y="659" on="1"/>
        <pt x="275" y="690" on="0"/>
        <pt x="311" y="690" on="1"/>
        <pt x="434" y="690" on="1"/>
        <pt x="450" y="690" on="0"/>
        <pt x="473" y="669" on="0"/>
      </contour>
      <contour>
        <pt x="421" y="300" on="1"/>
        <pt x="386" y="534" on="1"/>
        <pt x="380" y="597" on="1"/>
        <pt x="350" y="597" on="1"/>
        <pt x="342" y="576" on="0"/>
        <pt x="325" y="535" on="1"/>
        <pt x="224" y="300" on="1"/>
      </contour>
    </TTGlyph>
    <TTGlyph name="Aring" xMin="-35" yMin="0" xMax="591" yMax="934">
      <contour>
        <pt x="390" y="714" on="1"/>
        <pt x="338" y="714" on="0"/>
        <pt x="277" y="779" on="0"/>
        <pt x="282" y="828" on="1"/>
        <pt x="288" y="873" on="0"/>
        <pt x="350" y="934" on="0"/>
        <pt x="399" y="934" on="1"/>
        <pt x="450" y="934" on="0"/>
        <pt x="513" y="869" on="0"/>
        <pt x="507" y="819" on="1"/>
        <pt x="502" y="774" on="0"/>
        <pt x="439" y="714" on="0"/>
      </contour>
      <contour>
        <pt x="343" y="825" on="1"/>
        <pt x="340" y="799" on="0"/>
        <pt x="369" y="769" on="0"/>
        <pt x="391" y="769" on="1"/>
        <pt x="414" y="769" on="0"/>
        <pt x="445" y="800" on="0"/>
        <pt x="447" y="825" on="1"/>
        <pt x="449" y="849" on="0"/>
        <pt x="423" y="878" on="0"/>
        <pt x="399" y="878" on="1"/>
        <pt x="376" y="878" on="0"/>
        <pt x="345" y="848" on="0"/>
      </contour>
      <contour>
        <pt x="437" y="194" on="1"/>
        <pt x="179" y="194" on="1"/>
        <pt x="96" y="0" on="1"/>
        <pt x="-35" y="0" on="1"/>
        <pt x="265" y="659" on="1"/>
        <pt x="275" y="690" on="0"/>
        <pt x="311" y="690" on="1"/>
        <pt x="434" y="690" on="1"/>
        <pt x="450" y="690" on="0"/>
        <pt x="473" y="669" on="0"/>
        <pt x="474" y="654" on="1"/>
        <pt x="591" y="0" on="1"/>
        <pt x="466" y="0" on="1"/>
      </contour>
      <contour>
        <pt x="421" y="300" on="1"/>
        <pt x="386" y="534" on="1"/>
        <pt x="380" y="597" on="1"/>
        <pt x="350" y="597" on="1"/>
        <pt x="342" y="576" on="0"/>
        <pt x="325" y="535" on="1"/>
        <pt x="224" y="300" on="1"/>
      </contour>
    </TTGlyph>
    <TTGlyph name="Atilde" xMin="-35" yMin="0" xMax="591" yMax="890">
      <contour>
        <pt x="514" y="887" on="1"/>
        <pt x="567" y="882" on="1"/>
        <pt x="567" y="819" on="0"/>
        <pt x="516" y="754" on="0"/>
        <pt x="476" y="756" on="1"/>
        <pt x="438" y="759" on="0"/>
        <pt x="343" y="805" on="0"/>
        <pt x="327" y="808" on="1"/>
        <pt x="300" y="812" on="0"/>
        <pt x="276" y="786" on="0"/>
        <pt x="272" y="757" on="1"/>
        <pt x="219" y="762" on="1"/>
        <pt x="220" y="827" on="0"/>
        <pt x="272" y="892" on="0"/>
        <pt x="311" y="890" on="1"/>
        <pt x="345" y="887" on="0"/>
        <pt x="436" y="843" on="0"/>
        <pt x="458" y="840" on="1"/>
        <pt x="485" y="836" on="0"/>
        <pt x="510" y="859" on="0"/>
      </contour>
      <contour>
        <pt x="437" y="194" on="1"/>
        <pt x="179" y="194" on="1"/>
        <pt x="96" y="0" on="1"/>
        <pt x="-35" y="0" on="1"/>
        <pt x="265" y="659" on="1"/>
        <pt x="275" y="690" on="0"/>
        <pt x="311" y="690" on="1"/>
        <pt x="434" y="690" on="1"/>
        <pt x="450" y="690" on="0"/>
        <pt x="473" y="669" on="0"/>
        <pt x="474" y="654" on="1"/>
        <pt x="591" y="0" on="1"/>
        <pt x="466" y="0" on="1"/>
      </contour>
      <contour>
        <pt x="421" y="300" on="1"/>
        <pt x="386" y="534" on="1"/>
        <pt x="380" y="597" on="1"/>
        <pt x="350" y="597" on="1"/>
        <pt x="342" y="576" on="0"/>
        <pt x="325" y="535" on="1"/>
        <pt x="224" y="300" on="1"/>
      </contour>
    </TTGlyph>
    <TTGlyph name="B" xMin="35" yMin="-8" xMax="586" yMax="698">
      <contour>
        <pt x="35" y="0" on="1"/>
        <pt x="132" y="690" on="1"/>
        <pt x="217" y="698" on="0"/>
        <pt x="370" y="698" on="1"/>
        <pt x="500" y="698" on="0"/>
        <pt x="601" y="618" on="0"/>
        <pt x="586" y="513" on="1"/>
        <pt x="575" y="439" on="0"/>
        <pt x="511" y="365" on="0"/>
        <pt x="447" y="359" on="1"/>
        <pt x="446" y="354" on="1"/>
        <pt x="586" y="343" on="0"/>
        <pt x="560" y="167" on="1"/>
        <pt x="545" y="63" on="0"/>
        <pt x="438" y="-8" on="0"/>
        <pt x="316" y="-8" on="1"/>
        <pt x="131" y="-8" on="0"/>
      </contour>
      <contour>
        <pt x="215" y="403" on="1"/>
        <pt x="337" y="403" on="1"/>
        <pt x="401" y="403" on="0"/>
        <pt x="457" y="446" on="0"/>
        <pt x="465" y="506" on="1"/>
        <pt x="473" y="562" on="0"/>
        <pt x="431" y="597" on="0"/>
        <pt x="364" y="597" on="1"/>
        <pt x="242" y="597" on="1"/>
      </contour>
      <contour>
        <pt x="171" y="94" on="1"/>
        <pt x="296" y="93" on="1"/>
        <pt x="370" y="93" on="0"/>
        <pt x="429" y="136" on="0"/>
        <pt x="438" y="200" on="1"/>
        <pt x="447" y="266" on="0"/>
        <pt x="403" y="311" on="0"/>
        <pt x="332" y="312" on="1"/>
        <pt x="202" y="312" on="1"/>
      </contour>
    </TTGlyph>
    <TTGlyph name="C" xMin="60" yMin="-12" xMax="582" yMax="702">
      <contour>
        <pt x="503" y="108" on="1"/>
        <pt x="509" y="13" on="1"/>
        <pt x="425" y="-12" on="0"/>
        <pt x="297" y="-12" on="1"/>
        <pt x="144" y="-12" on="0"/>
        <pt x="33" y="159" on="0"/>
        <pt x="60" y="350" on="1"/>
        <pt x="87" y="547" on="0"/>
        <pt x="229" y="702" on="0"/>
        <pt x="383" y="702" on="1"/>
        <pt x="497" y="702" on="0"/>
        <pt x="582" y="679" on="1"/>
        <pt x="564" y="585" on="1"/>
        <pt x="477" y="592" on="0"/>
        <pt x="380" y="592" on="1"/>
        <pt x="320" y="592" on="0"/>
        <pt x="252" y="553" on="0"/>
        <pt x="205" y="444" on="0"/>
        <pt x="191" y="340" on="1"/>
        <pt x="171" y="201" on="0"/>
        <pt x="217" y="99" on="0"/>
        <pt x="300" y="98" on="1"/>
        <pt x="410" y="97" on="0"/>
      </contour>
    </TTGlyph>
    <TTGlyph name="Cacute" xMin="60" yMin="-12" xMax="582" yMax="927">
      <contour>
        <pt x="572" y="835" on="1"/>
        <pt x="347" y="724" on="1"/>
        <pt x="314" y="778" on="1"/>
        <pt x="520" y="927" on="1"/>
      </contour>
      <contour>
        <pt x="503" y="108" on="1"/>
        <pt x="509" y="13" on="1"/>
        <pt x="425" y="-12" on="0"/>
        <pt x="297" y="-12" on="1"/>
        <pt x="144" y="-12" on="0"/>
        <pt x="33" y="159" on="0"/>
        <pt x="60" y="350" on="1"/>
        <pt x="87" y="547" on="0"/>
        <pt x="229" y="702" on="0"/>
        <pt x="383" y="702" on="1"/>
        <pt x="497" y="702" on="0"/>
        <pt x="582" y="679" on="1"/>
        <pt x="564" y="585" on="1"/>
        <pt x="477" y="592" on="0"/>
        <pt x="380" y="592" on="1"/>
        <pt x="320" y="592" on="0"/>
        <pt x="252" y="553" on="0"/>
        <pt x="205" y="444" on="0"/>
        <pt x="191" y="340" on="1"/>
        <pt x="171" y="201" on="0"/>
        <pt x="217" y="99" on="0"/>
        <pt x="300" y="98" on="1"/>
        <pt x="410" y="97" on="0"/>
      </contour>
    </TTGlyph>
    <TTGlyph name="Ccaron" xMin="60" yMin="-12" xMax="582" yMax="922">
      <contour>
        <pt x="579" y="872" on="1"/>
        <pt x="427" y="741" on="1"/>
        <pt x="349" y="741" on="1"/>
        <pt x="226" y="879" on="1"/>
        <pt x="271" y="922" on="1"/>
        <pt x="388" y="825" on="1"/>
        <pt x="396" y="825" on="1"/>
        <pt x="546" y="921" on="1"/>
      </contour>
      <contour>
        <pt x="503" y="108" on="1"/>
        <pt x="509" y="13" on="1"/>
        <pt x="425" y="-12" on="0"/>
        <pt x="297" y="-12" on="1"/>
        <pt x="144" y="-12" on="0"/>
        <pt x="33" y="159" on="0"/>
        <pt x="60" y="350" on="1"/>
        <pt x="87" y="547" on="0"/>
        <pt x="229" y="702" on="0"/>
        <pt x="383" y="702" on="1"/>
        <pt x="497" y="702" on="0"/>
        <pt x="582" y="679" on="1"/>
        <pt x="564" y="585" on="1"/>
        <pt x="477" y="592" on="0"/>
        <pt x="380" y="592" on="1"/>
        <pt x="320" y="592" on="0"/>
        <pt x="252" y="553" on="0"/>
        <pt x="205" y="444" on="0"/>
        <pt x="191" y="340" on="1"/>
        <pt x="171" y="201" on="0"/>
        <pt x="217" y="99" on="0"/>
        <pt x="300" y="98" on="1"/>
        <pt x="410" y="97" on="0"/>
      </contour>
    </TTGlyph>
    <TTGlyph name="Ccedilla" xMin="60" yMin="-249" xMax="582" yMax="702">
      <contour>
        <pt x="503" y="108" on="1"/>
        <pt x="509" y="13" on="1"/>
        <pt x="425" y="-12" on="0"/>
        <pt x="297" y="-12" on="1"/>
        <pt x="144" y="-12" on="0"/>
        <pt x="33" y="159" on="0"/>
        <pt x="60" y="350" on="1"/>
        <pt x="87" y="547" on="0"/>
        <pt x="229" y="702" on="0"/>
        <pt x="383" y="702" on="1"/>
        <pt x="497" y="702" on="0"/>
        <pt x="582" y="679" on="1"/>
        <pt x="564" y="585" on="1"/>
        <pt x="477" y="592" on="0"/>
        <pt x="380" y="592" on="1"/>
        <pt x="320" y="592" on="0"/>
        <pt x="252" y="553" on="0"/>
        <pt x="205" y="444" on="0"/>
        <pt x="191" y="340" on="1"/>
        <pt x="171" y="201" on="0"/>
        <pt x="217" y="99" on="0"/>
        <pt x="300" y="98" on="1"/>
        <pt x="410" y="97" on="0"/>
      </contour>
      <contour>
        <pt x="204" y="-108" on="1"/>
        <pt x="217" y="-55" on="1"/>
        <pt x="290" y="-47" on="0"/>
        <pt x="351" y="-75" on="0"/>
        <pt x="342" y="-124" on="1"/>
        <pt x="330" y="-192" on="0"/>
        <pt x="219" y="-260" on="0"/>
        <pt x="141" y="-249" on="1"/>
        <pt x="161" y="-190" on="1"/>
        <pt x="198" y="-191" on="0"/>
        <pt x="253" y="-156" on="0"/>
        <pt x="259" y="-127" on="1"/>
        <pt x="261" y="-115" on="0"/>
        <pt x="242" y="-108" on="0"/>
      </contour>
    </TTGlyph>
    <TTGlyph name="Cdotaccent" xMin="60" yMin="-12" xMax="582" yMax="876">
      <contour>
        <pt x="382" y="876" on="1"/>
        <pt x="419" y="876" on="1"/>
        <pt x="436" y="876" on="0"/>
        <pt x="455" y="856" on="0"/>
        <pt x="453" y="839" on="1"/>
        <pt x="445" y="785" on="1"/>
        <pt x="441" y="753" on="0"/>
        <pt x="409" y="753" on="1"/>
        <pt x="371" y="753" on="1"/>
        <pt x="354" y="753" on="0"/>
        <pt x="336" y="773" on="0"/>
        <pt x="339" y="790" on="1"/>
        <pt x="346" y="844" on="1"/>
        <pt x="350" y="876" on="0"/>
      </contour>
      <contour>
        <pt x="503" y="108" on="1"/>
        <pt x="509" y="13" on="1"/>
        <pt x="425" y="-12" on="0"/>
        <pt x="297" y="-12" on="1"/>
        <pt x="144" y="-12" on="0"/>
        <pt x="33" y="159" on="0"/>
        <pt x="60" y="350" on="1"/>
        <pt x="87" y="547" on="0"/>
        <pt x="229" y="702" on="0"/>
        <pt x="383" y="702" on="1"/>
        <pt x="497" y="702" on="0"/>
        <pt x="582" y="679" on="1"/>
        <pt x="564" y="585" on="1"/>
        <pt x="477" y="592" on="0"/>
        <pt x="380" y="592" on="1"/>
        <pt x="320" y="592" on="0"/>
        <pt x="252" y="553" on="0"/>
        <pt x="205" y="444" on="0"/>
        <pt x="191" y="340" on="1"/>
        <pt x="171" y="201" on="0"/>
        <pt x="217" y="99" on="0"/>
        <pt x="300" y="98" on="1"/>
        <pt x="410" y="97" on="0"/>
      </contour>
    </TTGlyph>
    <TTGlyph name="D" xMin="35" yMin="-9" xMax="623" yMax="699">
      <contour>
        <pt x="35" y="0" on="1"/>
        <pt x="132" y="690" on="1"/>
        <pt x="256" y="699" on="0"/>
        <pt x="365" y="699" on="1"/>
        <pt x="533" y="699" on="0"/>
        <pt x="651" y="542" on="0"/>
        <pt x="623" y="340" on="1"/>
        <pt x="610" y="248" on="0"/>
        <pt x="571" y="124" on="0"/>
        <pt x="519" y="46" on="0"/>
        <pt x="436" y="5" on="0"/>
        <pt x="345" y="-9" on="0"/>
        <pt x="275" y="-9" on="1"/>
        <pt x="175" y="-9" on="0"/>
      </contour>
      <contour>
        <pt x="244" y="594" on="1"/>
        <pt x="174" y="98" on="1"/>
        <pt x="250" y="96" on="0"/>
        <pt x="274" y="96" on="1"/>
        <pt x="349" y="96" on="0"/>
        <pt x="426" y="131" on="0"/>
        <pt x="476" y="239" on="0"/>
        <pt x="492" y="350" on="1"/>
        <pt x="501" y="415" on="0"/>
        <pt x="504" y="498" on="0"/>
        <pt x="492" y="555" on="0"/>
        <pt x="455" y="584" on="0"/>
        <pt x="404" y="595" on="0"/>
        <pt x="361" y="595" on="1"/>
      </contour>
    </TTGlyph>
    <TTGlyph name="Dcaron" xMin="35" yMin="-9" xMax="623" yMax="922">
      <contour>
        <pt x="344" y="740" on="1"/>
        <pt x="222" y="879" on="1"/>
        <pt x="267" y="922" on="1"/>
        <pt x="384" y="825" on="1"/>
        <pt x="392" y="825" on="1"/>
        <pt x="542" y="921" on="1"/>
        <pt x="575" y="871" on="1"/>
        <pt x="423" y="740" on="1"/>
      </contour>
      <contour>
        <pt x="35" y="0" on="1"/>
        <pt x="132" y="690" on="1"/>
        <pt x="256" y="699" on="0"/>
        <pt x="365" y="699" on="1"/>
        <pt x="533" y="699" on="0"/>
        <pt x="651" y="542" on="0"/>
        <pt x="623" y="340" on="1"/>
        <pt x="610" y="248" on="0"/>
        <pt x="571" y="124" on="0"/>
        <pt x="519" y="46" on="0"/>
        <pt x="436" y="5" on="0"/>
        <pt x="345" y="-9" on="0"/>
        <pt x="275" y="-9" on="1"/>
        <pt x="175" y="-9" on="0"/>
      </contour>
      <contour>
        <pt x="244" y="594" on="1"/>
        <pt x="174" y="98" on="1"/>
        <pt x="250" y="96" on="0"/>
        <pt x="274" y="96" on="1"/>
        <pt x="349" y="96" on="0"/>
        <pt x="426" y="131" on="0"/>
        <pt x="476" y="239" on="0"/>
        <pt x="492" y="350" on="1"/>
        <pt x="501" y="415" on="0"/>
        <pt x="504" y="498" on="0"/>
        <pt x="492" y="555" on="0"/>
        <pt x="455" y="584" on="0"/>
        <pt x="404" y="595" on="0"/>
        <pt x="361" y="595" on="1"/>
      </contour>
    </TTGlyph>
    <TTGlyph name="Dcroat" xMin="24" yMin="-9" xMax="623" yMax="699">
      <contour>
        <pt x="91" y="397" on="1"/>
        <pt x="132" y="690" on="1"/>
        <pt x="256" y="699" on="0"/>
        <pt x="365" y="699" on="1"/>
        <pt x="533" y="699" on="0"/>
        <pt x="651" y="542" on="0"/>
        <pt x="623" y="340" on="1"/>
        <pt x="610" y="248" on="0"/>
        <pt x="571" y="124" on="0"/>
        <pt x="519" y="46" on="0"/>
        <pt x="436" y="5" on="0"/>
        <pt x="345" y="-9" on="0"/>
        <pt x="275" y="-9" on="1"/>
        <pt x="175" y="-9" on="0"/>
        <pt x="35" y="0" on="1"/>
        <pt x="82" y="332" on="1"/>
        <pt x="24" y="332" on="1"/>
        <pt x="32" y="397" on="1"/>
      </contour>
      <contour>
        <pt x="207" y="332" on="1"/>
        <pt x="174" y="98" on="1"/>
        <pt x="250" y="96" on="0"/>
        <pt x="274" y="96" on="1"/>
        <pt x="349" y="96" on="0"/>
        <pt x="426" y="131" on="0"/>
        <pt x="476" y="239" on="0"/>
        <pt x="492" y="350" on="1"/>
        <pt x="501" y="415" on="0"/>
        <pt x="504" y="498" on="0"/>
        <pt x="492" y="555" on="0"/>
        <pt x="455" y="584" on="0"/>
        <pt x="404" y="595" on="0"/>
        <pt x="361" y="595" on="1"/>
        <pt x="244" y="594" on="1"/>
        <pt x="216" y="397" on="1"/>
        <pt x="353" y="397" on="1"/>
        <pt x="344" y="332" on="1"/>
      </contour>
    </TTGlyph>
    <TTGlyph name="Delta" xMin="-16" yMin="0" xMax="589" yMax="690">
      <contour>
        <pt x="589" y="46" on="1"/>
        <pt x="583" y="0" on="1"/>
        <pt x="-16" y="0" on="1"/>
        <pt x="-11" y="46" on="1"/>
        <pt x="317" y="690" on="1"/>
        <pt x="442" y="690" on="1"/>
      </contour>
      <contour>
        <pt x="455" y="98" on="1"/>
        <pt x="375" y="488" on="1"/>
        <pt x="368" y="525" on="0"/>
        <pt x="365" y="570" on="1"/>
        <pt x="345" y="510" on="0"/>
        <pt x="333" y="486" on="1"/>
        <pt x="144" y="98" on="1"/>
      </contour>
    </TTGlyph>
    <TTGlyph name="E" xMin="51" yMin="-2" xMax="572" yMax="692">
      <contour>
        <pt x="556" y="588" on="1"/>
        <pt x="290" y="588" on="1"/>
        <pt x="260" y="588" on="0"/>
        <pt x="233" y="562" on="0"/>
        <pt x="229" y="528" on="1"/>
        <pt x="212" y="407" on="1"/>
        <pt x="493" y="407" on="1"/>
        <pt x="481" y="314" on="1"/>
        <pt x="200" y="314" on="1"/>
        <pt x="178" y="159" on="1"/>
        <pt x="174" y="127" on="0"/>
        <pt x="196" y="102" on="0"/>
        <pt x="227" y="102" on="1"/>
        <pt x="487" y="102" on="1"/>
        <pt x="484" y="6" on="1"/>
        <pt x="399" y="-2" on="0"/>
        <pt x="202" y="-2" on="1"/>
        <pt x="117" y="-2" on="0"/>
        <pt x="41" y="80" on="0"/>
        <pt x="51" y="154" on="1"/>
        <pt x="108" y="564" on="1"/>
        <pt x="116" y="625" on="0"/>
        <pt x="198" y="692" on="0"/>
        <pt x="268" y="692" on="1"/>
        <pt x="483" y="692" on="0"/>
        <pt x="572" y="683" on="1"/>
      </contour>
    </TTGlyph>
    <TTGlyph name="Eacute" xMin="51" yMin="-2" xMax="572" yMax="943">
      <contour>
        <pt x="338" y="741" on="1"/>
        <pt x="305" y="795" on="1"/>
        <pt x="511" y="943" on="1"/>
        <pt x="563" y="852" on="1"/>
      </contour>
      <contour>
        <pt x="556" y="588" on="1"/>
        <pt x="290" y="588" on="1"/>
        <pt x="260" y="588" on="0"/>
        <pt x="233" y="562" on="0"/>
        <pt x="229" y="528" on="1"/>
        <pt x="212" y="407" on="1"/>
        <pt x="493" y="407" on="1"/>
        <pt x="481" y="314" on="1"/>
        <pt x="200" y="314" on="1"/>
        <pt x="178" y="159" on="1"/>
        <pt x="174" y="127" on="0"/>
        <pt x="196" y="102" on="0"/>
        <pt x="227" y="102" on="1"/>
        <pt x="487" y="102" on="1"/>
        <pt x="484" y="6" on="1"/>
        <pt x="399" y="-2" on="0"/>
        <pt x="202" y="-2" on="1"/>
        <pt x="117" y="-2" on="0"/>
        <pt x="41" y="80" on="0"/>
        <pt x="51" y="154" on="1"/>
        <pt x="108" y="564" on="1"/>
        <pt x="116" y="625" on="0"/>
        <pt x="198" y="692" on="0"/>
        <pt x="268" y="692" on="1"/>
        <pt x="483" y="692" on="0"/>
        <pt x="572" y="683" on="1"/>
      </contour>
    </TTGlyph>
    <TTGlyph name="Ecaron" xMin="51" yMin="-2" xMax="572" yMax="938">
      <contour>
        <pt x="339" y="757" on="1"/>
        <pt x="217" y="896" on="1"/>
        <pt x="262" y="938" on="1"/>
        <pt x="379" y="842" on="1"/>
        <pt x="387" y="842" on="1"/>
        <pt x="537" y="938" on="1"/>
        <pt x="570" y="888" on="1"/>
        <pt x="418" y="757" on="1"/>
      </contour>
      <contour>
        <pt x="556" y="588" on="1"/>
        <pt x="290" y="588" on="1"/>
        <pt x="260" y="588" on="0"/>
        <pt x="233" y="562" on="0"/>
        <pt x="229" y="528" on="1"/>
        <pt x="212" y="407" on="1"/>
        <pt x="493" y="407" on="1"/>
        <pt x="481" y="314" on="1"/>
        <pt x="200" y="314" on="1"/>
        <pt x="178" y="159" on="1"/>
        <pt x="174" y="127" on="0"/>
        <pt x="196" y="102" on="0"/>
        <pt x="227" y="102" on="1"/>
        <pt x="487" y="102" on="1"/>
        <pt x="484" y="6" on="1"/>
        <pt x="399" y="-2" on="0"/>
        <pt x="202" y="-2" on="1"/>
        <pt x="117" y="-2" on="0"/>
        <pt x="41" y="80" on="0"/>
        <pt x="51" y="154" on="1"/>
        <pt x="108" y="564" on="1"/>
        <pt x="116" y="625" on="0"/>
        <pt x="198" y="692" on="0"/>
        <pt x="268" y="692" on="1"/>
        <pt x="483" y="692" on="0"/>
        <pt x="572" y="683" on="1"/>
      </contour>
    </TTGlyph>
    <TTGlyph name="Ecircumflex" xMin="51" yMin="-2" xMax="572" yMax="922">
      <contour>
        <pt x="237" y="741" on="1"/>
        <pt x="205" y="790" on="1"/>
        <pt x="352" y="922" on="1"/>
        <pt x="437" y="922" on="1"/>
        <pt x="563" y="784" on="1"/>
        <pt x="521" y="738" on="1"/>
        <pt x="397" y="838" on="1"/>
        <pt x="389" y="838" on="1"/>
      </contour>
      <contour>
        <pt x="556" y="588" on="1"/>
        <pt x="290" y="588" on="1"/>
        <pt x="260" y="588" on="0"/>
        <pt x="233" y="562" on="0"/>
        <pt x="229" y="528" on="1"/>
        <pt x="212" y="407" on="1"/>
        <pt x="493" y="407" on="1"/>
        <pt x="481" y="314" on="1"/>
        <pt x="200" y="314" on="1"/>
        <pt x="178" y="159" on="1"/>
        <pt x="174" y="127" on="0"/>
        <pt x="196" y="102" on="0"/>
        <pt x="227" y="102" on="1"/>
        <pt x="487" y="102" on="1"/>
        <pt x="484" y="6" on="1"/>
        <pt x="399" y="-2" on="0"/>
        <pt x="202" y="-2" on="1"/>
        <pt x="117" y="-2" on="0"/>
        <pt x="41" y="80" on="0"/>
        <pt x="51" y="154" on="1"/>
        <pt x="108" y="564" on="1"/>
        <pt x="116" y="625" on="0"/>
        <pt x="198" y="692" on="0"/>
        <pt x="268" y="692" on="1"/>
        <pt x="483" y="692" on="0"/>
        <pt x="572" y="683" on="1"/>
      </contour>
    </TTGlyph>
    <TTGlyph name="Edieresis" xMin="51" yMin="-2" xMax="572" yMax="895">
      <contour>
        <pt x="485" y="779" on="1"/>
        <pt x="443" y="779" on="1"/>
        <pt x="413" y="779" on="0"/>
        <pt x="417" y="807" on="1"/>
        <pt x="426" y="866" on="1"/>
        <pt x="430" y="895" on="0"/>
        <pt x="460" y="895" on="1"/>
        <pt x="499" y="895" on="1"/>
        <pt x="530" y="895" on="0"/>
        <pt x="526" y="866" on="1"/>
        <pt x="517" y="808" on="1"/>
        <pt x="514" y="779" on="0"/>
      </contour>
      <contour>
        <pt x="316" y="779" on="1"/>
        <pt x="274" y="779" on="1"/>
        <pt x="244" y="779" on="0"/>
        <pt x="248" y="807" on="1"/>
        <pt x="257" y="866" on="1"/>
        <pt x="261" y="895" on="0"/>
        <pt x="292" y="895" on="1"/>
        <pt x="330" y="895" on="1"/>
        <pt x="348" y="895" on="0"/>
        <pt x="359" y="881" on="0"/>
        <pt x="357" y="866" on="1"/>
        <pt x="348" y="808" on="1"/>
        <pt x="345" y="779" on="0"/>
      </contour>
      <contour>
        <pt x="556" y="588" on="1"/>
        <pt x="290" y="588" on="1"/>
        <pt x="260" y="588" on="0"/>
        <pt x="233" y="562" on="0"/>
        <pt x="229" y="528" on="1"/>
        <pt x="212" y="407" on="1"/>
        <pt x="493" y="407" on="1"/>
        <pt x="481" y="314" on="1"/>
        <pt x="200" y="314" on="1"/>
        <pt x="178" y="159" on="1"/>
        <pt x="174" y="127" on="0"/>
        <pt x="196" y="102" on="0"/>
        <pt x="227" y="102" on="1"/>
        <pt x="487" y="102" on="1"/>
        <pt x="484" y="6" on="1"/>
        <pt x="399" y="-2" on="0"/>
        <pt x="202" y="-2" on="1"/>
        <pt x="117" y="-2" on="0"/>
        <pt x="41" y="80" on="0"/>
        <pt x="51" y="154" on="1"/>
        <pt x="108" y="564" on="1"/>
        <pt x="116" y="625" on="0"/>
        <pt x="198" y="692" on="0"/>
        <pt x="268" y="692" on="1"/>
        <pt x="483" y="692" on="0"/>
        <pt x="572" y="683" on="1"/>
      </contour>
    </TTGlyph>
    <TTGlyph name="Edotaccent" xMin="51" yMin="-2" xMax="572" yMax="892">
      <contour>
        <pt x="400" y="769" on="1"/>
        <pt x="362" y="769" on="1"/>
        <pt x="345" y="769" on="0"/>
        <pt x="327" y="789" on="0"/>
        <pt x="330" y="806" on="1"/>
        <pt x="336" y="860" on="1"/>
        <pt x="342" y="892" on="0"/>
        <pt x="372" y="892" on="1"/>
        <pt x="410" y="892" on="1"/>
        <pt x="427" y="892" on="0"/>
        <pt x="446" y="872" on="0"/>
        <pt x="443" y="856" on="1"/>
        <pt x="436" y="802" on="1"/>
        <pt x="432" y="769" on="0"/>
      </contour>
      <contour>
        <pt x="556" y="588" on="1"/>
        <pt x="290" y="588" on="1"/>
        <pt x="260" y="588" on="0"/>
        <pt x="233" y="562" on="0"/>
        <pt x="229" y="528" on="1"/>
        <pt x="212" y="407" on="1"/>
        <pt x="493" y="407" on="1"/>
        <pt x="481" y="314" on="1"/>
        <pt x="200" y="314" on="1"/>
        <pt x="178" y="159" on="1"/>
        <pt x="174" y="127" on="0"/>
        <pt x="196" y="102" on="0"/>
        <pt x="227" y="102" on="1"/>
        <pt x="487" y="102" on="1"/>
        <pt x="484" y="6" on="1"/>
        <pt x="399" y="-2" on="0"/>
        <pt x="202" y="-2" on="1"/>
        <pt x="117" y="-2" on="0"/>
        <pt x="41" y="80" on="0"/>
        <pt x="51" y="154" on="1"/>
        <pt x="108" y="564" on="1"/>
        <pt x="116" y="625" on="0"/>
        <pt x="198" y="692" on="0"/>
        <pt x="268" y="692" on="1"/>
        <pt x="483" y="692" on="0"/>
        <pt x="572" y="683" on="1"/>
      </contour>
    </TTGlyph>
    <TTGlyph name="Egrave" xMin="51" yMin="-2" xMax="572" yMax="941">
      <contour>
        <pt x="398" y="741" on="1"/>
        <pt x="188" y="858" on="1"/>
        <pt x="248" y="941" on="1"/>
        <pt x="439" y="794" on="1"/>
      </contour>
      <contour>
        <pt x="556" y="588" on="1"/>
        <pt x="290" y="588" on="1"/>
        <pt x="260" y="588" on="0"/>
        <pt x="233" y="562" on="0"/>
        <pt x="229" y="528" on="1"/>
        <pt x="212" y="407" on="1"/>
        <pt x="493" y="407" on="1"/>
        <pt x="481" y="314" on="1"/>
        <pt x="200" y="314" on="1"/>
        <pt x="178" y="159" on="1"/>
        <pt x="174" y="127" on="0"/>
        <pt x="196" y="102" on="0"/>
        <pt x="227" y="102" on="1"/>
        <pt x="487" y="102" on="1"/>
        <pt x="484" y="6" on="1"/>
        <pt x="399" y="-2" on="0"/>
        <pt x="202" y="-2" on="1"/>
        <pt x="117" y="-2" on="0"/>
        <pt x="41" y="80" on="0"/>
        <pt x="51" y="154" on="1"/>
        <pt x="108" y="564" on="1"/>
        <pt x="116" y="625" on="0"/>
        <pt x="198" y="692" on="0"/>
        <pt x="268" y="692" on="1"/>
        <pt x="483" y="692" on="0"/>
        <pt x="572" y="683" on="1"/>
      </contour>
    </TTGlyph>
    <TTGlyph name="Emacron" xMin="51" yMin="-2" xMax="572" yMax="879">
      <contour>
        <pt x="526" y="795" on="1"/>
        <pt x="235" y="795" on="1"/>
        <pt x="247" y="879" on="1"/>
        <pt x="537" y="879" on="1"/>
      </contour>
      <contour>
        <pt x="556" y="588" on="1"/>
        <pt x="290" y="588" on="1"/>
        <pt x="260" y="588" on="0"/>
        <pt x="233" y="562" on="0"/>
        <pt x="229" y="528" on="1"/>
        <pt x="212" y="407" on="1"/>
        <pt x="493" y="407" on="1"/>
        <pt x="481" y="314" on="1"/>
        <pt x="200" y="314" on="1"/>
        <pt x="178" y="159" on="1"/>
        <pt x="174" y="127" on="0"/>
        <pt x="196" y="102" on="0"/>
        <pt x="227" y="102" on="1"/>
        <pt x="487" y="102" on="1"/>
        <pt x="484" y="6" on="1"/>
        <pt x="399" y="-2" on="0"/>
        <pt x="202" y="-2" on="1"/>
        <pt x="117" y="-2" on="0"/>
        <pt x="41" y="80" on="0"/>
        <pt x="51" y="154" on="1"/>
        <pt x="108" y="564" on="1"/>
        <pt x="116" y="625" on="0"/>
        <pt x="198" y="692" on="0"/>
        <pt x="268" y="692" on="1"/>
        <pt x="483" y="692" on="0"/>
        <pt x="572" y="683" on="1"/>
      </contour>
    </TTGlyph>
    <TTGlyph name="Eng" xMin="35" yMin="-213" xMax="692" yMax="690">
      <contour>
        <pt x="692" y="690" on="1"/>
        <pt x="585" y="-68" on="1"/>
        <pt x="575" y="-137" on="0"/>
        <pt x="493" y="-214" on="0"/>
        <pt x="432" y="-213" on="1"/>
        <pt x="372" y="-213" on="0"/>
        <pt x="326" y="-195" on="1"/>
        <pt x="347" y="-117" on="1"/>
        <pt x="390" y="-117" on="1"/>
        <pt x="463" y="-117" on="0"/>
        <pt x="472" y="-53" on="1"/>
        <pt x="480" y="2" on="1"/>
        <pt x="456" y="2" on="1"/>
        <pt x="450" y="2" on="0"/>
        <pt x="438" y="14" on="0"/>
        <pt x="433" y="25" on="0"/>
        <pt x="429" y="37" on="1"/>
        <pt x="268" y="446" on="1"/>
        <pt x="252" y="485" on="0"/>
        <pt x="242" y="548" on="1"/>
        <pt x="230" y="548" on="1"/>
        <pt x="229" y="503" on="0"/>
        <pt x="220" y="442" on="1"/>
        <pt x="158" y="0" on="1"/>
        <pt x="35" y="0" on="1"/>
        <pt x="126" y="646" on="1"/>
        <pt x="132" y="690" on="0"/>
        <pt x="175" y="690" on="1"/>
        <pt x="254" y="690" on="1"/>
        <pt x="273" y="690" on="0"/>
        <pt x="294" y="671" on="0"/>
        <pt x="302" y="650" on="1"/>
        <pt x="452" y="256" on="1"/>
        <pt x="475" y="194" on="0"/>
        <pt x="487" y="147" on="1"/>
        <pt x="499" y="147" on="1"/>
        <pt x="499" y="194" on="0"/>
        <pt x="508" y="262" on="1"/>
        <pt x="569" y="690" on="1"/>
      </contour>
    </TTGlyph>
    <TTGlyph name="Eogonek" xMin="51" yMin="-206" xMax="572" yMax="692">
      <contour>
        <pt x="556" y="588" on="1"/>
        <pt x="290" y="588" on="1"/>
        <pt x="260" y="588" on="0"/>
        <pt x="233" y="562" on="0"/>
        <pt x="229" y="528" on="1"/>
        <pt x="212" y="407" on="1"/>
        <pt x="493" y="407" on="1"/>
        <pt x="481" y="314" on="1"/>
        <pt x="200" y="314" on="1"/>
        <pt x="178" y="159" on="1"/>
        <pt x="174" y="127" on="0"/>
        <pt x="196" y="102" on="0"/>
        <pt x="227" y="102" on="1"/>
        <pt x="487" y="102" on="1"/>
        <pt x="484" y="6" on="1"/>
        <pt x="439" y="-43" on="0"/>
        <pt x="406" y="-104" on="1"/>
        <pt x="388" y="-133" on="0"/>
        <pt x="421" y="-150" on="0"/>
        <pt x="463" y="-137" on="1"/>
        <pt x="476" y="-187" on="1"/>
        <pt x="434" y="-203" on="0"/>
        <pt x="367" y="-209" on="0"/>
        <pt x="327" y="-194" on="0"/>
        <pt x="305" y="-164" on="0"/>
        <pt x="307" y="-124" on="0"/>
        <pt x="318" y="-102" on="1"/>
        <pt x="345" y="-49" on="0"/>
        <pt x="418" y="1" on="1"/>
        <pt x="347" y="-2" on="0"/>
        <pt x="202" y="-2" on="1"/>
        <pt x="117" y="-2" on="0"/>
        <pt x="41" y="80" on="0"/>
        <pt x="51" y="154" on="1"/>
        <pt x="108" y="564" on="1"/>
        <pt x="116" y="625" on="0"/>
        <pt x="198" y="692" on="0"/>
        <pt x="268" y="692" on="1"/>
        <pt x="483" y="692" on="0"/>
        <pt x="572" y="683" on="1"/>
      </contour>
    </TTGlyph>
    <TTGlyph name="Eth" xMin="24" yMin="-9" xMax="623" yMax="699">
      <contour>
        <pt x="91" y="397" on="1"/>
        <pt x="132" y="690" on="1"/>
        <pt x="256" y="699" on="0"/>
        <pt x="365" y="699" on="1"/>
        <pt x="533" y="699" on="0"/>
        <pt x="651" y="542" on="0"/>
        <pt x="623" y="340" on="1"/>
        <pt x="610" y="248" on="0"/>
        <pt x="571" y="124" on="0"/>
        <pt x="519" y="46" on="0"/>
        <pt x="436" y="5" on="0"/>
        <pt x="345" y="-9" on="0"/>
        <pt x="275" y="-9" on="1"/>
        <pt x="175" y="-9" on="0"/>
        <pt x="35" y="0" on="1"/>
        <pt x="82" y="332" on="1"/>
        <pt x="24" y="332" on="1"/>
        <pt x="32" y="397" on="1"/>
      </contour>
      <contour>
        <pt x="207" y="332" on="1"/>
        <pt x="174" y="98" on="1"/>
        <pt x="250" y="96" on="0"/>
        <pt x="274" y="96" on="1"/>
        <pt x="349" y="96" on="0"/>
        <pt x="426" y="131" on="0"/>
        <pt x="476" y="239" on="0"/>
        <pt x="492" y="350" on="1"/>
        <pt x="501" y="415" on="0"/>
        <pt x="504" y="498" on="0"/>
        <pt x="492" y="555" on="0"/>
        <pt x="455" y="584" on="0"/>
        <pt x="404" y="595" on="0"/>
        <pt x="361" y="595" on="1"/>
        <pt x="244" y="594" on="1"/>
        <pt x="216" y="397" on="1"/>
        <pt x="353" y="397" on="1"/>
        <pt x="344" y="332" on="1"/>
      </contour>
    </TTGlyph>
    <TTGlyph name="Euro" xMin="37" yMin="-12" xMax="627" yMax="702">
      <contour>
        <pt x="627" y="679" on="1"/>
        <pt x="609" y="585" on="1"/>
        <pt x="541" y="597" on="0"/>
        <pt x="447" y="592" on="1"/>
        <pt x="378" y="588" on="0"/>
        <pt x="299" y="521" on="0"/>
        <pt x="278" y="450" on="1"/>
        <pt x="514" y="450" on="1"/>
        <pt x="496" y="381" on="1"/>
        <pt x="262" y="381" on="1"/>
        <pt x="255" y="341" on="1"/>
        <pt x="254" y="337" on="0"/>
        <pt x="252" y="324" on="0"/>
        <pt x="252" y="321" on="1"/>
        <pt x="464" y="321" on="1"/>
        <pt x="446" y="252" on="1"/>
        <pt x="247" y="252" on="1"/>
        <pt x="246" y="174" on="0"/>
        <pt x="301" y="100" on="0"/>
        <pt x="365" y="97" on="1"/>
        <pt x="462" y="92" on="0"/>
        <pt x="550" y="108" on="1"/>
        <pt x="554" y="13" on="1"/>
        <pt x="477" y="-12" on="0"/>
        <pt x="371" y="-12" on="1"/>
        <pt x="239" y="-12" on="0"/>
        <pt x="116" y="119" on="0"/>
        <pt x="118" y="252" on="1"/>
        <pt x="37" y="252" on="1"/>
        <pt x="48" y="321" on="1"/>
        <pt x="122" y="321" on="1"/>
        <pt x="126" y="350" on="1"/>
        <pt x="127" y="362" on="0"/>
        <pt x="131" y="381" on="1"/>
        <pt x="56" y="381" on="1"/>
        <pt x="66" y="450" on="1"/>
        <pt x="145" y="450" on="1"/>
        <pt x="179" y="580" on="0"/>
        <pt x="325" y="702" on="0"/>
        <pt x="457" y="702" on="1"/>
        <pt x="551" y="702" on="0"/>
      </contour>
    </TTGlyph>
    <TTGlyph name="F" xMin="33" yMin="0" xMax="567" yMax="692">
      <contour>
        <pt x="550" y="588" on="1"/>
        <pt x="303" y="588" on="1"/>
        <pt x="266" y="588" on="0"/>
        <pt x="237" y="564" on="0"/>
        <pt x="233" y="528" on="1"/>
        <pt x="214" y="394" on="1"/>
        <pt x="486" y="394" on="1"/>
        <pt x="473" y="301" on="1"/>
        <pt x="201" y="301" on="1"/>
        <pt x="159" y="0" on="1"/>
        <pt x="33" y="0" on="1"/>
        <pt x="111" y="558" on="1"/>
        <pt x="131" y="692" on="0"/>
        <pt x="271" y="692" on="1"/>
        <pt x="480" y="692" on="0"/>
        <pt x="567" y="682" on="1"/>
      </contour>
    </TTGlyph>
    <TTGlyph name="G" xMin="60" yMin="-13" xMax="604" yMax="703">
      <contour>
        <pt x="468" y="400" on="1"/>
        <pt x="588" y="400" on="1"/>
        <pt x="532" y="0" on="1"/>
        <pt x="442" y="0" on="1"/>
        <pt x="439" y="88" on="1"/>
        <pt x="353" y="-13" on="0"/>
        <pt x="228" y="-13" on="1"/>
        <pt x="124" y="-13" on="0"/>
        <pt x="39" y="161" on="0"/>
        <pt x="60" y="350" on="1"/>
        <pt x="74" y="459" on="0"/>
        <pt x="129" y="600" on="0"/>
        <pt x="219" y="675" on="0"/>
        <pt x="324" y="703" on="0"/>
        <pt x="401" y="703" on="1"/>
        <pt x="519" y="703" on="0"/>
        <pt x="604" y="679" on="1"/>
        <pt x="587" y="587" on="1"/>
        <pt x="491" y="593" on="0"/>
        <pt x="411" y="593" on="1"/>
        <pt x="335" y="593" on="0"/>
        <pt x="255" y="556" on="0"/>
        <pt x="205" y="448" on="0"/>
        <pt x="191" y="340" on="1"/>
        <pt x="176" y="202" on="0"/>
        <pt x="212" y="96" on="0"/>
        <pt x="276" y="96" on="1"/>
        <pt x="321" y="96" on="0"/>
        <pt x="390" y="136" on="0"/>
        <pt x="438" y="183" on="1"/>
      </contour>
    </TTGlyph>
    <TTGlyph name="Gbreve" xMin="60" yMin="-13" xMax="604" yMax="894">
      <contour>
        <pt x="511" y="894" on="1"/>
        <pt x="570" y="882" on="1"/>
        <pt x="567" y="820" on="0"/>
        <pt x="473" y="741" on="0"/>
        <pt x="398" y="741" on="1"/>
        <pt x="319" y="741" on="0"/>
        <pt x="239" y="824" on="0"/>
        <pt x="254" y="886" on="1"/>
        <pt x="314" y="890" on="1"/>
        <pt x="309" y="858" on="0"/>
        <pt x="354" y="826" on="0"/>
        <pt x="399" y="826" on="1"/>
        <pt x="449" y="826" on="0"/>
        <pt x="507" y="862" on="0"/>
      </contour>
      <contour>
        <pt x="468" y="400" on="1"/>
        <pt x="588" y="400" on="1"/>
        <pt x="532" y="0" on="1"/>
        <pt x="442" y="0" on="1"/>
        <pt x="439" y="88" on="1"/>
        <pt x="353" y="-13" on="0"/>
        <pt x="228" y="-13" on="1"/>
        <pt x="124" y="-13" on="0"/>
        <pt x="39" y="161" on="0"/>
        <pt x="60" y="350" on="1"/>
        <pt x="74" y="459" on="0"/>
        <pt x="129" y="600" on="0"/>
        <pt x="219" y="675" on="0"/>
        <pt x="324" y="703" on="0"/>
        <pt x="401" y="703" on="1"/>
        <pt x="519" y="703" on="0"/>
        <pt x="604" y="679" on="1"/>
        <pt x="587" y="587" on="1"/>
        <pt x="491" y="593" on="0"/>
        <pt x="411" y="593" on="1"/>
        <pt x="335" y="593" on="0"/>
        <pt x="255" y="556" on="0"/>
        <pt x="205" y="448" on="0"/>
        <pt x="191" y="340" on="1"/>
        <pt x="176" y="202" on="0"/>
        <pt x="212" y="96" on="0"/>
        <pt x="276" y="96" on="1"/>
        <pt x="321" y="96" on="0"/>
        <pt x="390" y="136" on="0"/>
        <pt x="438" y="183" on="1"/>
      </contour>
    </TTGlyph>
    <TTGlyph name="Gcommaaccent" xMin="60" yMin="-287" xMax="604" yMax="703">
      <contour>
        <pt x="468" y="400" on="1"/>
        <pt x="588" y="400" on="1"/>
        <pt x="532" y="0" on="1"/>
        <pt x="442" y="0" on="1"/>
        <pt x="439" y="88" on="1"/>
        <pt x="353" y="-13" on="0"/>
        <pt x="228" y="-13" on="1"/>
        <pt x="124" y="-13" on="0"/>
        <pt x="39" y="161" on="0"/>
        <pt x="60" y="350" on="1"/>
        <pt x="74" y="459" on="0"/>
        <pt x="129" y="600" on="0"/>
        <pt x="219" y="675" on="0"/>
        <pt x="324" y="703" on="0"/>
        <pt x="401" y="703" on="1"/>
        <pt x="519" y="703" on="0"/>
        <pt x="604" y="679" on="1"/>
        <pt x="587" y="587" on="1"/>
        <pt x="491" y="593" on="0"/>
        <pt x="411" y="593" on="1"/>
        <pt x="335" y="593" on="0"/>
        <pt x="255" y="556" on="0"/>
        <pt x="205" y="448" on="0"/>
        <pt x="191" y="340" on="1"/>
        <pt x="176" y="202" on="0"/>
        <pt x="212" y="96" on="0"/>
        <pt x="276" y="96" on="1"/>
        <pt x="321" y="96" on="0"/>
        <pt x="390" y="136" on="0"/>
        <pt x="438" y="183" on="1"/>
      </contour>
      <contour>
        <pt x="283" y="-55" on="1"/>
        <pt x="312" y="-55" on="1"/>
        <pt x="354" y="-55" on="0"/>
        <pt x="347" y="-93" on="1"/>
        <pt x="340" y="-146" on="1"/>
        <pt x="330" y="-213" on="0"/>
        <pt x="279" y="-287" on="1"/>
        <pt x="228" y="-270" on="1"/>
        <pt x="254" y="-196" on="0"/>
        <pt x="260" y="-167" on="1"/>
        <pt x="243" y="-168" on="0"/>
        <pt x="226" y="-151" on="0"/>
        <pt x="228" y="-136" on="1"/>
        <pt x="235" y="-90" on="1"/>
        <pt x="240" y="-70" on="0"/>
        <pt x="259" y="-55" on="0"/>
      </contour>
    </TTGlyph>
    <TTGlyph name="Gdotaccent" xMin="60" yMin="-13" xMax="604" yMax="876">
      <contour>
        <pt x="417" y="753" on="1"/>
        <pt x="379" y="753" on="1"/>
        <pt x="362" y="753" on="0"/>
        <pt x="344" y="773" on="0"/>
        <pt x="346" y="790" on="1"/>
        <pt x="353" y="844" on="1"/>
        <pt x="357" y="876" on="0"/>
        <pt x="389" y="876" on="1"/>
        <pt x="426" y="876" on="1"/>
        <pt x="443" y="876" on="0"/>
        <pt x="462" y="856" on="0"/>
        <pt x="460" y="839" on="1"/>
        <pt x="452" y="785" on="1"/>
        <pt x="448" y="753" on="0"/>
      </contour>
      <contour>
        <pt x="468" y="400" on="1"/>
        <pt x="588" y="400" on="1"/>
        <pt x="532" y="0" on="1"/>
        <pt x="442" y="0" on="1"/>
        <pt x="439" y="88" on="1"/>
        <pt x="353" y="-13" on="0"/>
        <pt x="228" y="-13" on="1"/>
        <pt x="124" y="-13" on="0"/>
        <pt x="39" y="161" on="0"/>
        <pt x="60" y="350" on="1"/>
        <pt x="74" y="459" on="0"/>
        <pt x="129" y="600" on="0"/>
        <pt x="219" y="675" on="0"/>
        <pt x="324" y="703" on="0"/>
        <pt x="401" y="703" on="1"/>
        <pt x="519" y="703" on="0"/>
        <pt x="604" y="679" on="1"/>
        <pt x="587" y="587" on="1"/>
        <pt x="491" y="593" on="0"/>
        <pt x="411" y="593" on="1"/>
        <pt x="335" y="593" on="0"/>
        <pt x="255" y="556" on="0"/>
        <pt x="205" y="448" on="0"/>
        <pt x="191" y="340" on="1"/>
        <pt x="176" y="202" on="0"/>
        <pt x="212" y="96" on="0"/>
        <pt x="276" y="96" on="1"/>
        <pt x="321" y="96" on="0"/>
        <pt x="390" y="136" on="0"/>
        <pt x="438" y="183" on="1"/>
      </contour>
    </TTGlyph>
    <TTGlyph name="H" xMin="35" yMin="0" xMax="654" yMax="690">
      <contour>
        <pt x="654" y="690" on="1"/>
        <pt x="557" y="0" on="1"/>
        <pt x="432" y="0" on="1"/>
        <pt x="476" y="315" on="1"/>
        <pt x="206" y="315" on="1"/>
        <pt x="161" y="0" on="1"/>
        <pt x="35" y="0" on="1"/>
        <pt x="132" y="690" on="1"/>
        <pt x="258" y="690" on="1"/>
        <pt x="220" y="419" on="1"/>
        <pt x="491" y="419" on="1"/>
        <pt x="529" y="690" on="1"/>
      </contour>
    </TTGlyph>
    <TTGlyph name="Hbar" xMin="35" yMin="0" xMax="706" yMax="690">
      <contour>
        <pt x="698" y="516" on="1"/>
        <pt x="630" y="516" on="1"/>
        <pt x="557" y="0" on="1"/>
        <pt x="432" y="0" on="1"/>
        <pt x="476" y="315" on="1"/>
        <pt x="206" y="315" on="1"/>
        <pt x="161" y="0" on="1"/>
        <pt x="35" y="0" on="1"/>
        <pt x="108" y="516" on="1"/>
        <pt x="47" y="516" on="1"/>
        <pt x="55" y="578" on="1"/>
        <pt x="117" y="578" on="1"/>
        <pt x="132" y="690" on="1"/>
        <pt x="258" y="690" on="1"/>
        <pt x="243" y="578" on="1"/>
        <pt x="513" y="578" on="1"/>
        <pt x="529" y="690" on="1"/>
        <pt x="654" y="690" on="1"/>
        <pt x="638" y="578" on="1"/>
        <pt x="706" y="578" on="1"/>
      </contour>
      <contour>
        <pt x="505" y="516" on="1"/>
        <pt x="234" y="516" on="1"/>
        <pt x="220" y="419" on="1"/>
        <pt x="491" y="419" on="1"/>
      </contour>
    </TTGlyph>
    <TTGlyph name="I" xMin="35" yMin="0" xMax="258" yMax="690">
      <contour>
        <pt x="161" y="0" on="1"/>
        <pt x="35" y="0" on="1"/>
        <pt x="132" y="690" on="1"/>
        <pt x="258" y="690" on="1"/>
      </contour>
    </TTGlyph>
    <TTGlyph name="IJ" xMin="35" yMin="-11" xMax="613" yMax="690">
      <contour>
        <pt x="161" y="0" on="1"/>
        <pt x="35" y="0" on="1"/>
        <pt x="132" y="690" on="1"/>
        <pt x="258" y="690" on="1"/>
      </contour>
      <contour>
        <pt x="613" y="690" on="1"/>
        <pt x="537" y="150" on="1"/>
        <pt x="526" y="71" on="0"/>
        <pt x="444" y="-11" on="0"/>
        <pt x="378" y="-11" on="1"/>
        <pt x="309" y="-11" on="0"/>
        <pt x="266" y="7" on="1"/>
        <pt x="289" y="93" on="1"/>
        <pt x="332" y="93" on="1"/>
        <pt x="404" y="93" on="0"/>
        <pt x="412" y="158" on="1"/>
        <pt x="487" y="690" on="1"/>
      </contour>
    </TTGlyph>
    <TTGlyph name="Iacute" xMin="35" yMin="0" xMax="390" yMax="926">
      <contour>
        <pt x="390" y="835" on="1"/>
        <pt x="165" y="724" on="1"/>
        <pt x="131" y="778" on="1"/>
        <pt x="338" y="926" on="1"/>
      </contour>
      <contour>
        <pt x="161" y="0" on="1"/>
        <pt x="35" y="0" on="1"/>
        <pt x="132" y="690" on="1"/>
        <pt x="258" y="690" on="1"/>
      </contour>
    </TTGlyph>
    <TTGlyph name="Icircumflex" xMin="31" yMin="0" xMax="389" yMax="905">
      <contour>
        <pt x="389" y="767" on="1"/>
        <pt x="348" y="722" on="1"/>
        <pt x="224" y="822" on="1"/>
        <pt x="216" y="822" on="1"/>
        <pt x="64" y="724" on="1"/>
        <pt x="31" y="774" on="1"/>
        <pt x="179" y="905" on="1"/>
        <pt x="264" y="905" on="1"/>
      </contour>
      <contour>
        <pt x="161" y="0" on="1"/>
        <pt x="35" y="0" on="1"/>
        <pt x="132" y="690" on="1"/>
        <pt x="258" y="690" on="1"/>
      </contour>
    </TTGlyph>
    <TTGlyph name="Idieresis" xMin="35" yMin="0" xMax="353" yMax="879">
      <contour>
        <pt x="287" y="879" on="1"/>
        <pt x="325" y="879" on="1"/>
        <pt x="343" y="879" on="0"/>
        <pt x="355" y="865" on="0"/>
        <pt x="353" y="849" on="1"/>
        <pt x="344" y="792" on="1"/>
        <pt x="340" y="763" on="0"/>
        <pt x="312" y="763" on="1"/>
        <pt x="270" y="763" on="1"/>
        <pt x="240" y="763" on="0"/>
        <pt x="243" y="791" on="1"/>
        <pt x="253" y="849" on="1"/>
        <pt x="257" y="879" on="0"/>
      </contour>
      <contour>
        <pt x="118" y="879" on="1"/>
        <pt x="156" y="879" on="1"/>
        <pt x="174" y="879" on="0"/>
        <pt x="186" y="865" on="0"/>
        <pt x="184" y="849" on="1"/>
        <pt x="174" y="792" on="1"/>
        <pt x="171" y="763" on="0"/>
        <pt x="143" y="763" on="1"/>
        <pt x="101" y="763" on="1"/>
        <pt x="71" y="763" on="0"/>
        <pt x="74" y="791" on="1"/>
        <pt x="84" y="849" on="1"/>
        <pt x="88" y="879" on="0"/>
      </contour>
      <contour>
        <pt x="161" y="0" on="1"/>
        <pt x="35" y="0" on="1"/>
        <pt x="132" y="690" on="1"/>
        <pt x="258" y="690" on="1"/>
      </contour>
    </TTGlyph>
    <TTGlyph name="Idotaccent" xMin="35" yMin="0" xMax="270" yMax="876">
      <contour>
        <pt x="199" y="876" on="1"/>
        <pt x="237" y="876" on="1"/>
        <pt x="254" y="876" on="0"/>
        <pt x="272" y="856" on="0"/>
        <pt x="270" y="839" on="1"/>
        <pt x="263" y="785" on="1"/>
        <pt x="257" y="753" on="0"/>
        <pt x="227" y="753" on="1"/>
        <pt x="189" y="753" on="1"/>
        <pt x="172" y="753" on="0"/>
        <pt x="154" y="773" on="0"/>
        <pt x="156" y="790" on="1"/>
        <pt x="163" y="844" on="1"/>
        <pt x="169" y="876" on="0"/>
      </contour>
      <contour>
        <pt x="161" y="0" on="1"/>
        <pt x="35" y="0" on="1"/>
        <pt x="132" y="690" on="1"/>
        <pt x="258" y="690" on="1"/>
      </contour>
    </TTGlyph>
    <TTGlyph name="Igrave" xMin="15" yMin="0" xMax="266" yMax="925">
      <contour>
        <pt x="266" y="777" on="1"/>
        <pt x="225" y="724" on="1"/>
        <pt x="15" y="842" on="1"/>
        <pt x="75" y="925" on="1"/>
      </contour>
      <contour>
        <pt x="161" y="0" on="1"/>
        <pt x="35" y="0" on="1"/>
        <pt x="132" y="690" on="1"/>
        <pt x="258" y="690" on="1"/>
      </contour>
    </TTGlyph>
    <TTGlyph name="Imacron" xMin="35" yMin="0" xMax="364" yMax="862">
      <contour>
        <pt x="352" y="778" on="1"/>
        <pt x="62" y="778" on="1"/>
        <pt x="74" y="862" on="1"/>
        <pt x="364" y="862" on="1"/>
      </contour>
      <contour>
        <pt x="161" y="0" on="1"/>
        <pt x="35" y="0" on="1"/>
        <pt x="132" y="690" on="1"/>
        <pt x="258" y="690" on="1"/>
      </contour>
    </TTGlyph>
    <TTGlyph name="Iogonek" xMin="-33" yMin="-213" xMax="258" yMax="690">
      <contour>
        <pt x="161" y="0" on="1"/>
        <pt x="145" y="0" on="1"/>
        <pt x="100" y="-49" on="0"/>
        <pt x="67" y="-110" on="1"/>
        <pt x="49" y="-139" on="0"/>
        <pt x="82" y="-157" on="0"/>
        <pt x="124" y="-144" on="1"/>
        <pt x="137" y="-193" on="1"/>
        <pt x="95" y="-209" on="0"/>
        <pt x="28" y="-216" on="0"/>
        <pt x="-12" y="-200" on="0"/>
        <pt x="-34" y="-171" on="0"/>
        <pt x="-32" y="-131" on="0"/>
        <pt x="-21" y="-109" on="1"/>
        <pt x="8" y="-54" on="0"/>
        <pt x="86" y="0" on="1"/>
        <pt x="35" y="0" on="1"/>
        <pt x="132" y="690" on="1"/>
        <pt x="258" y="690" on="1"/>
      </contour>
    </TTGlyph>
    <TTGlyph name="J" xMin="-13" yMin="-11" xMax="334" yMax="690">
      <contour>
        <pt x="334" y="690" on="1"/>
        <pt x="258" y="150" on="1"/>
        <pt x="247" y="71" on="0"/>
        <pt x="165" y="-11" on="0"/>
        <pt x="99" y="-11" on="1"/>
        <pt x="30" y="-11" on="0"/>
        <pt x="-13" y="7" on="1"/>
        <pt x="10" y="93" on="1"/>
        <pt x="53" y="93" on="1"/>
        <pt x="124" y="93" on="0"/>
        <pt x="134" y="158" on="1"/>
        <pt x="208" y="690" on="1"/>
      </contour>
    </TTGlyph>
    <TTGlyph name="K" xMin="35" yMin="0" xMax="648" yMax="690">
      <contour>
        <pt x="369" y="358" on="1"/>
        <pt x="368" y="353" on="1"/>
        <pt x="390" y="331" on="0"/>
        <pt x="408" y="293" on="1"/>
        <pt x="562" y="0" on="1"/>
        <pt x="422" y="0" on="1"/>
        <pt x="264" y="311" on="1"/>
        <pt x="197" y="311" on="1"/>
        <pt x="199" y="274" on="0"/>
        <pt x="194" y="241" on="1"/>
        <pt x="161" y="0" on="1"/>
        <pt x="35" y="0" on="1"/>
        <pt x="132" y="690" on="1"/>
        <pt x="258" y="690" on="1"/>
        <pt x="228" y="483" on="1"/>
        <pt x="220" y="433" on="0"/>
        <pt x="212" y="407" on="1"/>
        <pt x="276" y="407" on="1"/>
        <pt x="499" y="690" on="1"/>
        <pt x="648" y="690" on="1"/>
        <pt x="424" y="407" on="1"/>
        <pt x="398" y="375" on="0"/>
      </contour>
    </TTGlyph>
    <TTGlyph name="Kcommaaccent" xMin="35" yMin="-287" xMax="648" yMax="690">
      <contour>
        <pt x="369" y="358" on="1"/>
        <pt x="368" y="353" on="1"/>
        <pt x="390" y="331" on="0"/>
        <pt x="408" y="293" on="1"/>
        <pt x="562" y="0" on="1"/>
        <pt x="422" y="0" on="1"/>
        <pt x="264" y="311" on="1"/>
        <pt x="197" y="311" on="1"/>
        <pt x="199" y="274" on="0"/>
        <pt x="194" y="241" on="1"/>
        <pt x="161" y="0" on="1"/>
        <pt x="35" y="0" on="1"/>
        <pt x="132" y="690" on="1"/>
        <pt x="258" y="690" on="1"/>
        <pt x="228" y="483" on="1"/>
        <pt x="220" y="433" on="0"/>
        <pt x="212" y="407" on="1"/>
        <pt x="276" y="407" on="1"/>
        <pt x="499" y="690" on="1"/>
        <pt x="648" y="690" on="1"/>
        <pt x="424" y="407" on="1"/>
        <pt x="398" y="375" on="0"/>
      </contour>
      <contour>
        <pt x="266" y="-55" on="1"/>
        <pt x="295" y="-55" on="1"/>
        <pt x="317" y="-55" on="0"/>
        <pt x="334" y="-73" on="0"/>
        <pt x="330" y="-93" on="1"/>
        <pt x="323" y="-146" on="1"/>
        <pt x="313" y="-213" on="0"/>
        <pt x="262" y="-287" on="1"/>
        <pt x="211" y="-270" on="1"/>
        <pt x="234" y="-209" on="0"/>
        <pt x="244" y="-167" on="1"/>
        <pt x="208" y="-169" on="0"/>
        <pt x="211" y="-136" on="1"/>
        <pt x="219" y="-90" on="1"/>
        <pt x="223" y="-70" on="0"/>
        <pt x="242" y="-55" on="0"/>
      </contour>
    </TTGlyph>
    <TTGlyph name="L" xMin="56" yMin="-2" xMax="469" yMax="690">
      <contour>
        <pt x="255" y="690" on="1"/>
        <pt x="181" y="160" on="1"/>
        <pt x="177" y="132" on="0"/>
        <pt x="198" y="104" on="0"/>
        <pt x="229" y="104" on="1"/>
        <pt x="469" y="104" on="1"/>
        <pt x="466" y="6" on="1"/>
        <pt x="380" y="-2" on="0"/>
        <pt x="194" y="-2" on="1"/>
        <pt x="120" y="-2" on="0"/>
        <pt x="45" y="79" on="0"/>
        <pt x="56" y="156" on="1"/>
        <pt x="129" y="690" on="1"/>
      </contour>
    </TTGlyph>
    <TTGlyph name="Lacute" xMin="56" yMin="-2" xMax="469" yMax="925">
      <contour>
        <pt x="389" y="833" on="1"/>
        <pt x="163" y="722" on="1"/>
        <pt x="130" y="776" on="1"/>
        <pt x="337" y="925" on="1"/>
      </contour>
      <contour>
        <pt x="255" y="690" on="1"/>
        <pt x="181" y="160" on="1"/>
        <pt x="177" y="132" on="0"/>
        <pt x="198" y="104" on="0"/>
        <pt x="229" y="104" on="1"/>
        <pt x="469" y="104" on="1"/>
        <pt x="466" y="6" on="1"/>
        <pt x="380" y="-2" on="0"/>
        <pt x="194" y="-2" on="1"/>
        <pt x="120" y="-2" on="0"/>
        <pt x="45" y="79" on="0"/>
        <pt x="56" y="156" on="1"/>
        <pt x="129" y="690" on="1"/>
      </contour>
    </TTGlyph>
    <TTGlyph name="Lcaron" xMin="56" yMin="-2" xMax="469" yMax="691">
      <contour>
        <pt x="370" y="691" on="1"/>
        <pt x="399" y="691" on="1"/>
        <pt x="441" y="691" on="0"/>
        <pt x="434" y="654" on="1"/>
        <pt x="426" y="601" on="1"/>
        <pt x="417" y="533" on="0"/>
        <pt x="366" y="460" on="1"/>
        <pt x="315" y="476" on="1"/>
        <pt x="342" y="554" on="0"/>
        <pt x="347" y="580" on="1"/>
        <pt x="330" y="579" on="0"/>
        <pt x="313" y="595" on="0"/>
        <pt x="315" y="611" on="1"/>
        <pt x="322" y="657" on="1"/>
        <pt x="326" y="677" on="0"/>
        <pt x="346" y="691" on="0"/>
      </contour>
      <contour>
        <pt x="255" y="690" on="1"/>
        <pt x="181" y="160" on="1"/>
        <pt x="177" y="132" on="0"/>
        <pt x="198" y="104" on="0"/>
        <pt x="229" y="104" on="1"/>
        <pt x="469" y="104" on="1"/>
        <pt x="466" y="6" on="1"/>
        <pt x="380" y="-2" on="0"/>
        <pt x="194" y="-2" on="1"/>
        <pt x="120" y="-2" on="0"/>
        <pt x="45" y="79" on="0"/>
        <pt x="56" y="156" on="1"/>
        <pt x="129" y="690" on="1"/>
      </contour>
    </TTGlyph>
    <TTGlyph name="Lcommaaccent" xMin="56" yMin="-287" xMax="469" yMax="690">
      <contour>
        <pt x="255" y="690" on="1"/>
        <pt x="181" y="160" on="1"/>
        <pt x="177" y="132" on="0"/>
        <pt x="198" y="104" on="0"/>
        <pt x="229" y="104" on="1"/>
        <pt x="469" y="104" on="1"/>
        <pt x="466" y="6" on="1"/>
        <pt x="380" y="-2" on="0"/>
        <pt x="194" y="-2" on="1"/>
        <pt x="120" y="-2" on="0"/>
        <pt x="45" y="79" on="0"/>
        <pt x="56" y="156" on="1"/>
        <pt x="129" y="690" on="1"/>
      </contour>
      <contour>
        <pt x="252" y="-55" on="1"/>
        <pt x="281" y="-55" on="1"/>
        <pt x="303" y="-55" on="0"/>
        <pt x="319" y="-73" on="0"/>
        <pt x="316" y="-93" on="1"/>
        <pt x="308" y="-146" on="1"/>
        <pt x="298" y="-212" on="0"/>
        <pt x="248" y="-287" on="1"/>
        <pt x="196" y="-270" on="1"/>
        <pt x="222" y="-203" on="0"/>
        <pt x="229" y="-167" on="1"/>
        <pt x="212" y="-168" on="0"/>
        <pt x="195" y="-151" on="0"/>
        <pt x="197" y="-136" on="1"/>
        <pt x="204" y="-90" on="1"/>
        <pt x="209" y="-70" on="0"/>
        <pt x="228" y="-55" on="0"/>
      </contour>
    </TTGlyph>
    <TTGlyph name="Ldot" xMin="56" yMin="-2" xMax="469" yMax="690">
      <contour>
        <pt x="255" y="690" on="1"/>
        <pt x="181" y="160" on="1"/>
        <pt x="177" y="132" on="0"/>
        <pt x="198" y="104" on="0"/>
        <pt x="229" y="104" on="1"/>
        <pt x="469" y="104" on="1"/>
        <pt x="466" y="6" on="1"/>
        <pt x="380" y="-2" on="0"/>
        <pt x="194" y="-2" on="1"/>
        <pt x="120" y="-2" on="0"/>
        <pt x="45" y="79" on="0"/>
        <pt x="56" y="156" on="1"/>
        <pt x="129" y="690" on="1"/>
      </contour>
      <contour>
        <pt x="417" y="341" on="1"/>
        <pt x="380" y="341" on="1"/>
        <pt x="363" y="341" on="0"/>
        <pt x="344" y="361" on="0"/>
        <pt x="346" y="378" on="1"/>
        <pt x="354" y="432" on="1"/>
        <pt x="358" y="464" on="0"/>
        <pt x="389" y="464" on="1"/>
        <pt x="427" y="464" on="1"/>
        <pt x="444" y="464" on="0"/>
        <pt x="462" y="444" on="0"/>
        <pt x="460" y="427" on="1"/>
        <pt x="453" y="373" on="1"/>
        <pt x="449" y="341" on="0"/>
      </contour>
    </TTGlyph>
    <TTGlyph name="Lslash" xMin="16" yMin="-2" xMax="469" yMax="690">
      <contour>
        <pt x="469" y="104" on="1"/>
        <pt x="466" y="6" on="1"/>
        <pt x="380" y="-2" on="0"/>
        <pt x="194" y="-2" on="1"/>
        <pt x="120" y="-2" on="0"/>
        <pt x="45" y="79" on="0"/>
        <pt x="56" y="156" on="1"/>
        <pt x="78" y="319" on="1"/>
        <pt x="16" y="295" on="1"/>
        <pt x="24" y="366" on="1"/>
        <pt x="88" y="391" on="1"/>
        <pt x="129" y="690" on="1"/>
        <pt x="255" y="690" on="1"/>
        <pt x="220" y="442" on="1"/>
        <pt x="340" y="488" on="1"/>
        <pt x="332" y="417" on="1"/>
        <pt x="210" y="370" on="1"/>
        <pt x="181" y="160" on="1"/>
        <pt x="177" y="132" on="0"/>
        <pt x="198" y="104" on="0"/>
        <pt x="229" y="104" on="1"/>
      </contour>
    </TTGlyph>
    <TTGlyph name="M" xMin="23" yMin="0" xMax="850" yMax="690">
      <contour>
        <pt x="676" y="690" on="1"/>
        <pt x="805" y="690" on="1"/>
        <pt x="829" y="690" on="0"/>
        <pt x="852" y="663" on="0"/>
        <pt x="850" y="639" on="1"/>
        <pt x="788" y="0" on="1"/>
        <pt x="666" y="0" on="1"/>
        <pt x="728" y="589" on="1"/>
        <pt x="710" y="589" on="1"/>
        <pt x="527" y="128" on="1"/>
        <pt x="511" y="88" on="0"/>
        <pt x="471" y="88" on="1"/>
        <pt x="375" y="88" on="1"/>
        <pt x="333" y="88" on="0"/>
        <pt x="326" y="132" on="1"/>
        <pt x="266" y="589" on="1"/>
        <pt x="247" y="589" on="1"/>
        <pt x="145" y="0" on="1"/>
        <pt x="23" y="0" on="1"/>
        <pt x="139" y="643" on="1"/>
        <pt x="146" y="690" on="0"/>
        <pt x="191" y="690" on="1"/>
        <pt x="317" y="690" on="1"/>
        <pt x="357" y="690" on="0"/>
        <pt x="362" y="646" on="1"/>
        <pt x="413" y="272" on="1"/>
        <pt x="419" y="231" on="0"/>
        <pt x="421" y="177" on="1"/>
        <pt x="437" y="177" on="1"/>
        <pt x="450" y="218" on="0"/>
        <pt x="471" y="269" on="1"/>
        <pt x="620" y="650" on="1"/>
        <pt x="636" y="689" on="0"/>
      </contour>
    </TTGlyph>
    <TTGlyph name="N" xMin="35" yMin="0" xMax="692" yMax="690">
      <contour>
        <pt x="692" y="690" on="1"/>
        <pt x="600" y="44" on="1"/>
        <pt x="594" y="0" on="0"/>
        <pt x="552" y="0" on="1"/>
        <pt x="461" y="0" on="1"/>
        <pt x="428" y="0" on="0"/>
        <pt x="414" y="40" on="1"/>
        <pt x="269" y="463" on="1"/>
        <pt x="250" y="516" on="0"/>
        <pt x="241" y="564" on="1"/>
        <pt x="229" y="564" on="1"/>
        <pt x="228" y="520" on="0"/>
        <pt x="221" y="463" on="1"/>
        <pt x="158" y="0" on="1"/>
        <pt x="35" y="0" on="1"/>
        <pt x="126" y="646" on="1"/>
        <pt x="132" y="690" on="0"/>
        <pt x="175" y="690" on="1"/>
        <pt x="265" y="690" on="1"/>
        <pt x="298" y="690" on="0"/>
        <pt x="312" y="650" on="1"/>
        <pt x="452" y="239" on="1"/>
        <pt x="477" y="163" on="0"/>
        <pt x="486" y="130" on="1"/>
        <pt x="500" y="130" on="1"/>
        <pt x="501" y="184" on="0"/>
        <pt x="509" y="238" on="1"/>
        <pt x="570" y="690" on="1"/>
      </contour>
    </TTGlyph>
    <TTGlyph name="Nacute" xMin="35" yMin="0" xMax="692" yMax="926">
      <contour>
        <pt x="611" y="835" on="1"/>
        <pt x="386" y="724" on="1"/>
        <pt x="353" y="778" on="1"/>
        <pt x="559" y="926" on="1"/>
      </contour>
      <contour>
        <pt x="692" y="690" on="1"/>
        <pt x="600" y="44" on="1"/>
        <pt x="594" y="0" on="0"/>
        <pt x="552" y="0" on="1"/>
        <pt x="461" y="0" on="1"/>
        <pt x="428" y="0" on="0"/>
        <pt x="414" y="40" on="1"/>
        <pt x="269" y="463" on="1"/>
        <pt x="250" y="516" on="0"/>
        <pt x="241" y="564" on="1"/>
        <pt x="229" y="564" on="1"/>
        <pt x="228" y="520" on="0"/>
        <pt x="221" y="463" on="1"/>
        <pt x="158" y="0" on="1"/>
        <pt x="35" y="0" on="1"/>
        <pt x="126" y="646" on="1"/>
        <pt x="132" y="690" on="0"/>
        <pt x="175" y="690" on="1"/>
        <pt x="265" y="690" on="1"/>
        <pt x="298" y="690" on="0"/>
        <pt x="312" y="650" on="1"/>
        <pt x="452" y="239" on="1"/>
        <pt x="477" y="163" on="0"/>
        <pt x="486" y="130" on="1"/>
        <pt x="500" y="130" on="1"/>
        <pt x="501" y="184" on="0"/>
        <pt x="509" y="238" on="1"/>
        <pt x="570" y="690" on="1"/>
      </contour>
    </TTGlyph>
    <TTGlyph name="Ncaron" xMin="35" yMin="0" xMax="692" yMax="922">
      <contour>
        <pt x="618" y="871" on="1"/>
        <pt x="466" y="740" on="1"/>
        <pt x="387" y="740" on="1"/>
        <pt x="265" y="879" on="1"/>
        <pt x="310" y="922" on="1"/>
        <pt x="427" y="825" on="1"/>
        <pt x="435" y="825" on="1"/>
        <pt x="585" y="921" on="1"/>
      </contour>
      <contour>
        <pt x="692" y="690" on="1"/>
        <pt x="600" y="44" on="1"/>
        <pt x="594" y="0" on="0"/>
        <pt x="552" y="0" on="1"/>
        <pt x="461" y="0" on="1"/>
        <pt x="428" y="0" on="0"/>
        <pt x="414" y="40" on="1"/>
        <pt x="269" y="463" on="1"/>
        <pt x="250" y="516" on="0"/>
        <pt x="241" y="564" on="1"/>
        <pt x="229" y="564" on="1"/>
        <pt x="228" y="520" on="0"/>
        <pt x="221" y="463" on="1"/>
        <pt x="158" y="0" on="1"/>
        <pt x="35" y="0" on="1"/>
        <pt x="126" y="646" on="1"/>
        <pt x="132" y="690" on="0"/>
        <pt x="175" y="690" on="1"/>
        <pt x="265" y="690" on="1"/>
        <pt x="298" y="690" on="0"/>
        <pt x="312" y="650" on="1"/>
        <pt x="452" y="239" on="1"/>
        <pt x="477" y="163" on="0"/>
        <pt x="486" y="130" on="1"/>
        <pt x="500" y="130" on="1"/>
        <pt x="501" y="184" on="0"/>
        <pt x="509" y="238" on="1"/>
        <pt x="570" y="690" on="1"/>
      </contour>
    </TTGlyph>
    <TTGlyph name="Ncommaaccent" xMin="35" yMin="-287" xMax="692" yMax="690">
      <contour>
        <pt x="692" y="690" on="1"/>
        <pt x="600" y="44" on="1"/>
        <pt x="594" y="0" on="0"/>
        <pt x="552" y="0" on="1"/>
        <pt x="461" y="0" on="1"/>
        <pt x="428" y="0" on="0"/>
        <pt x="414" y="40" on="1"/>
        <pt x="269" y="463" on="1"/>
        <pt x="250" y="516" on="0"/>
        <pt x="241" y="564" on="1"/>
        <pt x="229" y="564" on="1"/>
        <pt x="228" y="520" on="0"/>
        <pt x="221" y="463" on="1"/>
        <pt x="158" y="0" on="1"/>
        <pt x="35" y="0" on="1"/>
        <pt x="126" y="646" on="1"/>
        <pt x="132" y="690" on="0"/>
        <pt x="175" y="690" on="1"/>
        <pt x="265" y="690" on="1"/>
        <pt x="298" y="690" on="0"/>
        <pt x="312" y="650" on="1"/>
        <pt x="452" y="239" on="1"/>
        <pt x="477" y="163" on="0"/>
        <pt x="486" y="130" on="1"/>
        <pt x="500" y="130" on="1"/>
        <pt x="501" y="184" on="0"/>
        <pt x="509" y="238" on="1"/>
        <pt x="570" y="690" on="1"/>
      </contour>
      <contour>
        <pt x="319" y="-55" on="1"/>
        <pt x="348" y="-55" on="1"/>
        <pt x="390" y="-55" on="0"/>
        <pt x="383" y="-93" on="1"/>
        <pt x="375" y="-146" on="1"/>
        <pt x="367" y="-212" on="0"/>
        <pt x="315" y="-287" on="1"/>
        <pt x="264" y="-270" on="1"/>
        <pt x="290" y="-196" on="0"/>
        <pt x="296" y="-167" on="1"/>
        <pt x="279" y="-168" on="0"/>
        <pt x="262" y="-151" on="0"/>
        <pt x="264" y="-136" on="1"/>
        <pt x="271" y="-90" on="1"/>
        <pt x="276" y="-70" on="0"/>
        <pt x="295" y="-55" on="0"/>
      </contour>
    </TTGlyph>
    <TTGlyph name="Ntilde" xMin="35" yMin="0" xMax="692" yMax="890">
      <contour>
        <pt x="313" y="757" on="1"/>
        <pt x="260" y="762" on="1"/>
        <pt x="261" y="827" on="0"/>
        <pt x="313" y="892" on="0"/>
        <pt x="352" y="890" on="1"/>
        <pt x="386" y="887" on="0"/>
        <pt x="477" y="843" on="0"/>
        <pt x="499" y="840" on="1"/>
        <pt x="527" y="836" on="0"/>
        <pt x="552" y="859" on="0"/>
        <pt x="556" y="887" on="1"/>
        <pt x="609" y="882" on="1"/>
        <pt x="608" y="819" on="0"/>
        <pt x="558" y="754" on="0"/>
        <pt x="518" y="756" on="1"/>
        <pt x="479" y="759" on="0"/>
        <pt x="385" y="805" on="0"/>
        <pt x="369" y="808" on="1"/>
        <pt x="342" y="812" on="0"/>
        <pt x="317" y="786" on="0"/>
      </contour>
      <contour>
        <pt x="692" y="690" on="1"/>
        <pt x="600" y="44" on="1"/>
        <pt x="594" y="0" on="0"/>
        <pt x="552" y="0" on="1"/>
        <pt x="461" y="0" on="1"/>
        <pt x="428" y="0" on="0"/>
        <pt x="414" y="40" on="1"/>
        <pt x="269" y="463" on="1"/>
        <pt x="250" y="516" on="0"/>
        <pt x="241" y="564" on="1"/>
        <pt x="229" y="564" on="1"/>
        <pt x="228" y="520" on="0"/>
        <pt x="221" y="463" on="1"/>
        <pt x="158" y="0" on="1"/>
        <pt x="35" y="0" on="1"/>
        <pt x="126" y="646" on="1"/>
        <pt x="132" y="690" on="0"/>
        <pt x="175" y="690" on="1"/>
        <pt x="265" y="690" on="1"/>
        <pt x="298" y="690" on="0"/>
        <pt x="312" y="650" on="1"/>
        <pt x="452" y="239" on="1"/>
        <pt x="477" y="163" on="0"/>
        <pt x="486" y="130" on="1"/>
        <pt x="500" y="130" on="1"/>
        <pt x="501" y="184" on="0"/>
        <pt x="509" y="238" on="1"/>
        <pt x="570" y="690" on="1"/>
      </contour>
    </TTGlyph>
    <TTGlyph name="O" xMin="60" yMin="-13" xMax="627" yMax="703">
      <contour>
        <pt x="387" y="703" on="1"/>
        <pt x="538" y="703" on="0"/>
        <pt x="654" y="538" on="0"/>
        <pt x="627" y="340" on="1"/>
        <pt x="600" y="139" on="0"/>
        <pt x="456" y="-13" on="0"/>
        <pt x="150" y="-13" on="0"/>
        <pt x="33" y="149" on="0"/>
        <pt x="60" y="350" on="1"/>
        <pt x="87" y="547" on="0"/>
        <pt x="231" y="703" on="0"/>
      </contour>
      <contour>
        <pt x="382" y="596" on="1"/>
        <pt x="291" y="596" on="0"/>
        <pt x="213" y="491" on="0"/>
        <pt x="191" y="340" on="1"/>
        <pt x="171" y="198" on="0"/>
        <pt x="219" y="94" on="0"/>
        <pt x="306" y="94" on="1"/>
        <pt x="394" y="94" on="0"/>
        <pt x="475" y="202" on="0"/>
        <pt x="496" y="350" on="1"/>
        <pt x="518" y="495" on="0"/>
        <pt x="469" y="596" on="0"/>
      </contour>
    </TTGlyph>
    <TTGlyph name="OE" xMin="60" yMin="-13" xMax="944" yMax="703">
      <contour>
        <pt x="928" y="588" on="1"/>
        <pt x="662" y="588" on="1"/>
        <pt x="633" y="588" on="0"/>
        <pt x="605" y="561" on="0"/>
        <pt x="601" y="528" on="1"/>
        <pt x="585" y="407" on="1"/>
        <pt x="865" y="407" on="1"/>
        <pt x="853" y="314" on="1"/>
        <pt x="572" y="314" on="1"/>
        <pt x="551" y="158" on="1"/>
        <pt x="547" y="127" on="0"/>
        <pt x="567" y="102" on="0"/>
        <pt x="598" y="102" on="1"/>
        <pt x="859" y="102" on="1"/>
        <pt x="856" y="6" on="1"/>
        <pt x="770" y="-2" on="0"/>
        <pt x="572" y="-2" on="1"/>
        <pt x="507" y="-2" on="0"/>
        <pt x="471" y="22" on="1"/>
        <pt x="394" y="-13" on="0"/>
        <pt x="300" y="-13" on="1"/>
        <pt x="139" y="-13" on="0"/>
        <pt x="31" y="145" on="0"/>
        <pt x="60" y="350" on="1"/>
        <pt x="88" y="552" on="0"/>
        <pt x="230" y="703" on="0"/>
        <pt x="385" y="703" on="1"/>
        <pt x="480" y="703" on="0"/>
        <pt x="553" y="674" on="1"/>
        <pt x="589" y="692" on="0"/>
        <pt x="639" y="692" on="1"/>
        <pt x="854" y="692" on="0"/>
        <pt x="944" y="683" on="1"/>
      </contour>
      <contour>
        <pt x="423" y="150" on="1"/>
        <pt x="480" y="564" on="1"/>
        <pt x="481" y="568" on="0"/>
        <pt x="484" y="583" on="0"/>
        <pt x="485" y="586" on="1"/>
        <pt x="440" y="596" on="0"/>
        <pt x="385" y="596" on="1"/>
        <pt x="295" y="596" on="0"/>
        <pt x="211" y="487" on="0"/>
        <pt x="191" y="340" on="1"/>
        <pt x="171" y="198" on="0"/>
        <pt x="217" y="94" on="0"/>
        <pt x="301" y="94" on="1"/>
        <pt x="368" y="94" on="0"/>
        <pt x="421" y="109" on="1"/>
        <pt x="420" y="125" on="0"/>
      </contour>
    </TTGlyph>
    <TTGlyph name="Oacute" xMin="60" yMin="-13" xMax="627" yMax="926">
      <contour>
        <pt x="586" y="835" on="1"/>
        <pt x="361" y="724" on="1"/>
        <pt x="327" y="778" on="1"/>
        <pt x="534" y="926" on="1"/>
      </contour>
      <contour>
        <pt x="387" y="703" on="1"/>
        <pt x="538" y="703" on="0"/>
        <pt x="654" y="538" on="0"/>
        <pt x="627" y="340" on="1"/>
        <pt x="600" y="139" on="0"/>
        <pt x="456" y="-13" on="0"/>
        <pt x="150" y="-13" on="0"/>
        <pt x="33" y="149" on="0"/>
        <pt x="60" y="350" on="1"/>
        <pt x="87" y="547" on="0"/>
        <pt x="231" y="703" on="0"/>
      </contour>
      <contour>
        <pt x="382" y="596" on="1"/>
        <pt x="291" y="596" on="0"/>
        <pt x="213" y="491" on="0"/>
        <pt x="191" y="340" on="1"/>
        <pt x="171" y="198" on="0"/>
        <pt x="219" y="94" on="0"/>
        <pt x="306" y="94" on="1"/>
        <pt x="394" y="94" on="0"/>
        <pt x="475" y="202" on="0"/>
        <pt x="496" y="350" on="1"/>
        <pt x="518" y="495" on="0"/>
        <pt x="469" y="596" on="0"/>
      </contour>
    </TTGlyph>
    <TTGlyph name="Ocircumflex" xMin="60" yMin="-13" xMax="627" yMax="905">
      <contour>
        <pt x="585" y="767" on="1"/>
        <pt x="544" y="722" on="1"/>
        <pt x="420" y="822" on="1"/>
        <pt x="412" y="822" on="1"/>
        <pt x="260" y="724" on="1"/>
        <pt x="228" y="774" on="1"/>
        <pt x="375" y="905" on="1"/>
        <pt x="460" y="905" on="1"/>
      </contour>
      <contour>
        <pt x="387" y="703" on="1"/>
        <pt x="538" y="703" on="0"/>
        <pt x="654" y="538" on="0"/>
        <pt x="627" y="340" on="1"/>
        <pt x="600" y="139" on="0"/>
        <pt x="456" y="-13" on="0"/>
        <pt x="150" y="-13" on="0"/>
        <pt x="33" y="149" on="0"/>
        <pt x="60" y="350" on="1"/>
        <pt x="87" y="547" on="0"/>
        <pt x="231" y="703" on="0"/>
      </contour>
      <contour>
        <pt x="382" y="596" on="1"/>
        <pt x="291" y="596" on="0"/>
        <pt x="213" y="491" on="0"/>
        <pt x="191" y="340" on="1"/>
        <pt x="171" y="198" on="0"/>
        <pt x="219" y="94" on="0"/>
        <pt x="306" y="94" on="1"/>
        <pt x="394" y="94" on="0"/>
        <pt x="475" y="202" on="0"/>
        <pt x="496" y="350" on="1"/>
        <pt x="518" y="495" on="0"/>
        <pt x="469" y="596" on="0"/>
      </contour>
    </TTGlyph>
    <TTGlyph name="Odieresis" xMin="60" yMin="-13" xMax="627" yMax="879">
      <contour>
        <pt x="483" y="879" on="1"/>
        <pt x="521" y="879" on="1"/>
        <pt x="539" y="879" on="0"/>
        <pt x="551" y="865" on="0"/>
        <pt x="549" y="849" on="1"/>
        <pt x="540" y="792" on="1"/>
        <pt x="536" y="763" on="0"/>
        <pt x="508" y="763" on="1"/>
        <pt x="466" y="763" on="1"/>
        <pt x="436" y="763" on="0"/>
        <pt x="440" y="791" on="1"/>
        <pt x="449" y="849" on="1"/>
        <pt x="453" y="879" on="0"/>
      </contour>
      <contour>
        <pt x="314" y="879" on="1"/>
        <pt x="352" y="879" on="1"/>
        <pt x="370" y="879" on="0"/>
        <pt x="382" y="865" on="0"/>
        <pt x="380" y="849" on="1"/>
        <pt x="371" y="792" on="1"/>
        <pt x="367" y="763" on="0"/>
        <pt x="339" y="763" on="1"/>
        <pt x="297" y="763" on="1"/>
        <pt x="267" y="763" on="0"/>
        <pt x="270" y="791" on="1"/>
        <pt x="280" y="849" on="1"/>
        <pt x="284" y="879" on="0"/>
      </contour>
      <contour>
        <pt x="387" y="703" on="1"/>
        <pt x="538" y="703" on="0"/>
        <pt x="654" y="538" on="0"/>
        <pt x="627" y="340" on="1"/>
        <pt x="600" y="139" on="0"/>
        <pt x="456" y="-13" on="0"/>
        <pt x="150" y="-13" on="0"/>
        <pt x="33" y="149" on="0"/>
        <pt x="60" y="350" on="1"/>
        <pt x="87" y="547" on="0"/>
        <pt x="231" y="703" on="0"/>
      </contour>
      <contour>
        <pt x="382" y="596" on="1"/>
        <pt x="291" y="596" on="0"/>
        <pt x="213" y="491" on="0"/>
        <pt x="191" y="340" on="1"/>
        <pt x="171" y="198" on="0"/>
        <pt x="219" y="94" on="0"/>
        <pt x="306" y="94" on="1"/>
        <pt x="394" y="94" on="0"/>
        <pt x="475" y="202" on="0"/>
        <pt x="496" y="350" on="1"/>
        <pt x="518" y="495" on="0"/>
        <pt x="469" y="596" on="0"/>
      </contour>
    </TTGlyph>
    <TTGlyph name="Ograve" xMin="60" yMin="-13" xMax="627" yMax="925">
      <contour>
        <pt x="462" y="777" on="1"/>
        <pt x="421" y="724" on="1"/>
        <pt x="211" y="842" on="1"/>
        <pt x="271" y="925" on="1"/>
      </contour>
      <contour>
        <pt x="387" y="703" on="1"/>
        <pt x="538" y="703" on="0"/>
        <pt x="654" y="538" on="0"/>
        <pt x="627" y="340" on="1"/>
        <pt x="600" y="139" on="0"/>
        <pt x="456" y="-13" on="0"/>
        <pt x="150" y="-13" on="0"/>
        <pt x="33" y="149" on="0"/>
        <pt x="60" y="350" on="1"/>
        <pt x="87" y="547" on="0"/>
        <pt x="231" y="703" on="0"/>
      </contour>
      <contour>
        <pt x="382" y="596" on="1"/>
        <pt x="291" y="596" on="0"/>
        <pt x="213" y="491" on="0"/>
        <pt x="191" y="340" on="1"/>
        <pt x="171" y="198" on="0"/>
        <pt x="219" y="94" on="0"/>
        <pt x="306" y="94" on="1"/>
        <pt x="394" y="94" on="0"/>
        <pt x="475" y="202" on="0"/>
        <pt x="496" y="350" on="1"/>
        <pt x="518" y="495" on="0"/>
        <pt x="469" y="596" on="0"/>
      </contour>
    </TTGlyph>
    <TTGlyph name="Ohungarumlaut" xMin="60" yMin="-13" xMax="640" yMax="932">
      <contour>
        <pt x="462" y="881" on="1"/>
        <pt x="298" y="719" on="1"/>
        <pt x="248" y="756" on="1"/>
        <pt x="389" y="932" on="1"/>
      </contour>
      <contour>
        <pt x="640" y="881" on="1"/>
        <pt x="476" y="719" on="1"/>
        <pt x="428" y="756" on="1"/>
        <pt x="568" y="932" on="1"/>
      </contour>
      <contour>
        <pt x="387" y="703" on="1"/>
        <pt x="538" y="703" on="0"/>
        <pt x="654" y="538" on="0"/>
        <pt x="627" y="340" on="1"/>
        <pt x="600" y="139" on="0"/>
        <pt x="456" y="-13" on="0"/>
        <pt x="150" y="-13" on="0"/>
        <pt x="33" y="149" on="0"/>
        <pt x="60" y="350" on="1"/>
        <pt x="87" y="547" on="0"/>
        <pt x="231" y="703" on="0"/>
      </contour>
      <contour>
        <pt x="382" y="596" on="1"/>
        <pt x="291" y="596" on="0"/>
        <pt x="213" y="491" on="0"/>
        <pt x="191" y="340" on="1"/>
        <pt x="171" y="198" on="0"/>
        <pt x="219" y="94" on="0"/>
        <pt x="306" y="94" on="1"/>
        <pt x="394" y="94" on="0"/>
        <pt x="475" y="202" on="0"/>
        <pt x="496" y="350" on="1"/>
        <pt x="518" y="495" on="0"/>
        <pt x="469" y="596" on="0"/>
      </contour>
    </TTGlyph>
    <TTGlyph name="Omacron" xMin="60" yMin="-13" xMax="627" yMax="862">
      <contour>
        <pt x="548" y="778" on="1"/>
        <pt x="258" y="778" on="1"/>
        <pt x="270" y="862" on="1"/>
        <pt x="560" y="862" on="1"/>
      </contour>
      <contour>
        <pt x="387" y="703" on="1"/>
        <pt x="538" y="703" on="0"/>
        <pt x="654" y="538" on="0"/>
        <pt x="627" y="340" on="1"/>
        <pt x="600" y="139" on="0"/>
        <pt x="456" y="-13" on="0"/>
        <pt x="150" y="-13" on="0"/>
        <pt x="33" y="149" on="0"/>
        <pt x="60" y="350" on="1"/>
        <pt x="87" y="547" on="0"/>
        <pt x="231" y="703" on="0"/>
      </contour>
      <contour>
        <pt x="382" y="596" on="1"/>
        <pt x="291" y="596" on="0"/>
        <pt x="213" y="491" on="0"/>
        <pt x="191" y="340" on="1"/>
        <pt x="171" y="198" on="0"/>
        <pt x="219" y="94" on="0"/>
        <pt x="306" y="94" on="1"/>
        <pt x="394" y="94" on="0"/>
        <pt x="475" y="202" on="0"/>
        <pt x="496" y="350" on="1"/>
        <pt x="518" y="495" on="0"/>
        <pt x="469" y="596" on="0"/>
      </contour>
    </TTGlyph>
    <TTGlyph name="Omega" xMin="7" yMin="0" xMax="661" yMax="703">
      <contour>
        <pt x="21" y="107" on="1"/>
        <pt x="108" y="107" on="1"/>
        <pt x="144" y="107" on="0"/>
        <pt x="177" y="97" on="1"/>
        <pt x="116" y="159" on="0"/>
        <pt x="66" y="294" on="0"/>
        <pt x="80" y="387" on="1"/>
        <pt x="101" y="548" on="0"/>
        <pt x="257" y="703" on="0"/>
        <pt x="409" y="703" on="1"/>
        <pt x="708" y="703" on="0"/>
        <pt x="661" y="376" on="1"/>
        <pt x="646" y="274" on="0"/>
        <pt x="567" y="152" on="0"/>
        <pt x="482" y="96" on="1"/>
        <pt x="516" y="107" on="0"/>
        <pt x="550" y="107" on="1"/>
        <pt x="641" y="107" on="1"/>
        <pt x="627" y="0" on="1"/>
        <pt x="362" y="0" on="1"/>
        <pt x="374" y="101" on="1"/>
        <pt x="447" y="151" on="0"/>
        <pt x="515" y="269" on="0"/>
        <pt x="529" y="367" on="1"/>
        <pt x="546" y="494" on="0"/>
        <pt x="491" y="597" on="0"/>
        <pt x="404" y="597" on="1"/>
        <pt x="314" y="597" on="0"/>
        <pt x="225" y="490" on="0"/>
        <pt x="207" y="360" on="1"/>
        <pt x="193" y="261" on="0"/>
        <pt x="228" y="152" on="0"/>
        <pt x="284" y="99" on="1"/>
        <pt x="271" y="0" on="1"/>
        <pt x="7" y="0" on="1"/>
      </contour>
    </TTGlyph>
    <TTGlyph name="Oslash" xMin="60" yMin="-64" xMax="627" yMax="757">
      <contour>
        <pt x="611" y="728" on="1"/>
        <pt x="566" y="654" on="1"/>
        <pt x="660" y="576" on="0"/>
        <pt x="627" y="340" on="1"/>
        <pt x="600" y="139" on="0"/>
        <pt x="456" y="-13" on="0"/>
        <pt x="303" y="-13" on="1"/>
        <pt x="226" y="-13" on="0"/>
        <pt x="173" y="6" on="1"/>
        <pt x="130" y="-64" on="1"/>
        <pt x="80" y="-34" on="1"/>
        <pt x="122" y="35" on="1"/>
        <pt x="28" y="112" on="0"/>
        <pt x="60" y="350" on="1"/>
        <pt x="87" y="547" on="0"/>
        <pt x="231" y="703" on="0"/>
        <pt x="387" y="703" on="1"/>
        <pt x="464" y="703" on="0"/>
        <pt x="515" y="684" on="1"/>
        <pt x="560" y="757" on="1"/>
      </contour>
      <contour>
        <pt x="193" y="151" on="1"/>
        <pt x="455" y="584" on="1"/>
        <pt x="427" y="596" on="0"/>
        <pt x="382" y="596" on="1"/>
        <pt x="291" y="596" on="0"/>
        <pt x="213" y="491" on="0"/>
        <pt x="191" y="340" on="1"/>
        <pt x="171" y="203" on="0"/>
      </contour>
      <contour>
        <pt x="496" y="539" on="1"/>
        <pt x="234" y="107" on="1"/>
        <pt x="260" y="94" on="0"/>
        <pt x="306" y="94" on="1"/>
        <pt x="394" y="94" on="0"/>
        <pt x="475" y="202" on="0"/>
        <pt x="496" y="350" on="1"/>
        <pt x="517" y="487" on="0"/>
      </contour>
    </TTGlyph>
    <TTGlyph name="Otilde" xMin="60" yMin="-13" xMax="627" yMax="890">
      <contour>
        <pt x="288" y="757" on="1"/>
        <pt x="235" y="762" on="1"/>
        <pt x="236" y="827" on="0"/>
        <pt x="288" y="892" on="0"/>
        <pt x="327" y="890" on="1"/>
        <pt x="361" y="887" on="0"/>
        <pt x="452" y="843" on="0"/>
        <pt x="474" y="840" on="1"/>
        <pt x="501" y="836" on="0"/>
        <pt x="526" y="859" on="0"/>
        <pt x="530" y="887" on="1"/>
        <pt x="583" y="882" on="1"/>
        <pt x="583" y="820" on="0"/>
        <pt x="533" y="754" on="0"/>
        <pt x="493" y="756" on="1"/>
        <pt x="454" y="759" on="0"/>
        <pt x="359" y="805" on="0"/>
        <pt x="343" y="808" on="1"/>
        <pt x="316" y="812" on="0"/>
        <pt x="292" y="786" on="0"/>
      </contour>
      <contour>
        <pt x="387" y="703" on="1"/>
        <pt x="538" y="703" on="0"/>
        <pt x="654" y="538" on="0"/>
        <pt x="627" y="340" on="1"/>
        <pt x="600" y="139" on="0"/>
        <pt x="456" y="-13" on="0"/>
        <pt x="150" y="-13" on="0"/>
        <pt x="33" y="149" on="0"/>
        <pt x="60" y="350" on="1"/>
        <pt x="87" y="547" on="0"/>
        <pt x="231" y="703" on="0"/>
      </contour>
      <contour>
        <pt x="382" y="596" on="1"/>
        <pt x="291" y="596" on="0"/>
        <pt x="213" y="491" on="0"/>
        <pt x="191" y="340" on="1"/>
        <pt x="171" y="198" on="0"/>
        <pt x="219" y="94" on="0"/>
        <pt x="306" y="94" on="1"/>
        <pt x="394" y="94" on="0"/>
        <pt x="475" y="202" on="0"/>
        <pt x="496" y="350" on="1"/>
        <pt x="518" y="495" on="0"/>
        <pt x="469" y="596" on="0"/>
      </contour>
    </TTGlyph>
    <TTGlyph name="P" xMin="35" yMin="0" xMax="587" yMax="699">
      <contour>
        <pt x="35" y="0" on="1"/>
        <pt x="132" y="690" on="1"/>
        <pt x="221" y="699" on="0"/>
        <pt x="376" y="699" on="1"/>
        <pt x="506" y="699" on="0"/>
        <pt x="604" y="596" on="0"/>
        <pt x="587" y="473" on="1"/>
        <pt x="568" y="340" on="0"/>
        <pt x="462" y="255" on="0"/>
        <pt x="333" y="255" on="1"/>
        <pt x="260" y="255" on="0"/>
        <pt x="197" y="264" on="1"/>
        <pt x="160" y="0" on="1"/>
      </contour>
      <contour>
        <pt x="210" y="357" on="1"/>
        <pt x="327" y="357" on="1"/>
        <pt x="398" y="357" on="0"/>
        <pt x="452" y="407" on="0"/>
        <pt x="463" y="482" on="1"/>
        <pt x="473" y="550" on="0"/>
        <pt x="433" y="596" on="0"/>
        <pt x="372" y="596" on="1"/>
        <pt x="244" y="596" on="1"/>
      </contour>
    </TTGlyph>
    <TTGlyph name="Q" xMin="60" yMin="-234" xMax="627" yMax="703">
      <contour>
        <pt x="387" y="703" on="1"/>
        <pt x="538" y="703" on="0"/>
        <pt x="654" y="538" on="0"/>
        <pt x="627" y="340" on="1"/>
        <pt x="600" y="139" on="0"/>
        <pt x="456" y="-13" on="0"/>
        <pt x="150" y="-13" on="0"/>
        <pt x="33" y="149" on="0"/>
        <pt x="60" y="350" on="1"/>
        <pt x="87" y="547" on="0"/>
        <pt x="231" y="703" on="0"/>
      </contour>
      <contour>
        <pt x="382" y="596" on="1"/>
        <pt x="291" y="596" on="0"/>
        <pt x="213" y="491" on="0"/>
        <pt x="191" y="340" on="1"/>
        <pt x="171" y="198" on="0"/>
        <pt x="219" y="94" on="0"/>
        <pt x="306" y="94" on="1"/>
        <pt x="394" y="94" on="0"/>
        <pt x="475" y="202" on="0"/>
        <pt x="496" y="350" on="1"/>
        <pt x="518" y="495" on="0"/>
        <pt x="469" y="596" on="0"/>
      </contour>
      <contour>
        <pt x="196" y="-110" on="1"/>
        <pt x="240" y="-39" on="1"/>
        <pt x="359" y="-89" on="0"/>
        <pt x="520" y="-114" on="1"/>
        <pt x="471" y="-234" on="1"/>
        <pt x="319" y="-193" on="0"/>
      </contour>
    </TTGlyph>
    <TTGlyph name="R" xMin="35" yMin="0" xMax="594" yMax="699">
      <contour>
        <pt x="35" y="0" on="1"/>
        <pt x="132" y="690" on="1"/>
        <pt x="221" y="699" on="0"/>
        <pt x="377" y="699" on="1"/>
        <pt x="496" y="699" on="0"/>
        <pt x="609" y="605" on="0"/>
        <pt x="594" y="492" on="1"/>
        <pt x="584" y="417" on="0"/>
        <pt x="512" y="332" on="0"/>
        <pt x="439" y="323" on="1"/>
        <pt x="438" y="317" on="1"/>
        <pt x="502" y="301" on="0"/>
        <pt x="517" y="214" on="1"/>
        <pt x="558" y="0" on="1"/>
        <pt x="430" y="0" on="1"/>
        <pt x="393" y="216" on="1"/>
        <pt x="387" y="250" on="0"/>
        <pt x="357" y="276" on="0"/>
        <pt x="326" y="276" on="1"/>
        <pt x="197" y="277" on="1"/>
        <pt x="158" y="0" on="1"/>
      </contour>
      <contour>
        <pt x="211" y="379" on="1"/>
        <pt x="333" y="379" on="1"/>
        <pt x="400" y="380" on="0"/>
        <pt x="458" y="429" on="0"/>
        <pt x="468" y="494" on="1"/>
        <pt x="476" y="553" on="0"/>
        <pt x="436" y="596" on="0"/>
        <pt x="374" y="596" on="1"/>
        <pt x="242" y="596" on="1"/>
      </contour>
    </TTGlyph>
    <TTGlyph name="Racute" xMin="35" yMin="0" xMax="594" yMax="926">
      <contour>
        <pt x="331" y="724" on="1"/>
        <pt x="298" y="778" on="1"/>
        <pt x="505" y="926" on="1"/>
        <pt x="557" y="835" on="1"/>
      </contour>
      <contour>
        <pt x="35" y="0" on="1"/>
        <pt x="132" y="690" on="1"/>
        <pt x="221" y="699" on="0"/>
        <pt x="377" y="699" on="1"/>
        <pt x="496" y="699" on="0"/>
        <pt x="609" y="605" on="0"/>
        <pt x="594" y="492" on="1"/>
        <pt x="584" y="417" on="0"/>
        <pt x="512" y="332" on="0"/>
        <pt x="439" y="323" on="1"/>
        <pt x="438" y="317" on="1"/>
        <pt x="502" y="301" on="0"/>
        <pt x="517" y="214" on="1"/>
        <pt x="558" y="0" on="1"/>
        <pt x="430" y="0" on="1"/>
        <pt x="393" y="216" on="1"/>
        <pt x="387" y="250" on="0"/>
        <pt x="357" y="276" on="0"/>
        <pt x="326" y="276" on="1"/>
        <pt x="197" y="277" on="1"/>
        <pt x="158" y="0" on="1"/>
      </contour>
      <contour>
        <pt x="211" y="379" on="1"/>
        <pt x="333" y="379" on="1"/>
        <pt x="400" y="380" on="0"/>
        <pt x="458" y="429" on="0"/>
        <pt x="468" y="494" on="1"/>
        <pt x="476" y="553" on="0"/>
        <pt x="436" y="596" on="0"/>
        <pt x="374" y="596" on="1"/>
        <pt x="242" y="596" on="1"/>
      </contour>
    </TTGlyph>
    <TTGlyph name="Rcaron" xMin="35" yMin="0" xMax="594" yMax="922">
      <contour>
        <pt x="333" y="740" on="1"/>
        <pt x="211" y="879" on="1"/>
        <pt x="256" y="922" on="1"/>
        <pt x="372" y="825" on="1"/>
        <pt x="380" y="825" on="1"/>
        <pt x="531" y="921" on="1"/>
        <pt x="564" y="871" on="1"/>
        <pt x="411" y="740" on="1"/>
      </contour>
      <contour>
        <pt x="35" y="0" on="1"/>
        <pt x="132" y="690" on="1"/>
        <pt x="221" y="699" on="0"/>
        <pt x="377" y="699" on="1"/>
        <pt x="496" y="699" on="0"/>
        <pt x="609" y="605" on="0"/>
        <pt x="594" y="492" on="1"/>
        <pt x="584" y="417" on="0"/>
        <pt x="512" y="332" on="0"/>
        <pt x="439" y="323" on="1"/>
        <pt x="438" y="317" on="1"/>
        <pt x="502" y="301" on="0"/>
        <pt x="517" y="214" on="1"/>
        <pt x="558" y="0" on="1"/>
        <pt x="430" y="0" on="1"/>
        <pt x="393" y="216" on="1"/>
        <pt x="387" y="250" on="0"/>
        <pt x="357" y="276" on="0"/>
        <pt x="326" y="276" on="1"/>
        <pt x="197" y="277" on="1"/>
        <pt x="158" y="0" on="1"/>
      </contour>
      <contour>
        <pt x="211" y="379" on="1"/>
        <pt x="333" y="379" on="1"/>
        <pt x="400" y="380" on="0"/>
        <pt x="458" y="429" on="0"/>
        <pt x="468" y="494" on="1"/>
        <pt x="476" y="553" on="0"/>
        <pt x="436" y="596" on="0"/>
        <pt x="374" y="596" on="1"/>
        <pt x="242" y="596" on="1"/>
      </contour>
    </TTGlyph>
    <TTGlyph name="Rcommaaccent" xMin="35" yMin="-287" xMax="594" yMax="699">
      <contour>
        <pt x="35" y="0" on="1"/>
        <pt x="132" y="690" on="1"/>
        <pt x="221" y="699" on="0"/>
        <pt x="377" y="699" on="1"/>
        <pt x="496" y="699" on="0"/>
        <pt x="609" y="605" on="0"/>
        <pt x="594" y="492" on="1"/>
        <pt x="584" y="417" on="0"/>
        <pt x="512" y="332" on="0"/>
        <pt x="439" y="323" on="1"/>
        <pt x="438" y="317" on="1"/>
        <pt x="502" y="301" on="0"/>
        <pt x="517" y="214" on="1"/>
        <pt x="558" y="0" on="1"/>
        <pt x="430" y="0" on="1"/>
        <pt x="393" y="216" on="1"/>
        <pt x="387" y="250" on="0"/>
        <pt x="357" y="276" on="0"/>
        <pt x="326" y="276" on="1"/>
        <pt x="197" y="277" on="1"/>
        <pt x="158" y="0" on="1"/>
      </contour>
      <contour>
        <pt x="211" y="379" on="1"/>
        <pt x="333" y="379" on="1"/>
        <pt x="400" y="380" on="0"/>
        <pt x="458" y="429" on="0"/>
        <pt x="468" y="494" on="1"/>
        <pt x="476" y="553" on="0"/>
        <pt x="436" y="596" on="0"/>
        <pt x="374" y="596" on="1"/>
        <pt x="242" y="596" on="1"/>
      </contour>
      <contour>
        <pt x="297" y="-55" on="1"/>
        <pt x="325" y="-55" on="1"/>
        <pt x="347" y="-55" on="0"/>
        <pt x="364" y="-73" on="0"/>
        <pt x="360" y="-93" on="1"/>
        <pt x="353" y="-146" on="1"/>
        <pt x="343" y="-213" on="0"/>
        <pt x="292" y="-287" on="1"/>
        <pt x="241" y="-270" on="1"/>
        <pt x="264" y="-209" on="0"/>
        <pt x="274" y="-167" on="1"/>
        <pt x="256" y="-168" on="0"/>
        <pt x="240" y="-151" on="0"/>
        <pt x="242" y="-136" on="1"/>
        <pt x="249" y="-90" on="1"/>
        <pt x="254" y="-70" on="0"/>
        <pt x="273" y="-55" on="0"/>
      </contour>
    </TTGlyph>
    <TTGlyph name="S" xMin="20" yMin="-12" xMax="551" yMax="702">
      <contour>
        <pt x="326" y="274" on="1"/>
        <pt x="194" y="322" on="1"/>
        <pt x="122" y="349" on="0"/>
        <pt x="70" y="446" on="0"/>
        <pt x="80" y="521" on="1"/>
        <pt x="96" y="631" on="0"/>
        <pt x="212" y="702" on="0"/>
        <pt x="335" y="702" on="1"/>
        <pt x="463" y="702" on="0"/>
        <pt x="551" y="678" on="1"/>
        <pt x="538" y="590" on="1"/>
        <pt x="420" y="594" on="0"/>
        <pt x="336" y="594" on="1"/>
        <pt x="304" y="594" on="0"/>
        <pt x="277" y="593" on="0"/>
        <pt x="239" y="585" on="0"/>
        <pt x="223" y="567" on="0"/>
        <pt x="209" y="536" on="0"/>
        <pt x="205" y="511" on="1"/>
        <pt x="199" y="468" on="0"/>
        <pt x="222" y="438" on="0"/>
        <pt x="265" y="423" on="1"/>
        <pt x="393" y="377" on="1"/>
        <pt x="470" y="349" on="0"/>
        <pt x="519" y="257" on="0"/>
        <pt x="508" y="177" on="1"/>
        <pt x="493" y="64" on="0"/>
        <pt x="380" y="-12" on="0"/>
        <pt x="244" y="-12" on="1"/>
        <pt x="130" y="-12" on="0"/>
        <pt x="20" y="11" on="1"/>
        <pt x="34" y="102" on="1"/>
        <pt x="209" y="98" on="0"/>
        <pt x="239" y="98" on="1"/>
        <pt x="320" y="98" on="0"/>
        <pt x="376" y="130" on="0"/>
        <pt x="383" y="186" on="1"/>
        <pt x="389" y="229" on="0"/>
        <pt x="366" y="260" on="0"/>
      </contour>
    </TTGlyph>
    <TTGlyph name="Sacute" xMin="20" yMin="-12" xMax="551" yMax="926">
      <contour>
        <pt x="531" y="835" on="1"/>
        <pt x="306" y="724" on="1"/>
        <pt x="273" y="778" on="1"/>
        <pt x="479" y="926" on="1"/>
      </contour>
      <contour>
        <pt x="326" y="274" on="1"/>
        <pt x="194" y="322" on="1"/>
        <pt x="122" y="349" on="0"/>
        <pt x="70" y="446" on="0"/>
        <pt x="80" y="521" on="1"/>
        <pt x="96" y="631" on="0"/>
        <pt x="212" y="702" on="0"/>
        <pt x="335" y="702" on="1"/>
        <pt x="463" y="702" on="0"/>
        <pt x="551" y="678" on="1"/>
        <pt x="538" y="590" on="1"/>
        <pt x="420" y="594" on="0"/>
        <pt x="336" y="594" on="1"/>
        <pt x="304" y="594" on="0"/>
        <pt x="277" y="593" on="0"/>
        <pt x="239" y="585" on="0"/>
        <pt x="223" y="567" on="0"/>
        <pt x="209" y="536" on="0"/>
        <pt x="205" y="511" on="1"/>
        <pt x="199" y="468" on="0"/>
        <pt x="222" y="438" on="0"/>
        <pt x="265" y="423" on="1"/>
        <pt x="393" y="377" on="1"/>
        <pt x="470" y="349" on="0"/>
        <pt x="519" y="257" on="0"/>
        <pt x="508" y="177" on="1"/>
        <pt x="493" y="64" on="0"/>
        <pt x="380" y="-12" on="0"/>
        <pt x="244" y="-12" on="1"/>
        <pt x="130" y="-12" on="0"/>
        <pt x="20" y="11" on="1"/>
        <pt x="34" y="102" on="1"/>
        <pt x="209" y="98" on="0"/>
        <pt x="239" y="98" on="1"/>
        <pt x="320" y="98" on="0"/>
        <pt x="376" y="130" on="0"/>
        <pt x="383" y="186" on="1"/>
        <pt x="389" y="229" on="0"/>
        <pt x="366" y="260" on="0"/>
      </contour>
    </TTGlyph>
    <TTGlyph name="Scaron" xMin="20" yMin="-12" xMax="551" yMax="922">
      <contour>
        <pt x="538" y="871" on="1"/>
        <pt x="386" y="740" on="1"/>
        <pt x="308" y="740" on="1"/>
        <pt x="185" y="879" on="1"/>
        <pt x="230" y="922" on="1"/>
        <pt x="347" y="825" on="1"/>
        <pt x="355" y="825" on="1"/>
        <pt x="505" y="921" on="1"/>
      </contour>
      <contour>
        <pt x="326" y="274" on="1"/>
        <pt x="194" y="322" on="1"/>
        <pt x="122" y="349" on="0"/>
        <pt x="70" y="446" on="0"/>
        <pt x="80" y="521" on="1"/>
        <pt x="96" y="631" on="0"/>
        <pt x="212" y="702" on="0"/>
        <pt x="335" y="702" on="1"/>
        <pt x="463" y="702" on="0"/>
        <pt x="551" y="678" on="1"/>
        <pt x="538" y="590" on="1"/>
        <pt x="420" y="594" on="0"/>
        <pt x="336" y="594" on="1"/>
        <pt x="304" y="594" on="0"/>
        <pt x="277" y="593" on="0"/>
        <pt x="239" y="585" on="0"/>
        <pt x="223" y="567" on="0"/>
        <pt x="209" y="536" on="0"/>
        <pt x="205" y="511" on="1"/>
        <pt x="199" y="468" on="0"/>
        <pt x="222" y="438" on="0"/>
        <pt x="265" y="423" on="1"/>
        <pt x="393" y="377" on="1"/>
        <pt x="470" y="349" on="0"/>
        <pt x="519" y="257" on="0"/>
        <pt x="508" y="177" on="1"/>
        <pt x="493" y="64" on="0"/>
        <pt x="380" y="-12" on="0"/>
        <pt x="244" y="-12" on="1"/>
        <pt x="130" y="-12" on="0"/>
        <pt x="20" y="11" on="1"/>
        <pt x="34" y="102" on="1"/>
        <pt x="209" y="98" on="0"/>
        <pt x="239" y="98" on="1"/>
        <pt x="320" y="98" on="0"/>
        <pt x="376" y="130" on="0"/>
        <pt x="383" y="186" on="1"/>
        <pt x="389" y="229" on="0"/>
        <pt x="366" y="260" on="0"/>
      </contour>
    </TTGlyph>
    <TTGlyph name="Scedilla" xMin="20" yMin="-249" xMax="551" yMax="702">
      <contour>
        <pt x="326" y="274" on="1"/>
        <pt x="194" y="322" on="1"/>
        <pt x="122" y="349" on="0"/>
        <pt x="70" y="446" on="0"/>
        <pt x="80" y="521" on="1"/>
        <pt x="96" y="631" on="0"/>
        <pt x="212" y="702" on="0"/>
        <pt x="335" y="702" on="1"/>
        <pt x="463" y="702" on="0"/>
        <pt x="551" y="678" on="1"/>
        <pt x="538" y="590" on="1"/>
        <pt x="420" y="594" on="0"/>
        <pt x="336" y="594" on="1"/>
        <pt x="304" y="594" on="0"/>
        <pt x="277" y="593" on="0"/>
        <pt x="239" y="585" on="0"/>
        <pt x="223" y="567" on="0"/>
        <pt x="209" y="536" on="0"/>
        <pt x="205" y="511" on="1"/>
        <pt x="199" y="468" on="0"/>
        <pt x="222" y="438" on="0"/>
        <pt x="265" y="423" on="1"/>
        <pt x="393" y="377" on="1"/>
        <pt x="470" y="349" on="0"/>
        <pt x="519" y="257" on="0"/>
        <pt x="508" y="177" on="1"/>
        <pt x="493" y="64" on="0"/>
        <pt x="380" y="-12" on="0"/>
        <pt x="244" y="-12" on="1"/>
        <pt x="130" y="-12" on="0"/>
        <pt x="20" y="11" on="1"/>
        <pt x="34" y="102" on="1"/>
        <pt x="209" y="98" on="0"/>
        <pt x="239" y="98" on="1"/>
        <pt x="320" y="98" on="0"/>
        <pt x="376" y="130" on="0"/>
        <pt x="383" y="186" on="1"/>
        <pt x="389" y="229" on="0"/>
        <pt x="366" y="260" on="0"/>
      </contour>
      <contour>
        <pt x="170" y="-108" on="1"/>
        <pt x="184" y="-55" on="1"/>
        <pt x="256" y="-47" on="0"/>
        <pt x="317" y="-75" on="0"/>
        <pt x="308" y="-124" on="1"/>
        <pt x="297" y="-192" on="0"/>
        <pt x="185" y="-260" on="0"/>
        <pt x="108" y="-249" on="1"/>
        <pt x="128" y="-191" on="1"/>
        <pt x="164" y="-191" on="0"/>
        <pt x="219" y="-156" on="0"/>
        <pt x="225" y="-127" on="1"/>
        <pt x="227" y="-115" on="0"/>
        <pt x="208" y="-108" on="0"/>
      </contour>
    </TTGlyph>
    <TTGlyph name="Scommaaccent" xMin="20" yMin="-287" xMax="551" yMax="702">
      <contour>
        <pt x="326" y="274" on="1"/>
        <pt x="194" y="322" on="1"/>
        <pt x="122" y="349" on="0"/>
        <pt x="70" y="446" on="0"/>
        <pt x="80" y="521" on="1"/>
        <pt x="96" y="631" on="0"/>
        <pt x="212" y="702" on="0"/>
        <pt x="335" y="702" on="1"/>
        <pt x="463" y="702" on="0"/>
        <pt x="551" y="678" on="1"/>
        <pt x="538" y="590" on="1"/>
        <pt x="420" y="594" on="0"/>
        <pt x="336" y="594" on="1"/>
        <pt x="304" y="594" on="0"/>
        <pt x="277" y="593" on="0"/>
        <pt x="239" y="585" on="0"/>
        <pt x="223" y="567" on="0"/>
        <pt x="209" y="536" on="0"/>
        <pt x="205" y="511" on="1"/>
        <pt x="199" y="468" on="0"/>
        <pt x="222" y="438" on="0"/>
        <pt x="265" y="423" on="1"/>
        <pt x="393" y="377" on="1"/>
        <pt x="470" y="349" on="0"/>
        <pt x="519" y="257" on="0"/>
        <pt x="508" y="177" on="1"/>
        <pt x="493" y="64" on="0"/>
        <pt x="380" y="-12" on="0"/>
        <pt x="244" y="-12" on="1"/>
        <pt x="130" y="-12" on="0"/>
        <pt x="20" y="11" on="1"/>
        <pt x="34" y="102" on="1"/>
        <pt x="209" y="98" on="0"/>
        <pt x="239" y="98" on="1"/>
        <pt x="320" y="98" on="0"/>
        <pt x="376" y="130" on="0"/>
        <pt x="383" y="186" on="1"/>
        <pt x="389" y="229" on="0"/>
        <pt x="366" y="260" on="0"/>
      </contour>
      <contour>
        <pt x="246" y="-55" on="1"/>
        <pt x="275" y="-55" on="1"/>
        <pt x="297" y="-55" on="0"/>
        <pt x="313" y="-73" on="0"/>
        <pt x="309" y="-93" on="1"/>
        <pt x="302" y="-146" on="1"/>
        <pt x="292" y="-212" on="0"/>
        <pt x="242" y="-287" on="1"/>
        <pt x="190" y="-270" on="1"/>
        <pt x="213" y="-209" on="0"/>
        <pt x="223" y="-167" on="1"/>
        <pt x="206" y="-168" on="0"/>
        <pt x="189" y="-151" on="0"/>
        <pt x="191" y="-136" on="1"/>
        <pt x="198" y="-90" on="1"/>
        <pt x="203" y="-70" on="0"/>
        <pt x="222" y="-55" on="0"/>
      </contour>
    </TTGlyph>
    <TTGlyph name="T" xMin="59" yMin="0" xMax="622" yMax="690">
      <contour>
        <pt x="607" y="583" on="1"/>
        <pt x="395" y="583" on="1"/>
        <pt x="313" y="0" on="1"/>
        <pt x="188" y="0" on="1"/>
        <pt x="270" y="583" on="1"/>
        <pt x="59" y="583" on="1"/>
        <pt x="74" y="690" on="1"/>
        <pt x="622" y="690" on="1"/>
      </contour>
    </TTGlyph>
    <TTGlyph name="Tbar" xMin="59" yMin="0" xMax="622" yMax="690">
      <contour>
        <pt x="395" y="583" on="1"/>
        <pt x="371" y="412" on="1"/>
        <pt x="511" y="412" on="1"/>
        <pt x="502" y="348" on="1"/>
        <pt x="362" y="348" on="1"/>
        <pt x="313" y="0" on="1"/>
        <pt x="188" y="0" on="1"/>
        <pt x="236" y="348" on="1"/>
        <pt x="110" y="348" on="1"/>
        <pt x="119" y="412" on="1"/>
        <pt x="246" y="412" on="1"/>
        <pt x="270" y="583" on="1"/>
        <pt x="59" y="583" on="1"/>
        <pt x="74" y="690" on="1"/>
        <pt x="622" y="690" on="1"/>
        <pt x="607" y="583" on="1"/>
      </contour>
    </TTGlyph>
    <TTGlyph name="Tcaron" xMin="59" yMin="0" xMax="622" yMax="922">
      <contour>
        <pt x="318" y="740" on="1"/>
        <pt x="195" y="879" on="1"/>
        <pt x="240" y="922" on="1"/>
        <pt x="357" y="825" on="1"/>
        <pt x="365" y="825" on="1"/>
        <pt x="515" y="921" on="1"/>
        <pt x="548" y="871" on="1"/>
        <pt x="396" y="740" on="1"/>
      </contour>
      <contour>
        <pt x="607" y="583" on="1"/>
        <pt x="395" y="583" on="1"/>
        <pt x="313" y="0" on="1"/>
        <pt x="188" y="0" on="1"/>
        <pt x="270" y="583" on="1"/>
        <pt x="59" y="583" on="1"/>
        <pt x="74" y="690" on="1"/>
        <pt x="622" y="690" on="1"/>
      </contour>
    </TTGlyph>
    <TTGlyph name="Tcedilla" xMin="59" yMin="-236" xMax="622" yMax="690">
      <contour>
        <pt x="607" y="583" on="1"/>
        <pt x="395" y="583" on="1"/>
        <pt x="313" y="0" on="1"/>
        <pt x="188" y="0" on="1"/>
        <pt x="270" y="583" on="1"/>
        <pt x="59" y="583" on="1"/>
        <pt x="74" y="690" on="1"/>
        <pt x="622" y="690" on="1"/>
      </contour>
      <contour>
        <pt x="173" y="-94" on="1"/>
        <pt x="187" y="-41" on="1"/>
        <pt x="260" y="-34" on="0"/>
        <pt x="320" y="-62" on="0"/>
        <pt x="311" y="-111" on="1"/>
        <pt x="299" y="-179" on="0"/>
        <pt x="188" y="-246" on="0"/>
        <pt x="111" y="-236" on="1"/>
        <pt x="131" y="-177" on="1"/>
        <pt x="167" y="-178" on="0"/>
        <pt x="222" y="-143" on="0"/>
        <pt x="228" y="-114" on="1"/>
        <pt x="230" y="-101" on="0"/>
        <pt x="211" y="-94" on="0"/>
      </contour>
    </TTGlyph>
    <TTGlyph name="Thorn" xMin="35" yMin="0" xMax="569" yMax="690">
      <contour>
        <pt x="258" y="690" on="1"/>
        <pt x="241" y="572" on="1"/>
        <pt x="273" y="573" on="0"/>
        <pt x="358" y="573" on="1"/>
        <pt x="485" y="573" on="0"/>
        <pt x="587" y="472" on="0"/>
        <pt x="569" y="343" on="1"/>
        <pt x="551" y="215" on="0"/>
        <pt x="443" y="123" on="0"/>
        <pt x="324" y="123" on="1"/>
        <pt x="255" y="123" on="0"/>
        <pt x="179" y="132" on="1"/>
        <pt x="161" y="0" on="1"/>
        <pt x="35" y="0" on="1"/>
        <pt x="132" y="690" on="1"/>
      </contour>
      <contour>
        <pt x="192" y="226" on="1"/>
        <pt x="309" y="226" on="1"/>
        <pt x="377" y="227" on="0"/>
        <pt x="433" y="277" on="0"/>
        <pt x="444" y="352" on="1"/>
        <pt x="454" y="424" on="0"/>
        <pt x="418" y="470" on="0"/>
        <pt x="354" y="470" on="1"/>
        <pt x="227" y="469" on="1"/>
      </contour>
    </TTGlyph>
    <TTGlyph name="U" xMin="68" yMin="-13" xMax="653" yMax="690">
      <contour>
        <pt x="653" y="690" on="1"/>
        <pt x="593" y="268" on="1"/>
        <pt x="571" y="114" on="0"/>
        <pt x="439" y="-13" on="0"/>
        <pt x="303" y="-13" on="1"/>
        <pt x="163" y="-13" on="0"/>
        <pt x="47" y="121" on="0"/>
        <pt x="68" y="273" on="1"/>
        <pt x="126" y="690" on="1"/>
        <pt x="252" y="690" on="1"/>
        <pt x="193" y="268" on="1"/>
        <pt x="179" y="168" on="0"/>
        <pt x="225" y="94" on="0"/>
        <pt x="301" y="94" on="1"/>
        <pt x="380" y="94" on="0"/>
        <pt x="454" y="173" on="0"/>
        <pt x="469" y="273" on="1"/>
        <pt x="527" y="690" on="1"/>
      </contour>
    </TTGlyph>
    <TTGlyph name="Uacute" xMin="68" yMin="-13" xMax="653" yMax="926">
      <contour>
        <pt x="584" y="835" on="1"/>
        <pt x="359" y="724" on="1"/>
        <pt x="326" y="778" on="1"/>
        <pt x="532" y="926" on="1"/>
      </contour>
      <contour>
        <pt x="653" y="690" on="1"/>
        <pt x="593" y="268" on="1"/>
        <pt x="571" y="114" on="0"/>
        <pt x="439" y="-13" on="0"/>
        <pt x="303" y="-13" on="1"/>
        <pt x="163" y="-13" on="0"/>
        <pt x="47" y="121" on="0"/>
        <pt x="68" y="273" on="1"/>
        <pt x="126" y="690" on="1"/>
        <pt x="252" y="690" on="1"/>
        <pt x="193" y="268" on="1"/>
        <pt x="179" y="168" on="0"/>
        <pt x="225" y="94" on="0"/>
        <pt x="301" y="94" on="1"/>
        <pt x="380" y="94" on="0"/>
        <pt x="454" y="173" on="0"/>
        <pt x="469" y="273" on="1"/>
        <pt x="527" y="690" on="1"/>
      </contour>
    </TTGlyph>
    <TTGlyph name="Ucircumflex" xMin="68" yMin="-13" xMax="653" yMax="905">
      <contour>
        <pt x="584" y="767" on="1"/>
        <pt x="543" y="722" on="1"/>
        <pt x="418" y="822" on="1"/>
        <pt x="410" y="822" on="1"/>
        <pt x="259" y="724" on="1"/>
        <pt x="226" y="774" on="1"/>
        <pt x="374" y="905" on="1"/>
        <pt x="458" y="905" on="1"/>
      </contour>
      <contour>
        <pt x="653" y="690" on="1"/>
        <pt x="593" y="268" on="1"/>
        <pt x="571" y="114" on="0"/>
        <pt x="439" y="-13" on="0"/>
        <pt x="303" y="-13" on="1"/>
        <pt x="163" y="-13" on="0"/>
        <pt x="47" y="121" on="0"/>
        <pt x="68" y="273" on="1"/>
        <pt x="126" y="690" on="1"/>
        <pt x="252" y="690" on="1"/>
        <pt x="193" y="268" on="1"/>
        <pt x="179" y="168" on="0"/>
        <pt x="225" y="94" on="0"/>
        <pt x="301" y="94" on="1"/>
        <pt x="380" y="94" on="0"/>
        <pt x="454" y="173" on="0"/>
        <pt x="469" y="273" on="1"/>
        <pt x="527" y="690" on="1"/>
      </contour>
    </TTGlyph>
    <TTGlyph name="Udieresis" xMin="68" yMin="-13" xMax="653" yMax="879">
      <contour>
        <pt x="482" y="879" on="1"/>
        <pt x="520" y="879" on="1"/>
        <pt x="553" y="879" on="0"/>
        <pt x="547" y="849" on="1"/>
        <pt x="538" y="792" on="1"/>
        <pt x="535" y="763" on="0"/>
        <pt x="507" y="763" on="1"/>
        <pt x="465" y="763" on="1"/>
        <pt x="435" y="763" on="0"/>
        <pt x="438" y="791" on="1"/>
        <pt x="447" y="849" on="1"/>
        <pt x="453" y="879" on="0"/>
      </contour>
      <contour>
        <pt x="313" y="879" on="1"/>
        <pt x="351" y="879" on="1"/>
        <pt x="384" y="879" on="0"/>
        <pt x="378" y="849" on="1"/>
        <pt x="369" y="792" on="1"/>
        <pt x="366" y="763" on="0"/>
        <pt x="338" y="763" on="1"/>
        <pt x="296" y="763" on="1"/>
        <pt x="266" y="763" on="0"/>
        <pt x="269" y="791" on="1"/>
        <pt x="278" y="849" on="1"/>
        <pt x="282" y="879" on="0"/>
      </contour>
      <contour>
        <pt x="653" y="690" on="1"/>
        <pt x="593" y="268" on="1"/>
        <pt x="571" y="114" on="0"/>
        <pt x="439" y="-13" on="0"/>
        <pt x="303" y="-13" on="1"/>
        <pt x="163" y="-13" on="0"/>
        <pt x="47" y="121" on="0"/>
        <pt x="68" y="273" on="1"/>
        <pt x="126" y="690" on="1"/>
        <pt x="252" y="690" on="1"/>
        <pt x="193" y="268" on="1"/>
        <pt x="179" y="168" on="0"/>
        <pt x="225" y="94" on="0"/>
        <pt x="301" y="94" on="1"/>
        <pt x="380" y="94" on="0"/>
        <pt x="454" y="173" on="0"/>
        <pt x="469" y="273" on="1"/>
        <pt x="527" y="690" on="1"/>
      </contour>
    </TTGlyph>
    <TTGlyph name="Ugrave" xMin="68" yMin="-13" xMax="653" yMax="925">
      <contour>
        <pt x="460" y="777" on="1"/>
        <pt x="419" y="724" on="1"/>
        <pt x="210" y="842" on="1"/>
        <pt x="270" y="925" on="1"/>
      </contour>
      <contour>
        <pt x="653" y="690" on="1"/>
        <pt x="593" y="268" on="1"/>
        <pt x="571" y="114" on="0"/>
        <pt x="439" y="-13" on="0"/>
        <pt x="303" y="-13" on="1"/>
        <pt x="163" y="-13" on="0"/>
        <pt x="47" y="121" on="0"/>
        <pt x="68" y="273" on="1"/>
        <pt x="126" y="690" on="1"/>
        <pt x="252" y="690" on="1"/>
        <pt x="193" y="268" on="1"/>
        <pt x="179" y="168" on="0"/>
        <pt x="225" y="94" on="0"/>
        <pt x="301" y="94" on="1"/>
        <pt x="380" y="94" on="0"/>
        <pt x="454" y="173" on="0"/>
        <pt x="469" y="273" on="1"/>
        <pt x="527" y="690" on="1"/>
      </contour>
    </TTGlyph>
    <TTGlyph name="Uhungarumlaut" xMin="68" yMin="-13" xMax="653" yMax="932">
      <contour>
        <pt x="460" y="881" on="1"/>
        <pt x="296" y="719" on="1"/>
        <pt x="247" y="756" on="1"/>
        <pt x="388" y="932" on="1"/>
      </contour>
      <contour>
        <pt x="639" y="881" on="1"/>
        <pt x="475" y="719" on="1"/>
        <pt x="426" y="756" on="1"/>
        <pt x="566" y="932" on="1"/>
      </contour>
      <contour>
        <pt x="653" y="690" on="1"/>
        <pt x="593" y="268" on="1"/>
        <pt x="571" y="114" on="0"/>
        <pt x="439" y="-13" on="0"/>
        <pt x="303" y="-13" on="1"/>
        <pt x="163" y="-13" on="0"/>
        <pt x="47" y="121" on="0"/>
        <pt x="68" y="273" on="1"/>
        <pt x="126" y="690" on="1"/>
        <pt x="252" y="690" on="1"/>
        <pt x="193" y="268" on="1"/>
        <pt x="179" y="168" on="0"/>
        <pt x="225" y="94" on="0"/>
        <pt x="301" y="94" on="1"/>
        <pt x="380" y="94" on="0"/>
        <pt x="454" y="173" on="0"/>
        <pt x="469" y="273" on="1"/>
        <pt x="527" y="690" on="1"/>
      </contour>
    </TTGlyph>
    <TTGlyph name="Umacron" xMin="68" yMin="-13" xMax="653" yMax="862">
      <contour>
        <pt x="547" y="778" on="1"/>
        <pt x="256" y="778" on="1"/>
        <pt x="268" y="862" on="1"/>
        <pt x="559" y="862" on="1"/>
      </contour>
      <contour>
        <pt x="653" y="690" on="1"/>
        <pt x="593" y="268" on="1"/>
        <pt x="571" y="114" on="0"/>
        <pt x="439" y="-13" on="0"/>
        <pt x="303" y="-13" on="1"/>
        <pt x="163" y="-13" on="0"/>
        <pt x="47" y="121" on="0"/>
        <pt x="68" y="273" on="1"/>
        <pt x="126" y="690" on="1"/>
        <pt x="252" y="690" on="1"/>
        <pt x="193" y="268" on="1"/>
        <pt x="179" y="168" on="0"/>
        <pt x="225" y="94" on="0"/>
        <pt x="301" y="94" on="1"/>
        <pt x="380" y="94" on="0"/>
        <pt x="454" y="173" on="0"/>
        <pt x="469" y="273" on="1"/>
        <pt x="527" y="690" on="1"/>
      </contour>
    </TTGlyph>
    <TTGlyph name="Uogonek" xMin="68" yMin="-222" xMax="653" yMax="690">
      <contour>
        <pt x="653" y="690" on="1"/>
        <pt x="593" y="268" on="1"/>
        <pt x="572" y="121" on="0"/>
        <pt x="451" y="-7" on="0"/>
        <pt x="330" y="-13" on="1"/>
        <pt x="289" y="-56" on="0"/>
        <pt x="255" y="-119" on="1"/>
        <pt x="237" y="-148" on="0"/>
        <pt x="270" y="-166" on="0"/>
        <pt x="312" y="-153" on="1"/>
        <pt x="325" y="-202" on="1"/>
        <pt x="283" y="-218" on="0"/>
        <pt x="216" y="-225" on="0"/>
        <pt x="176" y="-209" on="0"/>
        <pt x="154" y="-180" on="0"/>
        <pt x="156" y="-140" on="0"/>
        <pt x="167" y="-118" on="1"/>
        <pt x="193" y="-66" on="0"/>
        <pt x="269" y="-12" on="1"/>
        <pt x="148" y="-4" on="0"/>
        <pt x="48" y="131" on="0"/>
        <pt x="68" y="273" on="1"/>
        <pt x="126" y="690" on="1"/>
        <pt x="252" y="690" on="1"/>
        <pt x="193" y="268" on="1"/>
        <pt x="179" y="168" on="0"/>
        <pt x="225" y="94" on="0"/>
        <pt x="301" y="94" on="1"/>
        <pt x="380" y="94" on="0"/>
        <pt x="454" y="173" on="0"/>
        <pt x="469" y="273" on="1"/>
        <pt x="527" y="690" on="1"/>
      </contour>
    </TTGlyph>
    <TTGlyph name="Uring" xMin="68" yMin="-13" xMax="653" yMax="934">
      <contour>
        <pt x="414" y="934" on="1"/>
        <pt x="465" y="934" on="0"/>
        <pt x="528" y="869" on="0"/>
        <pt x="522" y="819" on="1"/>
        <pt x="517" y="773" on="0"/>
        <pt x="454" y="714" on="0"/>
        <pt x="404" y="714" on="1"/>
        <pt x="352" y="714" on="0"/>
        <pt x="292" y="778" on="0"/>
        <pt x="297" y="828" on="1"/>
        <pt x="302" y="873" on="0"/>
        <pt x="364" y="934" on="0"/>
      </contour>
      <contour>
        <pt x="414" y="878" on="1"/>
        <pt x="390" y="878" on="0"/>
        <pt x="360" y="848" on="0"/>
        <pt x="358" y="825" on="1"/>
        <pt x="355" y="799" on="0"/>
        <pt x="384" y="769" on="0"/>
        <pt x="406" y="769" on="1"/>
        <pt x="430" y="769" on="0"/>
        <pt x="459" y="800" on="0"/>
        <pt x="461" y="825" on="1"/>
        <pt x="463" y="849" on="0"/>
        <pt x="437" y="878" on="0"/>
      </contour>
      <contour>
        <pt x="653" y="690" on="1"/>
        <pt x="593" y="268" on="1"/>
        <pt x="571" y="114" on="0"/>
        <pt x="439" y="-13" on="0"/>
        <pt x="303" y="-13" on="1"/>
        <pt x="163" y="-13" on="0"/>
        <pt x="47" y="121" on="0"/>
        <pt x="68" y="273" on="1"/>
        <pt x="126" y="690" on="1"/>
        <pt x="252" y="690" on="1"/>
        <pt x="193" y="268" on="1"/>
        <pt x="179" y="168" on="0"/>
        <pt x="225" y="94" on="0"/>
        <pt x="301" y="94" on="1"/>
        <pt x="380" y="94" on="0"/>
        <pt x="454" y="173" on="0"/>
        <pt x="469" y="273" on="1"/>
        <pt x="527" y="690" on="1"/>
      </contour>
    </TTGlyph>
    <TTGlyph name="V" xMin="64" yMin="0" xMax="664" yMax="690">
      <contour>
        <pt x="664" y="690" on="1"/>
        <pt x="374" y="32" on="1"/>
        <pt x="360" y="0" on="0"/>
        <pt x="328" y="0" on="1"/>
        <pt x="211" y="0" on="1"/>
        <pt x="195" y="0" on="0"/>
        <pt x="172" y="21" on="0"/>
        <pt x="170" y="37" on="1"/>
        <pt x="64" y="690" on="1"/>
        <pt x="191" y="690" on="1"/>
        <pt x="258" y="171" on="1"/>
        <pt x="264" y="119" on="0"/>
        <pt x="266" y="93" on="1"/>
        <pt x="291" y="93" on="1"/>
        <pt x="301" y="132" on="0"/>
        <pt x="320" y="174" on="1"/>
        <pt x="531" y="690" on="1"/>
      </contour>
    </TTGlyph>
    <TTGlyph name="W" xMin="81" yMin="0" xMax="984" yMax="690">
      <contour>
        <pt x="984" y="690" on="1"/>
        <pt x="771" y="33" on="1"/>
        <pt x="760" y="0" on="0"/>
        <pt x="723" y="0" on="1"/>
        <pt x="595" y="0" on="1"/>
        <pt x="578" y="0" on="0"/>
        <pt x="553" y="23" on="0"/>
        <pt x="552" y="39" on="1"/>
        <pt x="531" y="518" on="1"/>
        <pt x="531" y="527" on="0"/>
        <pt x="529" y="559" on="0"/>
        <pt x="528" y="586" on="0"/>
        <pt x="528" y="598" on="1"/>
        <pt x="508" y="598" on="1"/>
        <pt x="500" y="566" on="0"/>
        <pt x="484" y="515" on="1"/>
        <pt x="331" y="34" on="1"/>
        <pt x="320" y="0" on="0"/>
        <pt x="283" y="0" on="1"/>
        <pt x="156" y="0" on="1"/>
        <pt x="139" y="0" on="0"/>
        <pt x="113" y="22" on="0"/>
        <pt x="112" y="38" on="1"/>
        <pt x="81" y="690" on="1"/>
        <pt x="208" y="690" on="1"/>
        <pt x="218" y="185" on="1"/>
        <pt x="219" y="142" on="0"/>
        <pt x="218" y="91" on="1"/>
        <pt x="240" y="91" on="1"/>
        <pt x="245" y="111" on="0"/>
        <pt x="269" y="190" on="1"/>
        <pt x="417" y="653" on="1"/>
        <pt x="430" y="690" on="0"/>
        <pt x="467" y="690" on="1"/>
        <pt x="586" y="690" on="1"/>
        <pt x="604" y="690" on="0"/>
        <pt x="626" y="666" on="0"/>
        <pt x="627" y="648" on="1"/>
        <pt x="654" y="184" on="1"/>
        <pt x="658" y="122" on="0"/>
        <pt x="657" y="91" on="1"/>
        <pt x="679" y="91" on="1"/>
        <pt x="688" y="129" on="0"/>
        <pt x="705" y="188" on="1"/>
        <pt x="854" y="690" on="1"/>
      </contour>
    </TTGlyph>
    <TTGlyph name="Wacute" xMin="81" yMin="0" xMax="984" yMax="926">
      <contour>
        <pt x="726" y="834" on="1"/>
        <pt x="500" y="723" on="1"/>
        <pt x="467" y="777" on="1"/>
        <pt x="674" y="926" on="1"/>
      </contour>
      <contour>
        <pt x="984" y="690" on="1"/>
        <pt x="771" y="33" on="1"/>
        <pt x="760" y="0" on="0"/>
        <pt x="723" y="0" on="1"/>
        <pt x="595" y="0" on="1"/>
        <pt x="578" y="0" on="0"/>
        <pt x="553" y="23" on="0"/>
        <pt x="552" y="39" on="1"/>
        <pt x="531" y="518" on="1"/>
        <pt x="531" y="527" on="0"/>
        <pt x="529" y="559" on="0"/>
        <pt x="528" y="586" on="0"/>
        <pt x="528" y="598" on="1"/>
        <pt x="508" y="598" on="1"/>
        <pt x="500" y="566" on="0"/>
        <pt x="484" y="515" on="1"/>
        <pt x="331" y="34" on="1"/>
        <pt x="320" y="0" on="0"/>
        <pt x="283" y="0" on="1"/>
        <pt x="156" y="0" on="1"/>
        <pt x="139" y="0" on="0"/>
        <pt x="113" y="22" on="0"/>
        <pt x="112" y="38" on="1"/>
        <pt x="81" y="690" on="1"/>
        <pt x="208" y="690" on="1"/>
        <pt x="218" y="185" on="1"/>
        <pt x="219" y="142" on="0"/>
        <pt x="218" y="91" on="1"/>
        <pt x="240" y="91" on="1"/>
        <pt x="245" y="111" on="0"/>
        <pt x="269" y="190" on="1"/>
        <pt x="417" y="653" on="1"/>
        <pt x="430" y="690" on="0"/>
        <pt x="467" y="690" on="1"/>
        <pt x="586" y="690" on="1"/>
        <pt x="604" y="690" on="0"/>
        <pt x="626" y="666" on="0"/>
        <pt x="627" y="648" on="1"/>
        <pt x="654" y="184" on="1"/>
        <pt x="658" y="122" on="0"/>
        <pt x="657" y="91" on="1"/>
        <pt x="679" y="91" on="1"/>
        <pt x="688" y="129" on="0"/>
        <pt x="705" y="188" on="1"/>
        <pt x="854" y="690" on="1"/>
      </contour>
    </TTGlyph>
    <TTGlyph name="Wcircumflex" xMin="81" yMin="0" xMax="984" yMax="904">
      <contour>
        <pt x="725" y="766" on="1"/>
        <pt x="684" y="721" on="1"/>
        <pt x="560" y="821" on="1"/>
        <pt x="552" y="821" on="1"/>
        <pt x="400" y="723" on="1"/>
        <pt x="367" y="773" on="1"/>
        <pt x="515" y="904" on="1"/>
        <pt x="599" y="904" on="1"/>
      </contour>
      <contour>
        <pt x="984" y="690" on="1"/>
        <pt x="771" y="33" on="1"/>
        <pt x="760" y="0" on="0"/>
        <pt x="723" y="0" on="1"/>
        <pt x="595" y="0" on="1"/>
        <pt x="578" y="0" on="0"/>
        <pt x="553" y="23" on="0"/>
        <pt x="552" y="39" on="1"/>
        <pt x="531" y="518" on="1"/>
        <pt x="531" y="527" on="0"/>
        <pt x="529" y="559" on="0"/>
        <pt x="528" y="586" on="0"/>
        <pt x="528" y="598" on="1"/>
        <pt x="508" y="598" on="1"/>
        <pt x="500" y="566" on="0"/>
        <pt x="484" y="515" on="1"/>
        <pt x="331" y="34" on="1"/>
        <pt x="320" y="0" on="0"/>
        <pt x="283" y="0" on="1"/>
        <pt x="156" y="0" on="1"/>
        <pt x="139" y="0" on="0"/>
        <pt x="113" y="22" on="0"/>
        <pt x="112" y="38" on="1"/>
        <pt x="81" y="690" on="1"/>
        <pt x="208" y="690" on="1"/>
        <pt x="218" y="185" on="1"/>
        <pt x="219" y="142" on="0"/>
        <pt x="218" y="91" on="1"/>
        <pt x="240" y="91" on="1"/>
        <pt x="245" y="111" on="0"/>
        <pt x="269" y="190" on="1"/>
        <pt x="417" y="653" on="1"/>
        <pt x="430" y="690" on="0"/>
        <pt x="467" y="690" on="1"/>
        <pt x="586" y="690" on="1"/>
        <pt x="604" y="690" on="0"/>
        <pt x="626" y="666" on="0"/>
        <pt x="627" y="648" on="1"/>
        <pt x="654" y="184" on="1"/>
        <pt x="658" y="122" on="0"/>
        <pt x="657" y="91" on="1"/>
        <pt x="679" y="91" on="1"/>
        <pt x="688" y="129" on="0"/>
        <pt x="705" y="188" on="1"/>
        <pt x="854" y="690" on="1"/>
      </contour>
    </TTGlyph>
    <TTGlyph name="Wdieresis" xMin="81" yMin="0" xMax="984" yMax="878">
      <contour>
        <pt x="623" y="878" on="1"/>
        <pt x="661" y="878" on="1"/>
        <pt x="679" y="878" on="0"/>
        <pt x="691" y="864" on="0"/>
        <pt x="689" y="848" on="1"/>
        <pt x="679" y="791" on="1"/>
        <pt x="676" y="762" on="0"/>
        <pt x="648" y="762" on="1"/>
        <pt x="606" y="762" on="1"/>
        <pt x="576" y="762" on="0"/>
        <pt x="579" y="790" on="1"/>
        <pt x="589" y="848" on="1"/>
        <pt x="593" y="878" on="0"/>
      </contour>
      <contour>
        <pt x="454" y="878" on="1"/>
        <pt x="492" y="878" on="1"/>
        <pt x="510" y="878" on="0"/>
        <pt x="522" y="864" on="0"/>
        <pt x="520" y="848" on="1"/>
        <pt x="510" y="791" on="1"/>
        <pt x="507" y="762" on="0"/>
        <pt x="479" y="762" on="1"/>
        <pt x="437" y="762" on="1"/>
        <pt x="407" y="762" on="0"/>
        <pt x="410" y="790" on="1"/>
        <pt x="420" y="848" on="1"/>
        <pt x="424" y="878" on="0"/>
      </contour>
      <contour>
        <pt x="984" y="690" on="1"/>
        <pt x="771" y="33" on="1"/>
        <pt x="760" y="0" on="0"/>
        <pt x="723" y="0" on="1"/>
        <pt x="595" y="0" on="1"/>
        <pt x="578" y="0" on="0"/>
        <pt x="553" y="23" on="0"/>
        <pt x="552" y="39" on="1"/>
        <pt x="531" y="518" on="1"/>
        <pt x="531" y="527" on="0"/>
        <pt x="529" y="559" on="0"/>
        <pt x="528" y="586" on="0"/>
        <pt x="528" y="598" on="1"/>
        <pt x="508" y="598" on="1"/>
        <pt x="500" y="566" on="0"/>
        <pt x="484" y="515" on="1"/>
        <pt x="331" y="34" on="1"/>
        <pt x="320" y="0" on="0"/>
        <pt x="283" y="0" on="1"/>
        <pt x="156" y="0" on="1"/>
        <pt x="139" y="0" on="0"/>
        <pt x="113" y="22" on="0"/>
        <pt x="112" y="38" on="1"/>
        <pt x="81" y="690" on="1"/>
        <pt x="208" y="690" on="1"/>
        <pt x="218" y="185" on="1"/>
        <pt x="219" y="142" on="0"/>
        <pt x="218" y="91" on="1"/>
        <pt x="240" y="91" on="1"/>
        <pt x="245" y="111" on="0"/>
        <pt x="269" y="190" on="1"/>
        <pt x="417" y="653" on="1"/>
        <pt x="430" y="690" on="0"/>
        <pt x="467" y="690" on="1"/>
        <pt x="586" y="690" on="1"/>
        <pt x="604" y="690" on="0"/>
        <pt x="626" y="666" on="0"/>
        <pt x="627" y="648" on="1"/>
        <pt x="654" y="184" on="1"/>
        <pt x="658" y="122" on="0"/>
        <pt x="657" y="91" on="1"/>
        <pt x="679" y="91" on="1"/>
        <pt x="688" y="129" on="0"/>
        <pt x="705" y="188" on="1"/>
        <pt x="854" y="690" on="1"/>
      </contour>
    </TTGlyph>
    <TTGlyph name="Wgrave" xMin="81" yMin="0" xMax="984" yMax="924">
      <contour>
        <pt x="602" y="777" on="1"/>
        <pt x="561" y="723" on="1"/>
        <pt x="351" y="841" on="1"/>
        <pt x="411" y="924" on="1"/>
      </contour>
      <contour>
        <pt x="984" y="690" on="1"/>
        <pt x="771" y="33" on="1"/>
        <pt x="760" y="0" on="0"/>
        <pt x="723" y="0" on="1"/>
        <pt x="595" y="0" on="1"/>
        <pt x="578" y="0" on="0"/>
        <pt x="553" y="23" on="0"/>
        <pt x="552" y="39" on="1"/>
        <pt x="531" y="518" on="1"/>
        <pt x="531" y="527" on="0"/>
        <pt x="529" y="559" on="0"/>
        <pt x="528" y="586" on="0"/>
        <pt x="528" y="598" on="1"/>
        <pt x="508" y="598" on="1"/>
        <pt x="500" y="566" on="0"/>
        <pt x="484" y="515" on="1"/>
        <pt x="331" y="34" on="1"/>
        <pt x="320" y="0" on="0"/>
        <pt x="283" y="0" on="1"/>
        <pt x="156" y="0" on="1"/>
        <pt x="139" y="0" on="0"/>
        <pt x="113" y="22" on="0"/>
        <pt x="112" y="38" on="1"/>
        <pt x="81" y="690" on="1"/>
        <pt x="208" y="690" on="1"/>
        <pt x="218" y="185" on="1"/>
        <pt x="219" y="142" on="0"/>
        <pt x="218" y="91" on="1"/>
        <pt x="240" y="91" on="1"/>
        <pt x="245" y="111" on="0"/>
        <pt x="269" y="190" on="1"/>
        <pt x="417" y="653" on="1"/>
        <pt x="430" y="690" on="0"/>
        <pt x="467" y="690" on="1"/>
        <pt x="586" y="690" on="1"/>
        <pt x="604" y="690" on="0"/>
        <pt x="626" y="666" on="0"/>
        <pt x="627" y="648" on="1"/>
        <pt x="654" y="184" on="1"/>
        <pt x="658" y="122" on="0"/>
        <pt x="657" y="91" on="1"/>
        <pt x="679" y="91" on="1"/>
        <pt x="688" y="129" on="0"/>
        <pt x="705" y="188" on="1"/>
        <pt x="854" y="690" on="1"/>
      </contour>
    </TTGlyph>
    <TTGlyph name="X" xMin="-26" yMin="0" xMax="652" yMax="690">
      <contour>
        <pt x="434" y="355" on="1"/>
        <pt x="567" y="0" on="1"/>
        <pt x="440" y="0" on="1"/>
        <pt x="331" y="312" on="1"/>
        <pt x="312" y="312" on="1"/>
        <pt x="116" y="0" on="1"/>
        <pt x="-26" y="0" on="1"/>
        <pt x="208" y="355" on="1"/>
        <pt x="87" y="690" on="1"/>
        <pt x="213" y="690" on="1"/>
        <pt x="311" y="402" on="1"/>
        <pt x="331" y="402" on="1"/>
        <pt x="517" y="690" on="1"/>
        <pt x="652" y="690" on="1"/>
      </contour>
    </TTGlyph>
    <TTGlyph name="Y" xMin="59" yMin="0" xMax="636" yMax="690">
      <contour>
        <pt x="344" y="232" on="1"/>
        <pt x="312" y="0" on="1"/>
        <pt x="186" y="0" on="1"/>
        <pt x="220" y="238" on="1"/>
        <pt x="59" y="690" on="1"/>
        <pt x="186" y="690" on="1"/>
        <pt x="273" y="420" on="1"/>
        <pt x="286" y="382" on="0"/>
        <pt x="289" y="336" on="1"/>
        <pt x="299" y="336" on="1"/>
        <pt x="308" y="374" on="0"/>
        <pt x="337" y="423" on="1"/>
        <pt x="500" y="690" on="1"/>
        <pt x="636" y="690" on="1"/>
      </contour>
    </TTGlyph>
    <TTGlyph name="Yacute" xMin="59" yMin="0" xMax="636" yMax="926">
      <contour>
        <pt x="314" y="724" on="1"/>
        <pt x="281" y="778" on="1"/>
        <pt x="487" y="926" on="1"/>
        <pt x="539" y="835" on="1"/>
      </contour>
      <contour>
        <pt x="344" y="232" on="1"/>
        <pt x="312" y="0" on="1"/>
        <pt x="186" y="0" on="1"/>
        <pt x="220" y="238" on="1"/>
        <pt x="59" y="690" on="1"/>
        <pt x="186" y="690" on="1"/>
        <pt x="273" y="420" on="1"/>
        <pt x="286" y="382" on="0"/>
        <pt x="289" y="336" on="1"/>
        <pt x="299" y="336" on="1"/>
        <pt x="308" y="374" on="0"/>
        <pt x="337" y="423" on="1"/>
        <pt x="500" y="690" on="1"/>
        <pt x="636" y="690" on="1"/>
      </contour>
    </TTGlyph>
    <TTGlyph name="Ycircumflex" xMin="59" yMin="0" xMax="636" yMax="905">
      <contour>
        <pt x="213" y="724" on="1"/>
        <pt x="181" y="774" on="1"/>
        <pt x="328" y="905" on="1"/>
        <pt x="413" y="905" on="1"/>
        <pt x="539" y="767" on="1"/>
        <pt x="497" y="722" on="1"/>
        <pt x="373" y="822" on="1"/>
        <pt x="365" y="822" on="1"/>
      </contour>
      <contour>
        <pt x="344" y="232" on="1"/>
        <pt x="312" y="0" on="1"/>
        <pt x="186" y="0" on="1"/>
        <pt x="220" y="238" on="1"/>
        <pt x="59" y="690" on="1"/>
        <pt x="186" y="690" on="1"/>
        <pt x="273" y="420" on="1"/>
        <pt x="286" y="382" on="0"/>
        <pt x="289" y="336" on="1"/>
        <pt x="299" y="336" on="1"/>
        <pt x="308" y="374" on="0"/>
        <pt x="337" y="423" on="1"/>
        <pt x="500" y="690" on="1"/>
        <pt x="636" y="690" on="1"/>
      </contour>
    </TTGlyph>
    <TTGlyph name="Ydieresis" xMin="59" yMin="0" xMax="636" yMax="879">
      <contour>
        <pt x="461" y="763" on="1"/>
        <pt x="419" y="763" on="1"/>
        <pt x="389" y="763" on="0"/>
        <pt x="393" y="791" on="1"/>
        <pt x="402" y="849" on="1"/>
        <pt x="406" y="879" on="0"/>
        <pt x="436" y="879" on="1"/>
        <pt x="475" y="879" on="1"/>
        <pt x="492" y="879" on="0"/>
        <pt x="504" y="865" on="0"/>
        <pt x="502" y="849" on="1"/>
        <pt x="493" y="792" on="1"/>
        <pt x="490" y="763" on="0"/>
      </contour>
      <contour>
        <pt x="292" y="763" on="1"/>
        <pt x="250" y="763" on="1"/>
        <pt x="220" y="763" on="0"/>
        <pt x="224" y="791" on="1"/>
        <pt x="233" y="849" on="1"/>
        <pt x="237" y="879" on="0"/>
        <pt x="268" y="879" on="1"/>
        <pt x="306" y="879" on="1"/>
        <pt x="324" y="879" on="0"/>
        <pt x="335" y="865" on="0"/>
        <pt x="333" y="849" on="1"/>
        <pt x="324" y="792" on="1"/>
        <pt x="321" y="763" on="0"/>
      </contour>
      <contour>
        <pt x="344" y="232" on="1"/>
        <pt x="312" y="0" on="1"/>
        <pt x="186" y="0" on="1"/>
        <pt x="220" y="238" on="1"/>
        <pt x="59" y="690" on="1"/>
        <pt x="186" y="690" on="1"/>
        <pt x="273" y="420" on="1"/>
        <pt x="286" y="382" on="0"/>
        <pt x="289" y="336" on="1"/>
        <pt x="299" y="336" on="1"/>
        <pt x="308" y="374" on="0"/>
        <pt x="337" y="423" on="1"/>
        <pt x="500" y="690" on="1"/>
        <pt x="636" y="690" on="1"/>
      </contour>
    </TTGlyph>
    <TTGlyph name="Ygrave" xMin="59" yMin="0" xMax="636" yMax="925">
      <contour>
        <pt x="374" y="724" on="1"/>
        <pt x="164" y="842" on="1"/>
        <pt x="224" y="925" on="1"/>
        <pt x="415" y="777" on="1"/>
      </contour>
      <contour>
        <pt x="344" y="232" on="1"/>
        <pt x="312" y="0" on="1"/>
        <pt x="186" y="0" on="1"/>
        <pt x="220" y="238" on="1"/>
        <pt x="59" y="690" on="1"/>
        <pt x="186" y="690" on="1"/>
        <pt x="273" y="420" on="1"/>
        <pt x="286" y="382" on="0"/>
        <pt x="289" y="336" on="1"/>
        <pt x="299" y="336" on="1"/>
        <pt x="308" y="374" on="0"/>
        <pt x="337" y="423" on="1"/>
        <pt x="500" y="690" on="1"/>
        <pt x="636" y="690" on="1"/>
      </contour>
    </TTGlyph>
    <TTGlyph name="Z" xMin="3" yMin="0" xMax="577" yMax="690">
      <contour>
        <pt x="562" y="588" on="1"/>
        <pt x="156" y="102" on="1"/>
        <pt x="501" y="102" on="1"/>
        <pt x="487" y="0" on="1"/>
        <pt x="3" y="0" on="1"/>
        <pt x="17" y="102" on="1"/>
        <pt x="423" y="588" on="1"/>
        <pt x="91" y="588" on="1"/>
        <pt x="106" y="690" on="1"/>
        <pt x="577" y="690" on="1"/>
      </contour>
    </TTGlyph>
    <TTGlyph name="Zacute" xMin="3" yMin="0" xMax="577" yMax="926">
      <contour>
        <pt x="313" y="724" on="1"/>
        <pt x="280" y="778" on="1"/>
        <pt x="486" y="926" on="1"/>
        <pt x="538" y="835" on="1"/>
      </contour>
      <contour>
        <pt x="562" y="588" on="1"/>
        <pt x="156" y="102" on="1"/>
        <pt x="501" y="102" on="1"/>
        <pt x="487" y="0" on="1"/>
        <pt x="3" y="0" on="1"/>
        <pt x="17" y="102" on="1"/>
        <pt x="423" y="588" on="1"/>
        <pt x="91" y="588" on="1"/>
        <pt x="106" y="690" on="1"/>
        <pt x="577" y="690" on="1"/>
      </contour>
    </TTGlyph>
    <TTGlyph name="Zcaron" xMin="3" yMin="0" xMax="577" yMax="922">
      <contour>
        <pt x="314" y="740" on="1"/>
        <pt x="192" y="879" on="1"/>
        <pt x="237" y="922" on="1"/>
        <pt x="354" y="825" on="1"/>
        <pt x="362" y="825" on="1"/>
        <pt x="512" y="921" on="1"/>
        <pt x="545" y="871" on="1"/>
        <pt x="393" y="740" on="1"/>
      </contour>
      <contour>
        <pt x="562" y="588" on="1"/>
        <pt x="156" y="102" on="1"/>
        <pt x="501" y="102" on="1"/>
        <pt x="487" y="0" on="1"/>
        <pt x="3" y="0" on="1"/>
        <pt x="17" y="102" on="1"/>
        <pt x="423" y="588" on="1"/>
        <pt x="91" y="588" on="1"/>
        <pt x="106" y="690" on="1"/>
        <pt x="577" y="690" on="1"/>
      </contour>
    </TTGlyph>
    <TTGlyph name="Zdotaccent" xMin="3" yMin="0" xMax="577" yMax="876">
      <contour>
        <pt x="375" y="753" on="1"/>
        <pt x="337" y="753" on="1"/>
        <pt x="320" y="753" on="0"/>
        <pt x="302" y="773" on="0"/>
        <pt x="305" y="790" on="1"/>
        <pt x="311" y="844" on="1"/>
        <pt x="317" y="876" on="0"/>
        <pt x="347" y="876" on="1"/>
        <pt x="385" y="876" on="1"/>
        <pt x="402" y="876" on="0"/>
        <pt x="421" y="856" on="0"/>
        <pt x="418" y="839" on="1"/>
        <pt x="411" y="785" on="1"/>
        <pt x="407" y="753" on="0"/>
      </contour>
      <contour>
        <pt x="562" y="588" on="1"/>
        <pt x="156" y="102" on="1"/>
        <pt x="501" y="102" on="1"/>
        <pt x="487" y="0" on="1"/>
        <pt x="3" y="0" on="1"/>
        <pt x="17" y="102" on="1"/>
        <pt x="423" y="588" on="1"/>
        <pt x="91" y="588" on="1"/>
        <pt x="106" y="690" on="1"/>
        <pt x="577" y="690" on="1"/>
      </contour>
    </TTGlyph>
    <TTGlyph name="a" xMin="41" yMin="-12" xMax="541" yMax="504">
      <contour>
        <pt x="474" y="0" on="1"/>
        <pt x="378" y="0" on="1"/>
        <pt x="381" y="85" on="1"/>
        <pt x="298" y="-11" on="0"/>
        <pt x="176" y="-12" on="1"/>
        <pt x="86" y="-13" on="0"/>
        <pt x="21" y="107" on="0"/>
        <pt x="41" y="253" on="1"/>
        <pt x="53" y="336" on="0"/>
        <pt x="96" y="439" on="0"/>
        <pt x="166" y="489" on="0"/>
        <pt x="237" y="504" on="0"/>
        <pt x="294" y="504" on="1"/>
        <pt x="421" y="504" on="0"/>
        <pt x="541" y="475" on="1"/>
      </contour>
      <contour>
        <pt x="409" y="406" on="1"/>
        <pt x="320" y="407" on="1"/>
        <pt x="274" y="407" on="0"/>
        <pt x="226" y="398" on="0"/>
        <pt x="189" y="363" on="0"/>
        <pt x="172" y="303" on="0"/>
        <pt x="164" y="247" on="1"/>
        <pt x="150" y="144" on="0"/>
        <pt x="167" y="90" on="0"/>
        <pt x="208" y="90" on="1"/>
        <pt x="250" y="90" on="0"/>
        <pt x="328" y="137" on="0"/>
        <pt x="378" y="187" on="1"/>
      </contour>
    </TTGlyph>
    <TTGlyph name="aacute" xMin="41" yMin="-12" xMax="541" yMax="746">
      <contour>
        <pt x="289" y="544" on="1"/>
        <pt x="256" y="598" on="1"/>
        <pt x="462" y="746" on="1"/>
        <pt x="515" y="655" on="1"/>
      </contour>
      <contour>
        <pt x="474" y="0" on="1"/>
        <pt x="378" y="0" on="1"/>
        <pt x="381" y="85" on="1"/>
        <pt x="298" y="-11" on="0"/>
        <pt x="176" y="-12" on="1"/>
        <pt x="86" y="-13" on="0"/>
        <pt x="21" y="107" on="0"/>
        <pt x="41" y="253" on="1"/>
        <pt x="53" y="336" on="0"/>
        <pt x="96" y="439" on="0"/>
        <pt x="166" y="489" on="0"/>
        <pt x="237" y="504" on="0"/>
        <pt x="294" y="504" on="1"/>
        <pt x="421" y="504" on="0"/>
        <pt x="541" y="475" on="1"/>
      </contour>
      <contour>
        <pt x="409" y="406" on="1"/>
        <pt x="320" y="407" on="1"/>
        <pt x="274" y="407" on="0"/>
        <pt x="226" y="398" on="0"/>
        <pt x="189" y="363" on="0"/>
        <pt x="172" y="303" on="0"/>
        <pt x="164" y="247" on="1"/>
        <pt x="150" y="144" on="0"/>
        <pt x="167" y="90" on="0"/>
        <pt x="208" y="90" on="1"/>
        <pt x="250" y="90" on="0"/>
        <pt x="328" y="137" on="0"/>
        <pt x="378" y="187" on="1"/>
      </contour>
    </TTGlyph>
    <TTGlyph name="abreve" xMin="41" yMin="-12" xMax="541" yMax="714">
      <contour>
        <pt x="446" y="714" on="1"/>
        <pt x="505" y="701" on="1"/>
        <pt x="502" y="639" on="0"/>
        <pt x="408" y="561" on="0"/>
        <pt x="333" y="561" on="1"/>
        <pt x="254" y="561" on="0"/>
        <pt x="174" y="644" on="0"/>
        <pt x="189" y="706" on="1"/>
        <pt x="249" y="710" on="1"/>
        <pt x="244" y="678" on="0"/>
        <pt x="289" y="646" on="0"/>
        <pt x="334" y="646" on="1"/>
        <pt x="384" y="646" on="0"/>
        <pt x="443" y="682" on="0"/>
      </contour>
      <contour>
        <pt x="474" y="0" on="1"/>
        <pt x="378" y="0" on="1"/>
        <pt x="381" y="85" on="1"/>
        <pt x="298" y="-11" on="0"/>
        <pt x="176" y="-12" on="1"/>
        <pt x="86" y="-13" on="0"/>
        <pt x="21" y="107" on="0"/>
        <pt x="41" y="253" on="1"/>
        <pt x="53" y="336" on="0"/>
        <pt x="96" y="439" on="0"/>
        <pt x="166" y="489" on="0"/>
        <pt x="237" y="504" on="0"/>
        <pt x="294" y="504" on="1"/>
        <pt x="421" y="504" on="0"/>
        <pt x="541" y="475" on="1"/>
      </contour>
      <contour>
        <pt x="409" y="406" on="1"/>
        <pt x="320" y="407" on="1"/>
        <pt x="274" y="407" on="0"/>
        <pt x="226" y="398" on="0"/>
        <pt x="189" y="363" on="0"/>
        <pt x="172" y="303" on="0"/>
        <pt x="164" y="247" on="1"/>
        <pt x="150" y="144" on="0"/>
        <pt x="167" y="90" on="0"/>
        <pt x="208" y="90" on="1"/>
        <pt x="250" y="90" on="0"/>
        <pt x="328" y="137" on="0"/>
        <pt x="378" y="187" on="1"/>
      </contour>
    </TTGlyph>
    <TTGlyph name="acircumflex" xMin="41" yMin="-12" xMax="541" yMax="725">
      <contour>
        <pt x="189" y="544" on="1"/>
        <pt x="156" y="593" on="1"/>
        <pt x="304" y="725" on="1"/>
        <pt x="388" y="725" on="1"/>
        <pt x="514" y="587" on="1"/>
        <pt x="473" y="541" on="1"/>
        <pt x="349" y="641" on="1"/>
        <pt x="341" y="641" on="1"/>
      </contour>
      <contour>
        <pt x="474" y="0" on="1"/>
        <pt x="378" y="0" on="1"/>
        <pt x="381" y="85" on="1"/>
        <pt x="298" y="-11" on="0"/>
        <pt x="176" y="-12" on="1"/>
        <pt x="86" y="-13" on="0"/>
        <pt x="21" y="107" on="0"/>
        <pt x="41" y="253" on="1"/>
        <pt x="53" y="336" on="0"/>
        <pt x="96" y="439" on="0"/>
        <pt x="166" y="489" on="0"/>
        <pt x="237" y="504" on="0"/>
        <pt x="294" y="504" on="1"/>
        <pt x="421" y="504" on="0"/>
        <pt x="541" y="475" on="1"/>
      </contour>
      <contour>
        <pt x="409" y="406" on="1"/>
        <pt x="320" y="407" on="1"/>
        <pt x="274" y="407" on="0"/>
        <pt x="226" y="398" on="0"/>
        <pt x="189" y="363" on="0"/>
        <pt x="172" y="303" on="0"/>
        <pt x="164" y="247" on="1"/>
        <pt x="150" y="144" on="0"/>
        <pt x="167" y="90" on="0"/>
        <pt x="208" y="90" on="1"/>
        <pt x="250" y="90" on="0"/>
        <pt x="328" y="137" on="0"/>
        <pt x="378" y="187" on="1"/>
      </contour>
    </TTGlyph>
    <TTGlyph name="acute" xMin="99" yMin="530" xMax="357" yMax="732">
      <contour>
        <pt x="357" y="641" on="1"/>
        <pt x="132" y="530" on="1"/>
        <pt x="99" y="584" on="1"/>
        <pt x="305" y="732" on="1"/>
      </contour>
    </TTGlyph>
    <TTGlyph name="adieresis" xMin="41" yMin="-12" xMax="541" yMax="699">
      <contour>
        <pt x="268" y="583" on="1"/>
        <pt x="226" y="583" on="1"/>
        <pt x="196" y="583" on="0"/>
        <pt x="199" y="611" on="1"/>
        <pt x="208" y="669" on="1"/>
        <pt x="212" y="699" on="0"/>
        <pt x="243" y="699" on="1"/>
        <pt x="281" y="699" on="1"/>
        <pt x="314" y="699" on="0"/>
        <pt x="309" y="669" on="1"/>
        <pt x="299" y="611" on="1"/>
        <pt x="296" y="583" on="0"/>
      </contour>
      <contour>
        <pt x="437" y="583" on="1"/>
        <pt x="395" y="583" on="1"/>
        <pt x="365" y="583" on="0"/>
        <pt x="368" y="611" on="1"/>
        <pt x="378" y="669" on="1"/>
        <pt x="382" y="699" on="0"/>
        <pt x="412" y="699" on="1"/>
        <pt x="450" y="699" on="1"/>
        <pt x="482" y="699" on="0"/>
        <pt x="478" y="669" on="1"/>
        <pt x="468" y="611" on="1"/>
        <pt x="465" y="583" on="0"/>
      </contour>
      <contour>
        <pt x="474" y="0" on="1"/>
        <pt x="378" y="0" on="1"/>
        <pt x="381" y="85" on="1"/>
        <pt x="298" y="-11" on="0"/>
        <pt x="176" y="-12" on="1"/>
        <pt x="86" y="-13" on="0"/>
        <pt x="21" y="107" on="0"/>
        <pt x="41" y="253" on="1"/>
        <pt x="53" y="336" on="0"/>
        <pt x="96" y="439" on="0"/>
        <pt x="166" y="489" on="0"/>
        <pt x="237" y="504" on="0"/>
        <pt x="294" y="504" on="1"/>
        <pt x="421" y="504" on="0"/>
        <pt x="541" y="475" on="1"/>
      </contour>
      <contour>
        <pt x="409" y="406" on="1"/>
        <pt x="320" y="407" on="1"/>
        <pt x="274" y="407" on="0"/>
        <pt x="226" y="398" on="0"/>
        <pt x="189" y="363" on="0"/>
        <pt x="172" y="303" on="0"/>
        <pt x="164" y="247" on="1"/>
        <pt x="150" y="144" on="0"/>
        <pt x="167" y="90" on="0"/>
        <pt x="208" y="90" on="1"/>
        <pt x="250" y="90" on="0"/>
        <pt x="328" y="137" on="0"/>
        <pt x="378" y="187" on="1"/>
      </contour>
    </TTGlyph>
    <TTGlyph name="ae" xMin="42" yMin="-12" xMax="846" yMax="504">
      <contour>
        <pt x="784" y="99" on="1"/>
        <pt x="791" y="20" on="1"/>
        <pt x="718" y="-12" on="0"/>
        <pt x="589" y="-12" on="1"/>
        <pt x="426" y="-12" on="0"/>
        <pt x="386" y="92" on="1"/>
        <pt x="303" y="-11" on="0"/>
        <pt x="176" y="-12" on="1"/>
        <pt x="85" y="-13" on="0"/>
        <pt x="21" y="107" on="0"/>
        <pt x="42" y="253" on="1"/>
        <pt x="53" y="336" on="0"/>
        <pt x="95" y="439" on="0"/>
        <pt x="163" y="488" on="0"/>
        <pt x="232" y="504" on="0"/>
        <pt x="288" y="504" on="1"/>
        <pt x="391" y="504" on="0"/>
        <pt x="505" y="483" on="1"/>
        <pt x="558" y="504" on="0"/>
        <pt x="651" y="504" on="1"/>
        <pt x="772" y="504" on="0"/>
        <pt x="857" y="421" on="0"/>
        <pt x="846" y="341" on="1"/>
        <pt x="836" y="269" on="0"/>
        <pt x="744" y="205" on="0"/>
        <pt x="649" y="199" on="1"/>
        <pt x="494" y="186" on="1"/>
        <pt x="495" y="128" on="0"/>
        <pt x="549" y="87" on="0"/>
        <pt x="605" y="87" on="1"/>
        <pt x="688" y="87" on="0"/>
      </contour>
      <contour>
        <pt x="501" y="268" on="1"/>
        <pt x="641" y="280" on="1"/>
        <pt x="683" y="283" on="0"/>
        <pt x="723" y="314" on="0"/>
        <pt x="727" y="352" on="1"/>
        <pt x="730" y="390" on="0"/>
        <pt x="694" y="408" on="0"/>
        <pt x="635" y="408" on="1"/>
        <pt x="569" y="407" on="0"/>
        <pt x="515" y="352" on="0"/>
      </contour>
      <contour>
        <pt x="208" y="90" on="1"/>
        <pt x="280" y="90" on="0"/>
        <pt x="369" y="179" on="1"/>
        <pt x="369" y="223" on="0"/>
        <pt x="374" y="258" on="1"/>
        <pt x="386" y="351" on="0"/>
        <pt x="416" y="406" on="1"/>
        <pt x="373" y="407" on="0"/>
        <pt x="320" y="407" on="1"/>
        <pt x="275" y="407" on="0"/>
        <pt x="228" y="398" on="0"/>
        <pt x="191" y="363" on="0"/>
        <pt x="174" y="303" on="0"/>
        <pt x="166" y="247" on="1"/>
        <pt x="153" y="144" on="0"/>
        <pt x="169" y="90" on="0"/>
      </contour>
    </TTGlyph>
    <TTGlyph name="agrave" xMin="41" yMin="-12" xMax="541" yMax="745">
      <contour>
        <pt x="350" y="544" on="1"/>
        <pt x="140" y="661" on="1"/>
        <pt x="200" y="745" on="1"/>
        <pt x="391" y="597" on="1"/>
      </contour>
      <contour>
        <pt x="474" y="0" on="1"/>
        <pt x="378" y="0" on="1"/>
        <pt x="381" y="85" on="1"/>
        <pt x="298" y="-11" on="0"/>
        <pt x="176" y="-12" on="1"/>
        <pt x="86" y="-13" on="0"/>
        <pt x="21" y="107" on="0"/>
        <pt x="41" y="253" on="1"/>
        <pt x="53" y="336" on="0"/>
        <pt x="96" y="439" on="0"/>
        <pt x="166" y="489" on="0"/>
        <pt x="237" y="504" on="0"/>
        <pt x="294" y="504" on="1"/>
        <pt x="421" y="504" on="0"/>
        <pt x="541" y="475" on="1"/>
      </contour>
      <contour>
        <pt x="409" y="406" on="1"/>
        <pt x="320" y="407" on="1"/>
        <pt x="274" y="407" on="0"/>
        <pt x="226" y="398" on="0"/>
        <pt x="189" y="363" on="0"/>
        <pt x="172" y="303" on="0"/>
        <pt x="164" y="247" on="1"/>
        <pt x="150" y="144" on="0"/>
        <pt x="167" y="90" on="0"/>
        <pt x="208" y="90" on="1"/>
        <pt x="250" y="90" on="0"/>
        <pt x="328" y="137" on="0"/>
        <pt x="378" y="187" on="1"/>
      </contour>
    </TTGlyph>
    <TTGlyph name="amacron" xMin="41" yMin="-12" xMax="541" yMax="682">
      <contour>
        <pt x="477" y="598" on="1"/>
        <pt x="187" y="598" on="1"/>
        <pt x="198" y="682" on="1"/>
        <pt x="489" y="682" on="1"/>
      </contour>
      <contour>
        <pt x="474" y="0" on="1"/>
        <pt x="378" y="0" on="1"/>
        <pt x="381" y="85" on="1"/>
        <pt x="298" y="-11" on="0"/>
        <pt x="176" y="-12" on="1"/>
        <pt x="86" y="-13" on="0"/>
        <pt x="21" y="107" on="0"/>
        <pt x="41" y="253" on="1"/>
        <pt x="53" y="336" on="0"/>
        <pt x="96" y="439" on="0"/>
        <pt x="166" y="489" on="0"/>
        <pt x="237" y="504" on="0"/>
        <pt x="294" y="504" on="1"/>
        <pt x="421" y="504" on="0"/>
        <pt x="541" y="475" on="1"/>
      </contour>
      <contour>
        <pt x="409" y="406" on="1"/>
        <pt x="320" y="407" on="1"/>
        <pt x="274" y="407" on="0"/>
        <pt x="226" y="398" on="0"/>
        <pt x="189" y="363" on="0"/>
        <pt x="172" y="303" on="0"/>
        <pt x="164" y="247" on="1"/>
        <pt x="150" y="144" on="0"/>
        <pt x="167" y="90" on="0"/>
        <pt x="208" y="90" on="1"/>
        <pt x="250" y="90" on="0"/>
        <pt x="328" y="137" on="0"/>
        <pt x="378" y="187" on="1"/>
      </contour>
    </TTGlyph>
    <TTGlyph name="ampersand" xMin="37" yMin="-11" xMax="725" yMax="701">
      <contour>
        <pt x="712" y="311" on="1"/>
        <pt x="621" y="311" on="1"/>
        <pt x="605" y="208" on="0"/>
        <pt x="566" y="144" on="1"/>
        <pt x="472" y="-11" on="0"/>
        <pt x="241" y="-11" on="1"/>
        <pt x="122" y="-11" on="0"/>
        <pt x="26" y="79" on="0"/>
        <pt x="37" y="180" on="1"/>
        <pt x="56" y="346" on="0"/>
        <pt x="197" y="356" on="1"/>
        <pt x="198" y="361" on="1"/>
        <pt x="140" y="365" on="0"/>
        <pt x="94" y="452" on="0"/>
        <pt x="106" y="525" on="1"/>
        <pt x="124" y="631" on="0"/>
        <pt x="250" y="701" on="0"/>
        <pt x="376" y="701" on="1"/>
        <pt x="467" y="701" on="0"/>
        <pt x="550" y="680" on="1"/>
        <pt x="529" y="590" on="1"/>
        <pt x="470" y="602" on="0"/>
        <pt x="381" y="602" on="1"/>
        <pt x="300" y="602" on="0"/>
        <pt x="239" y="563" on="0"/>
        <pt x="229" y="499" on="1"/>
        <pt x="220" y="442" on="0"/>
        <pt x="260" y="402" on="0"/>
        <pt x="322" y="402" on="1"/>
        <pt x="522" y="402" on="1"/>
        <pt x="524" y="438" on="0"/>
        <pt x="524" y="518" on="1"/>
        <pt x="632" y="518" on="1"/>
        <pt x="633" y="464" on="0"/>
        <pt x="630" y="402" on="1"/>
        <pt x="725" y="402" on="1"/>
      </contour>
      <contour>
        <pt x="513" y="311" on="1"/>
        <pt x="310" y="311" on="1"/>
        <pt x="242" y="311" on="0"/>
        <pt x="180" y="260" on="0"/>
        <pt x="170" y="194" on="1"/>
        <pt x="162" y="138" on="0"/>
        <pt x="199" y="94" on="0"/>
        <pt x="261" y="94" on="1"/>
        <pt x="402" y="94" on="0"/>
        <pt x="465" y="187" on="1"/>
        <pt x="498" y="232" on="0"/>
      </contour>
    </TTGlyph>
    <TTGlyph name="aogonek" xMin="41" yMin="-213" xMax="541" yMax="504">
      <contour>
        <pt x="541" y="475" on="1"/>
        <pt x="474" y="0" on="1"/>
        <pt x="433" y="-44" on="0"/>
        <pt x="395" y="-110" on="1"/>
        <pt x="377" y="-139" on="0"/>
        <pt x="410" y="-157" on="0"/>
        <pt x="452" y="-144" on="1"/>
        <pt x="465" y="-193" on="1"/>
        <pt x="423" y="-209" on="0"/>
        <pt x="356" y="-216" on="0"/>
        <pt x="316" y="-200" on="0"/>
        <pt x="295" y="-171" on="0"/>
        <pt x="297" y="-131" on="0"/>
        <pt x="308" y="-109" on="1"/>
        <pt x="335" y="-55" on="0"/>
        <pt x="414" y="0" on="1"/>
        <pt x="378" y="0" on="1"/>
        <pt x="381" y="85" on="1"/>
        <pt x="298" y="-11" on="0"/>
        <pt x="176" y="-12" on="1"/>
        <pt x="86" y="-13" on="0"/>
        <pt x="21" y="107" on="0"/>
        <pt x="41" y="253" on="1"/>
        <pt x="53" y="336" on="0"/>
        <pt x="96" y="439" on="0"/>
        <pt x="166" y="489" on="0"/>
        <pt x="237" y="504" on="0"/>
        <pt x="294" y="504" on="1"/>
        <pt x="421" y="504" on="0"/>
      </contour>
      <contour>
        <pt x="409" y="406" on="1"/>
        <pt x="320" y="407" on="1"/>
        <pt x="274" y="407" on="0"/>
        <pt x="226" y="398" on="0"/>
        <pt x="189" y="363" on="0"/>
        <pt x="172" y="303" on="0"/>
        <pt x="164" y="247" on="1"/>
        <pt x="150" y="144" on="0"/>
        <pt x="167" y="90" on="0"/>
        <pt x="208" y="90" on="1"/>
        <pt x="250" y="90" on="0"/>
        <pt x="328" y="137" on="0"/>
        <pt x="378" y="187" on="1"/>
      </contour>
    </TTGlyph>
    <TTGlyph name="approxequal" xMin="47" yMin="122" xMax="535" yMax="456">
      <contour>
        <pt x="151" y="316" on="1"/>
        <pt x="75" y="321" on="1"/>
        <pt x="72" y="393" on="0"/>
        <pt x="137" y="459" on="0"/>
        <pt x="193" y="456" on="1"/>
        <pt x="226" y="454" on="0"/>
        <pt x="378" y="404" on="0"/>
        <pt x="405" y="403" on="1"/>
        <pt x="431" y="402" on="0"/>
        <pt x="452" y="424" on="0"/>
        <pt x="457" y="454" on="1"/>
        <pt x="535" y="449" on="1"/>
        <pt x="538" y="381" on="0"/>
        <pt x="477" y="313" on="0"/>
        <pt x="415" y="315" on="1"/>
        <pt x="379" y="316" on="0"/>
        <pt x="229" y="367" on="0"/>
        <pt x="203" y="368" on="1"/>
        <pt x="178" y="369" on="0"/>
        <pt x="156" y="346" on="0"/>
      </contour>
      <contour>
        <pt x="124" y="123" on="1"/>
        <pt x="47" y="128" on="1"/>
        <pt x="44" y="200" on="0"/>
        <pt x="109" y="266" on="0"/>
        <pt x="166" y="264" on="1"/>
        <pt x="199" y="262" on="0"/>
        <pt x="351" y="211" on="0"/>
        <pt x="378" y="210" on="1"/>
        <pt x="404" y="209" on="0"/>
        <pt x="425" y="231" on="0"/>
        <pt x="430" y="260" on="1"/>
        <pt x="508" y="255" on="1"/>
        <pt x="511" y="187" on="0"/>
        <pt x="450" y="120" on="0"/>
        <pt x="388" y="122" on="1"/>
        <pt x="352" y="123" on="0"/>
        <pt x="202" y="174" on="0"/>
        <pt x="176" y="175" on="1"/>
        <pt x="151" y="176" on="0"/>
        <pt x="129" y="153" on="0"/>
      </contour>
    </TTGlyph>
    <TTGlyph name="aring" xMin="41" yMin="-12" xMax="541" yMax="754">
      <contour>
        <pt x="335" y="533" on="1"/>
        <pt x="283" y="533" on="0"/>
        <pt x="222" y="598" on="0"/>
        <pt x="227" y="648" on="1"/>
        <pt x="233" y="693" on="0"/>
        <pt x="295" y="754" on="0"/>
        <pt x="344" y="754" on="1"/>
        <pt x="395" y="754" on="0"/>
        <pt x="458" y="689" on="0"/>
        <pt x="452" y="639" on="1"/>
        <pt x="446" y="593" on="0"/>
        <pt x="384" y="533" on="0"/>
      </contour>
      <contour>
        <pt x="288" y="644" on="1"/>
        <pt x="285" y="618" on="0"/>
        <pt x="314" y="589" on="0"/>
        <pt x="336" y="589" on="1"/>
        <pt x="359" y="589" on="0"/>
        <pt x="390" y="620" on="0"/>
        <pt x="392" y="645" on="1"/>
        <pt x="394" y="668" on="0"/>
        <pt x="367" y="698" on="0"/>
        <pt x="344" y="698" on="1"/>
        <pt x="320" y="698" on="0"/>
        <pt x="290" y="668" on="0"/>
      </contour>
      <contour>
        <pt x="474" y="0" on="1"/>
        <pt x="378" y="0" on="1"/>
        <pt x="381" y="85" on="1"/>
        <pt x="298" y="-11" on="0"/>
        <pt x="176" y="-12" on="1"/>
        <pt x="86" y="-13" on="0"/>
        <pt x="21" y="107" on="0"/>
        <pt x="41" y="253" on="1"/>
        <pt x="53" y="336" on="0"/>
        <pt x="96" y="439" on="0"/>
        <pt x="166" y="489" on="0"/>
        <pt x="237" y="504" on="0"/>
        <pt x="294" y="504" on="1"/>
        <pt x="421" y="504" on="0"/>
        <pt x="541" y="475" on="1"/>
      </contour>
      <contour>
        <pt x="409" y="406" on="1"/>
        <pt x="320" y="407" on="1"/>
        <pt x="274" y="407" on="0"/>
        <pt x="226" y="398" on="0"/>
        <pt x="189" y="363" on="0"/>
        <pt x="172" y="303" on="0"/>
        <pt x="164" y="247" on="1"/>
        <pt x="150" y="144" on="0"/>
        <pt x="167" y="90" on="0"/>
        <pt x="208" y="90" on="1"/>
        <pt x="250" y="90" on="0"/>
        <pt x="328" y="137" on="0"/>
        <pt x="378" y="187" on="1"/>
      </contour>
    </TTGlyph>
    <TTGlyph name="asciicircum" xMin="51" yMin="369" xMax="438" yMax="616">
      <contour>
        <pt x="438" y="397" on="1"/>
        <pt x="388" y="369" on="1"/>
        <pt x="273" y="539" on="1"/>
        <pt x="265" y="539" on="1"/>
        <pt x="97" y="369" on="1"/>
        <pt x="51" y="397" on="1"/>
        <pt x="230" y="616" on="1"/>
        <pt x="318" y="616" on="1"/>
      </contour>
    </TTGlyph>
    <TTGlyph name="asciitilde" xMin="58" yMin="218" xMax="456" yMax="357">
      <contour>
        <pt x="116" y="219" on="1"/>
        <pt x="58" y="223" on="1"/>
        <pt x="58" y="291" on="0"/>
        <pt x="110" y="359" on="0"/>
        <pt x="148" y="357" on="1"/>
        <pt x="184" y="355" on="0"/>
        <pt x="329" y="305" on="0"/>
        <pt x="346" y="303" on="1"/>
        <pt x="372" y="300" on="0"/>
        <pt x="394" y="324" on="0"/>
        <pt x="399" y="354" on="1"/>
        <pt x="456" y="350" on="1"/>
        <pt x="457" y="283" on="0"/>
        <pt x="407" y="216" on="0"/>
        <pt x="366" y="218" on="1"/>
        <pt x="325" y="219" on="0"/>
        <pt x="183" y="269" on="0"/>
        <pt x="168" y="271" on="1"/>
        <pt x="142" y="275" on="0"/>
        <pt x="120" y="250" on="0"/>
      </contour>
    </TTGlyph>
    <TTGlyph name="asterisk" xMin="78" yMin="357" xMax="441" yMax="691">
      <contour>
        <pt x="281" y="527" on="1"/>
        <pt x="368" y="398" on="1"/>
        <pt x="311" y="357" on="1"/>
        <pt x="254" y="479" on="1"/>
        <pt x="164" y="358" on="1"/>
        <pt x="111" y="398" on="1"/>
        <pt x="233" y="526" on="1"/>
        <pt x="245" y="691" on="1"/>
        <pt x="316" y="691" on="1"/>
      </contour>
      <contour>
        <pt x="220" y="560" on="1"/>
        <pt x="216" y="530" on="1"/>
        <pt x="199" y="511" on="1"/>
        <pt x="78" y="543" on="1"/>
        <pt x="105" y="608" on="1"/>
      </contour>
      <contour>
        <pt x="441" y="539" on="1"/>
        <pt x="315" y="511" on="1"/>
        <pt x="302" y="530" on="1"/>
        <pt x="304" y="560" on="1"/>
        <pt x="428" y="607" on="1"/>
      </contour>
    </TTGlyph>
    <TTGlyph name="at" xMin="49" yMin="-12" xMax="742" yMax="653">
      <contour>
        <pt x="101" y="557" on="1"/>
        <pt x="110" y="643" on="1"/>
        <pt x="258" y="651" on="0"/>
        <pt x="434" y="653" on="1"/>
        <pt x="508" y="654" on="0"/>
        <pt x="602" y="646" on="0"/>
        <pt x="682" y="619" on="0"/>
        <pt x="721" y="575" on="0"/>
        <pt x="743" y="498" on="0"/>
        <pt x="741" y="395" on="0"/>
        <pt x="730" y="320" on="1"/>
        <pt x="706" y="125" on="0"/>
        <pt x="609" y="-8" on="0"/>
        <pt x="493" y="-8" on="1"/>
        <pt x="379" y="-8" on="0"/>
        <pt x="362" y="85" on="1"/>
        <pt x="287" y="-12" on="0"/>
        <pt x="181" y="-12" on="1"/>
        <pt x="96" y="-12" on="0"/>
        <pt x="27" y="100" on="0"/>
        <pt x="49" y="231" on="1"/>
        <pt x="61" y="303" on="0"/>
        <pt x="101" y="395" on="0"/>
        <pt x="165" y="440" on="0"/>
        <pt x="232" y="455" on="0"/>
        <pt x="284" y="455" on="1"/>
        <pt x="372" y="455" on="0"/>
        <pt x="523" y="427" on="1"/>
        <pt x="476" y="130" on="1"/>
        <pt x="474" y="108" on="0"/>
        <pt x="486" y="89" on="0"/>
        <pt x="504" y="89" on="1"/>
        <pt x="556" y="89" on="0"/>
        <pt x="599" y="187" on="0"/>
        <pt x="618" y="328" on="1"/>
        <pt x="623" y="364" on="0"/>
        <pt x="630" y="415" on="0"/>
        <pt x="630" y="462" on="0"/>
        <pt x="630" y="492" on="0"/>
        <pt x="617" y="520" on="0"/>
        <pt x="607" y="535" on="0"/>
        <pt x="577" y="548" on="0"/>
        <pt x="555" y="553" on="0"/>
        <pt x="504" y="557" on="0"/>
        <pt x="467" y="557" on="0"/>
        <pt x="431" y="557" on="1"/>
      </contour>
      <contour>
        <pt x="396" y="361" on="1"/>
        <pt x="319" y="363" on="1"/>
        <pt x="233" y="363" on="0"/>
        <pt x="179" y="316" on="0"/>
        <pt x="164" y="224" on="1"/>
        <pt x="151" y="133" on="0"/>
        <pt x="170" y="87" on="0"/>
        <pt x="252" y="87" on="0"/>
        <pt x="321" y="133" on="0"/>
        <pt x="367" y="188" on="1"/>
      </contour>
    </TTGlyph>
    <TTGlyph name="atilde" xMin="41" yMin="-12" xMax="541" yMax="709">
      <contour>
        <pt x="459" y="707" on="1"/>
        <pt x="512" y="702" on="1"/>
        <pt x="512" y="640" on="0"/>
        <pt x="461" y="574" on="0"/>
        <pt x="421" y="576" on="1"/>
        <pt x="383" y="579" on="0"/>
        <pt x="288" y="625" on="0"/>
        <pt x="272" y="628" on="1"/>
        <pt x="245" y="631" on="0"/>
        <pt x="220" y="606" on="0"/>
        <pt x="216" y="577" on="1"/>
        <pt x="164" y="582" on="1"/>
        <pt x="165" y="646" on="0"/>
        <pt x="217" y="712" on="0"/>
        <pt x="255" y="709" on="1"/>
        <pt x="290" y="707" on="0"/>
        <pt x="382" y="662" on="0"/>
        <pt x="402" y="659" on="1"/>
        <pt x="430" y="655" on="0"/>
        <pt x="455" y="679" on="0"/>
      </contour>
      <contour>
        <pt x="474" y="0" on="1"/>
        <pt x="378" y="0" on="1"/>
        <pt x="381" y="85" on="1"/>
        <pt x="298" y="-11" on="0"/>
        <pt x="176" y="-12" on="1"/>
        <pt x="86" y="-13" on="0"/>
        <pt x="21" y="107" on="0"/>
        <pt x="41" y="253" on="1"/>
        <pt x="53" y="336" on="0"/>
        <pt x="96" y="439" on="0"/>
        <pt x="166" y="489" on="0"/>
        <pt x="237" y="504" on="0"/>
        <pt x="294" y="504" on="1"/>
        <pt x="421" y="504" on="0"/>
        <pt x="541" y="475" on="1"/>
      </contour>
      <contour>
        <pt x="409" y="406" on="1"/>
        <pt x="320" y="407" on="1"/>
        <pt x="274" y="407" on="0"/>
        <pt x="226" y="398" on="0"/>
        <pt x="189" y="363" on="0"/>
        <pt x="172" y="303" on="0"/>
        <pt x="164" y="247" on="1"/>
        <pt x="150" y="144" on="0"/>
        <pt x="167" y="90" on="0"/>
        <pt x="208" y="90" on="1"/>
        <pt x="250" y="90" on="0"/>
        <pt x="328" y="137" on="0"/>
        <pt x="378" y="187" on="1"/>
      </contour>
    </TTGlyph>
    <TTGlyph name="b" xMin="28" yMin="-13" xMax="527" yMax="700">
      <contour>
        <pt x="243" y="700" on="1"/>
        <pt x="218" y="509" on="1"/>
        <pt x="208" y="438" on="0"/>
        <pt x="192" y="399" on="1"/>
        <pt x="237" y="443" on="0"/>
        <pt x="346" y="503" on="0"/>
        <pt x="395" y="503" on="1"/>
        <pt x="483" y="503" on="0"/>
        <pt x="547" y="388" on="0"/>
        <pt x="527" y="239" on="1"/>
        <pt x="516" y="161" on="0"/>
        <pt x="476" y="59" on="0"/>
        <pt x="411" y="6" on="0"/>
        <pt x="338" y="-13" on="0"/>
        <pt x="285" y="-13" on="1"/>
        <pt x="228" y="-13" on="0"/>
        <pt x="77" y="9" on="0"/>
        <pt x="28" y="25" on="1"/>
        <pt x="123" y="700" on="1"/>
      </contour>
      <contour>
        <pt x="189" y="308" on="1"/>
        <pt x="157" y="84" on="1"/>
        <pt x="239" y="82" on="0"/>
        <pt x="248" y="82" on="1"/>
        <pt x="294" y="82" on="0"/>
        <pt x="341" y="92" on="0"/>
        <pt x="379" y="129" on="0"/>
        <pt x="396" y="190" on="0"/>
        <pt x="404" y="247" on="1"/>
        <pt x="417" y="348" on="0"/>
        <pt x="399" y="400" on="0"/>
        <pt x="360" y="400" on="1"/>
        <pt x="330" y="400" on="0"/>
        <pt x="238" y="351" on="0"/>
      </contour>
    </TTGlyph>
    <TTGlyph name="backslash" xMin="75" yMin="-69" xMax="456" yMax="690">
      <contour>
        <pt x="456" y="-69" on="1"/>
        <pt x="364" y="-69" on="1"/>
        <pt x="75" y="690" on="1"/>
        <pt x="167" y="690" on="1"/>
      </contour>
    </TTGlyph>
    <TTGlyph name="bar" xMin="18" yMin="-169" xMax="238" yMax="781">
      <contour>
        <pt x="104" y="-169" on="1"/>
        <pt x="18" y="-169" on="1"/>
        <pt x="151" y="781" on="1"/>
        <pt x="238" y="781" on="1"/>
      </contour>
    </TTGlyph>
    <TTGlyph name="braceleft" xMin="37" yMin="-165" xMax="355" yMax="768">
      <contour>
        <pt x="355" y="768" on="1"/>
        <pt x="351" y="693" on="1"/>
        <pt x="304" y="693" on="0"/>
        <pt x="261" y="660" on="0"/>
        <pt x="255" y="619" on="1"/>
        <pt x="232" y="456" on="1"/>
        <pt x="224" y="391" on="0"/>
        <pt x="179" y="337" on="0"/>
        <pt x="119" y="327" on="1"/>
        <pt x="172" y="310" on="0"/>
        <pt x="208" y="253" on="0"/>
        <pt x="200" y="200" on="1"/>
        <pt x="169" y="-20" on="1"/>
        <pt x="164" y="-60" on="0"/>
        <pt x="192" y="-90" on="0"/>
        <pt x="239" y="-90" on="1"/>
        <pt x="235" y="-165" on="1"/>
        <pt x="134" y="-176" on="0"/>
        <pt x="43" y="-100" on="0"/>
        <pt x="54" y="-26" on="1"/>
        <pt x="88" y="220" on="1"/>
        <pt x="91" y="244" on="0"/>
        <pt x="81" y="269" on="0"/>
        <pt x="64" y="278" on="0"/>
        <pt x="37" y="288" on="1"/>
        <pt x="47" y="370" on="1"/>
        <pt x="86" y="381" on="0"/>
        <pt x="110" y="403" on="0"/>
        <pt x="116" y="445" on="1"/>
        <pt x="142" y="634" on="1"/>
        <pt x="153" y="710" on="0"/>
        <pt x="253" y="779" on="0"/>
      </contour>
    </TTGlyph>
    <TTGlyph name="braceright" xMin="-27" yMin="-165" xMax="304" yMax="768">
      <contour>
        <pt x="98" y="693" on="1"/>
        <pt x="102" y="768" on="1"/>
        <pt x="205" y="779" on="0"/>
        <pt x="294" y="701" on="0"/>
        <pt x="284" y="629" on="1"/>
        <pt x="257" y="440" on="1"/>
        <pt x="252" y="400" on="0"/>
        <pt x="264" y="380" on="0"/>
        <pt x="295" y="371" on="1"/>
        <pt x="301" y="369" on="0"/>
        <pt x="304" y="368" on="1"/>
        <pt x="293" y="286" on="1"/>
        <pt x="265" y="277" on="0"/>
        <pt x="244" y="266" on="0"/>
        <pt x="224" y="239" on="0"/>
        <pt x="221" y="215" on="1"/>
        <pt x="187" y="-31" on="1"/>
        <pt x="177" y="-107" on="0"/>
        <pt x="79" y="-176" on="0"/>
        <pt x="-27" y="-165" on="1"/>
        <pt x="-21" y="-90" on="1"/>
        <pt x="26" y="-90" on="0"/>
        <pt x="68" y="-58" on="0"/>
        <pt x="73" y="-17" on="1"/>
        <pt x="104" y="204" on="1"/>
        <pt x="113" y="259" on="0"/>
        <pt x="161" y="312" on="0"/>
        <pt x="223" y="329" on="1"/>
        <pt x="169" y="339" on="0"/>
        <pt x="134" y="397" on="0"/>
        <pt x="144" y="460" on="1"/>
        <pt x="167" y="623" on="1"/>
        <pt x="173" y="663" on="0"/>
        <pt x="145" y="693" on="0"/>
      </contour>
    </TTGlyph>
    <TTGlyph name="bracketleft" xMin="26" yMin="-165" xMax="367" yMax="768">
      <contour>
        <pt x="356" y="691" on="1"/>
        <pt x="271" y="691" on="1"/>
        <pt x="251" y="691" on="0"/>
        <pt x="248" y="671" on="1"/>
        <pt x="143" y="-72" on="1"/>
        <pt x="142" y="-88" on="0"/>
        <pt x="155" y="-88" on="1"/>
        <pt x="247" y="-88" on="1"/>
        <pt x="236" y="-165" on="1"/>
        <pt x="87" y="-165" on="1"/>
        <pt x="56" y="-165" on="0"/>
        <pt x="21" y="-131" on="0"/>
        <pt x="26" y="-96" on="1"/>
        <pt x="138" y="703" on="1"/>
        <pt x="143" y="733" on="0"/>
        <pt x="182" y="768" on="0"/>
        <pt x="212" y="768" on="1"/>
        <pt x="367" y="768" on="1"/>
      </contour>
    </TTGlyph>
    <TTGlyph name="bracketright" xMin="-29" yMin="-165" xMax="312" yMax="768">
      <contour>
        <pt x="102" y="768" on="1"/>
        <pt x="250" y="768" on="1"/>
        <pt x="280" y="768" on="0"/>
        <pt x="316" y="728" on="0"/>
        <pt x="312" y="699" on="1"/>
        <pt x="199" y="-100" on="1"/>
        <pt x="195" y="-129" on="0"/>
        <pt x="155" y="-165" on="0"/>
        <pt x="126" y="-165" on="1"/>
        <pt x="-29" y="-165" on="1"/>
        <pt x="-19" y="-88" on="1"/>
        <pt x="66" y="-88" on="1"/>
        <pt x="74" y="-88" on="0"/>
        <pt x="89" y="-77" on="0"/>
        <pt x="90" y="-68" on="1"/>
        <pt x="195" y="675" on="1"/>
        <pt x="196" y="691" on="0"/>
        <pt x="182" y="691" on="1"/>
        <pt x="90" y="691" on="1"/>
      </contour>
    </TTGlyph>
    <TTGlyph name="breve" xMin="98" yMin="551" xMax="414" yMax="704">
      <contour>
        <pt x="355" y="704" on="1"/>
        <pt x="414" y="692" on="1"/>
        <pt x="411" y="630" on="0"/>
        <pt x="317" y="551" on="0"/>
        <pt x="242" y="551" on="1"/>
        <pt x="163" y="551" on="0"/>
        <pt x="83" y="634" on="0"/>
        <pt x="98" y="696" on="1"/>
        <pt x="158" y="700" on="1"/>
        <pt x="154" y="668" on="0"/>
        <pt x="198" y="636" on="0"/>
        <pt x="243" y="636" on="1"/>
        <pt x="293" y="636" on="0"/>
        <pt x="352" y="672" on="0"/>
      </contour>
    </TTGlyph>
    <TTGlyph name="brevecy" xMin="98" yMin="551" xMax="414" yMax="698">
      <contour>
        <pt x="327" y="698" on="1"/>
        <pt x="414" y="698" on="1"/>
        <pt x="411" y="633" on="0"/>
        <pt x="318" y="551" on="0"/>
        <pt x="243" y="551" on="1"/>
        <pt x="164" y="551" on="0"/>
        <pt x="83" y="634" on="0"/>
        <pt x="98" y="698" on="1"/>
        <pt x="183" y="698" on="1"/>
        <pt x="176" y="654" on="0"/>
        <pt x="208" y="614" on="0"/>
        <pt x="249" y="614" on="1"/>
        <pt x="320" y="614" on="0"/>
      </contour>
    </TTGlyph>
    <TTGlyph name="brokenbar" xMin="18" yMin="-169" xMax="239" yMax="781">
      <contour>
        <pt x="183" y="381" on="1"/>
        <pt x="95" y="381" on="1"/>
        <pt x="152" y="781" on="1"/>
        <pt x="239" y="781" on="1"/>
      </contour>
      <contour>
        <pt x="106" y="-169" on="1"/>
        <pt x="18" y="-169" on="1"/>
        <pt x="74" y="231" on="1"/>
        <pt x="162" y="231" on="1"/>
      </contour>
    </TTGlyph>
    <TTGlyph name="bullet" xMin="76" yMin="164" xMax="284" yMax="371">
      <contour>
        <pt x="186" y="371" on="1"/>
        <pt x="200" y="371" on="1"/>
        <pt x="253" y="371" on="0"/>
        <pt x="291" y="326" on="0"/>
        <pt x="284" y="274" on="1"/>
        <pt x="282" y="261" on="1"/>
        <pt x="274" y="204" on="0"/>
        <pt x="230" y="164" on="0"/>
        <pt x="177" y="164" on="1"/>
        <pt x="162" y="164" on="1"/>
        <pt x="107" y="164" on="0"/>
        <pt x="69" y="210" on="0"/>
        <pt x="76" y="265" on="1"/>
        <pt x="78" y="279" on="1"/>
        <pt x="86" y="333" on="0"/>
        <pt x="130" y="371" on="0"/>
      </contour>
    </TTGlyph>
    <TTGlyph name="c" xMin="38" yMin="-12" xMax="478" yMax="504">
      <contour>
        <pt x="421" y="98" on="1"/>
        <pt x="429" y="17" on="1"/>
        <pt x="353" y="-12" on="0"/>
        <pt x="248" y="-12" on="1"/>
        <pt x="116" y="-12" on="0"/>
        <pt x="18" y="110" on="0"/>
        <pt x="58" y="390" on="0"/>
        <pt x="178" y="504" on="0"/>
        <pt x="306" y="504" on="1"/>
        <pt x="412" y="504" on="0"/>
        <pt x="478" y="475" on="1"/>
        <pt x="461" y="401" on="1"/>
        <pt x="359" y="403" on="0"/>
        <pt x="324" y="403" on="1"/>
        <pt x="244" y="403" on="0"/>
        <pt x="177" y="340" on="0"/>
        <pt x="165" y="243" on="1"/>
        <pt x="153" y="145" on="0"/>
        <pt x="195" y="88" on="0"/>
        <pt x="270" y="88" on="1"/>
        <pt x="354" y="88" on="0"/>
      </contour>
    </TTGlyph>
    <TTGlyph name="cacute" xMin="38" yMin="-12" xMax="492" yMax="746">
      <contour>
        <pt x="492" y="655" on="1"/>
        <pt x="266" y="544" on="1"/>
        <pt x="233" y="598" on="1"/>
        <pt x="439" y="746" on="1"/>
      </contour>
      <contour>
        <pt x="421" y="98" on="1"/>
        <pt x="429" y="17" on="1"/>
        <pt x="353" y="-12" on="0"/>
        <pt x="248" y="-12" on="1"/>
        <pt x="116" y="-12" on="0"/>
        <pt x="18" y="110" on="0"/>
        <pt x="58" y="390" on="0"/>
        <pt x="178" y="504" on="0"/>
        <pt x="306" y="504" on="1"/>
        <pt x="412" y="504" on="0"/>
        <pt x="478" y="475" on="1"/>
        <pt x="461" y="401" on="1"/>
        <pt x="359" y="403" on="0"/>
        <pt x="324" y="403" on="1"/>
        <pt x="244" y="403" on="0"/>
        <pt x="177" y="340" on="0"/>
        <pt x="165" y="243" on="1"/>
        <pt x="153" y="145" on="0"/>
        <pt x="195" y="88" on="0"/>
        <pt x="270" y="88" on="1"/>
        <pt x="354" y="88" on="0"/>
      </contour>
    </TTGlyph>
    <TTGlyph name="caron" xMin="102" yMin="554" xMax="455" yMax="735">
      <contour>
        <pt x="455" y="685" on="1"/>
        <pt x="303" y="554" on="1"/>
        <pt x="225" y="554" on="1"/>
        <pt x="102" y="693" on="1"/>
        <pt x="147" y="735" on="1"/>
        <pt x="264" y="639" on="1"/>
        <pt x="272" y="639" on="1"/>
        <pt x="422" y="735" on="1"/>
      </contour>
    </TTGlyph>
    <TTGlyph name="ccaron" xMin="38" yMin="-12" xMax="498" yMax="742">
      <contour>
        <pt x="498" y="691" on="1"/>
        <pt x="346" y="560" on="1"/>
        <pt x="268" y="560" on="1"/>
        <pt x="146" y="699" on="1"/>
        <pt x="191" y="742" on="1"/>
        <pt x="307" y="645" on="1"/>
        <pt x="315" y="645" on="1"/>
        <pt x="465" y="741" on="1"/>
      </contour>
      <contour>
        <pt x="421" y="98" on="1"/>
        <pt x="429" y="17" on="1"/>
        <pt x="353" y="-12" on="0"/>
        <pt x="248" y="-12" on="1"/>
        <pt x="116" y="-12" on="0"/>
        <pt x="18" y="110" on="0"/>
        <pt x="58" y="390" on="0"/>
        <pt x="178" y="504" on="0"/>
        <pt x="306" y="504" on="1"/>
        <pt x="412" y="504" on="0"/>
        <pt x="478" y="475" on="1"/>
        <pt x="461" y="401" on="1"/>
        <pt x="359" y="403" on="0"/>
        <pt x="324" y="403" on="1"/>
        <pt x="244" y="403" on="0"/>
        <pt x="177" y="340" on="0"/>
        <pt x="165" y="243" on="1"/>
        <pt x="153" y="145" on="0"/>
        <pt x="195" y="88" on="0"/>
        <pt x="270" y="88" on="1"/>
        <pt x="354" y="88" on="0"/>
      </contour>
    </TTGlyph>
    <TTGlyph name="ccedilla" xMin="38" yMin="-246" xMax="478" yMax="504">
      <contour>
        <pt x="421" y="98" on="1"/>
        <pt x="429" y="17" on="1"/>
        <pt x="353" y="-12" on="0"/>
        <pt x="248" y="-12" on="1"/>
        <pt x="116" y="-12" on="0"/>
        <pt x="18" y="110" on="0"/>
        <pt x="58" y="390" on="0"/>
        <pt x="178" y="504" on="0"/>
        <pt x="306" y="504" on="1"/>
        <pt x="412" y="504" on="0"/>
        <pt x="478" y="475" on="1"/>
        <pt x="461" y="401" on="1"/>
        <pt x="359" y="403" on="0"/>
        <pt x="324" y="403" on="1"/>
        <pt x="244" y="403" on="0"/>
        <pt x="177" y="340" on="0"/>
        <pt x="165" y="243" on="1"/>
        <pt x="153" y="145" on="0"/>
        <pt x="195" y="88" on="0"/>
        <pt x="270" y="88" on="1"/>
        <pt x="354" y="88" on="0"/>
      </contour>
      <contour>
        <pt x="157" y="-105" on="1"/>
        <pt x="171" y="-52" on="1"/>
        <pt x="244" y="-44" on="0"/>
        <pt x="304" y="-72" on="0"/>
        <pt x="295" y="-121" on="1"/>
        <pt x="284" y="-189" on="0"/>
        <pt x="172" y="-257" on="0"/>
        <pt x="95" y="-246" on="1"/>
        <pt x="115" y="-188" on="1"/>
        <pt x="152" y="-189" on="0"/>
        <pt x="206" y="-154" on="0"/>
        <pt x="212" y="-124" on="1"/>
        <pt x="214" y="-112" on="0"/>
        <pt x="195" y="-105" on="0"/>
      </contour>
    </TTGlyph>
    <TTGlyph name="cdotaccent" xMin="38" yMin="-12" xMax="478" yMax="696">
      <contour>
        <pt x="301" y="696" on="1"/>
        <pt x="338" y="696" on="1"/>
        <pt x="355" y="696" on="0"/>
        <pt x="374" y="676" on="0"/>
        <pt x="372" y="659" on="1"/>
        <pt x="364" y="605" on="1"/>
        <pt x="360" y="573" on="0"/>
        <pt x="329" y="573" on="1"/>
        <pt x="291" y="573" on="1"/>
        <pt x="274" y="573" on="0"/>
        <pt x="256" y="593" on="0"/>
        <pt x="258" y="609" on="1"/>
        <pt x="265" y="663" on="1"/>
        <pt x="270" y="696" on="0"/>
      </contour>
      <contour>
        <pt x="421" y="98" on="1"/>
        <pt x="429" y="17" on="1"/>
        <pt x="353" y="-12" on="0"/>
        <pt x="248" y="-12" on="1"/>
        <pt x="116" y="-12" on="0"/>
        <pt x="18" y="110" on="0"/>
        <pt x="58" y="390" on="0"/>
        <pt x="178" y="504" on="0"/>
        <pt x="306" y="504" on="1"/>
        <pt x="412" y="504" on="0"/>
        <pt x="478" y="475" on="1"/>
        <pt x="461" y="401" on="1"/>
        <pt x="359" y="403" on="0"/>
        <pt x="324" y="403" on="1"/>
        <pt x="244" y="403" on="0"/>
        <pt x="177" y="340" on="0"/>
        <pt x="165" y="243" on="1"/>
        <pt x="153" y="145" on="0"/>
        <pt x="195" y="88" on="0"/>
        <pt x="270" y="88" on="1"/>
        <pt x="354" y="88" on="0"/>
      </contour>
    </TTGlyph>
    <TTGlyph name="cedilla" xMin="-36" yMin="-234" xMax="164" yMax="-40">
      <contour>
        <pt x="26" y="-93" on="1"/>
        <pt x="40" y="-40" on="1"/>
        <pt x="112" y="-32" on="0"/>
        <pt x="173" y="-60" on="0"/>
        <pt x="164" y="-109" on="1"/>
        <pt x="153" y="-177" on="0"/>
        <pt x="41" y="-245" on="0"/>
        <pt x="-36" y="-234" on="1"/>
        <pt x="-16" y="-176" on="1"/>
        <pt x="20" y="-177" on="0"/>
        <pt x="75" y="-141" on="0"/>
        <pt x="81" y="-112" on="1"/>
        <pt x="83" y="-100" on="0"/>
        <pt x="64" y="-93" on="0"/>
      </contour>
    </TTGlyph>
    <TTGlyph name="cent" xMin="52" yMin="0" xMax="491" yMax="690">
      <contour>
        <pt x="491" y="576" on="1"/>
        <pt x="474" y="502" on="1"/>
        <pt x="400" y="504" on="0"/>
        <pt x="368" y="504" on="1"/>
        <pt x="295" y="190" on="1"/>
        <pt x="372" y="190" on="0"/>
        <pt x="434" y="199" on="1"/>
        <pt x="442" y="118" on="1"/>
        <pt x="370" y="91" on="0"/>
        <pt x="268" y="89" on="1"/>
        <pt x="247" y="0" on="1"/>
        <pt x="196" y="0" on="1"/>
        <pt x="218" y="91" on="1"/>
        <pt x="112" y="100" on="0"/>
        <pt x="34" y="224" on="0"/>
        <pt x="52" y="352" on="1"/>
        <pt x="72" y="492" on="0"/>
        <pt x="191" y="605" on="0"/>
        <pt x="319" y="605" on="1"/>
        <pt x="342" y="604" on="1"/>
        <pt x="363" y="690" on="1"/>
        <pt x="414" y="690" on="1"/>
        <pt x="392" y="601" on="1"/>
        <pt x="457" y="592" on="0"/>
      </contour>
      <contour>
        <pt x="244" y="191" on="1"/>
        <pt x="317" y="504" on="1"/>
        <pt x="250" y="501" on="0"/>
        <pt x="190" y="435" on="0"/>
        <pt x="179" y="344" on="1"/>
        <pt x="169" y="260" on="0"/>
        <pt x="196" y="197" on="0"/>
      </contour>
    </TTGlyph>
    <TTGlyph name="circumflex" xMin="92" yMin="536" xMax="450" yMax="719">
      <contour>
        <pt x="450" y="581" on="1"/>
        <pt x="409" y="536" on="1"/>
        <pt x="284" y="636" on="1"/>
        <pt x="276" y="636" on="1"/>
        <pt x="124" y="538" on="1"/>
        <pt x="92" y="588" on="1"/>
        <pt x="239" y="719" on="1"/>
        <pt x="324" y="719" on="1"/>
      </contour>
    </TTGlyph>
    <TTGlyph name="colon" xMin="16" yMin="0" xMax="189" yMax="446">
      <contour>
        <pt x="113" y="446" on="1"/>
        <pt x="149" y="446" on="1"/>
        <pt x="196" y="446" on="0"/>
        <pt x="189" y="401" on="1"/>
        <pt x="183" y="350" on="1"/>
        <pt x="177" y="309" on="0"/>
        <pt x="136" y="309" on="1"/>
        <pt x="101" y="309" on="1"/>
        <pt x="53" y="309" on="0"/>
        <pt x="59" y="355" on="1"/>
        <pt x="67" y="406" on="1"/>
        <pt x="73" y="446" on="0"/>
      </contour>
      <contour>
        <pt x="70" y="137" on="1"/>
        <pt x="106" y="137" on="1"/>
        <pt x="152" y="137" on="0"/>
        <pt x="146" y="92" on="1"/>
        <pt x="139" y="41" on="1"/>
        <pt x="135" y="0" on="0"/>
        <pt x="93" y="0" on="1"/>
        <pt x="57" y="0" on="1"/>
        <pt x="10" y="0" on="0"/>
        <pt x="16" y="46" on="1"/>
        <pt x="24" y="97" on="1"/>
        <pt x="28" y="137" on="0"/>
      </contour>
    </TTGlyph>
    <TTGlyph name="comma" xMin="22" yMin="-142" xMax="153" yMax="137">
      <contour>
        <pt x="83" y="137" on="1"/>
        <pt x="114" y="137" on="1"/>
        <pt x="138" y="137" on="0"/>
        <pt x="157" y="116" on="0"/>
        <pt x="153" y="92" on="1"/>
        <pt x="145" y="28" on="1"/>
        <pt x="133" y="-56" on="0"/>
        <pt x="78" y="-142" on="1"/>
        <pt x="22" y="-123" on="1"/>
        <pt x="52" y="-26" on="0"/>
        <pt x="58" y="2" on="1"/>
        <pt x="38" y="1" on="0"/>
        <pt x="20" y="21" on="0"/>
        <pt x="22" y="40" on="1"/>
        <pt x="30" y="96" on="1"/>
        <pt x="35" y="120" on="0"/>
        <pt x="56" y="137" on="0"/>
      </contour>
    </TTGlyph>
    <TTGlyph name="copyright" xMin="58" yMin="-13" xMax="778" yMax="703">
      <contour>
        <pt x="453" y="703" on="1"/>
        <pt x="616" y="703" on="0"/>
        <pt x="797" y="501" on="0"/>
        <pt x="778" y="340" on="1"/>
        <pt x="759" y="185" on="0"/>
        <pt x="542" y="-13" on="0"/>
        <pt x="380" y="-13" on="1"/>
        <pt x="216" y="-13" on="0"/>
        <pt x="38" y="192" on="0"/>
        <pt x="58" y="350" on="1"/>
        <pt x="77" y="504" on="0"/>
        <pt x="292" y="703" on="0"/>
      </contour>
      <contour>
        <pt x="457" y="645" on="1"/>
        <pt x="322" y="645" on="0"/>
        <pt x="136" y="475" on="0"/>
        <pt x="120" y="340" on="1"/>
        <pt x="104" y="207" on="0"/>
        <pt x="248" y="45" on="0"/>
        <pt x="379" y="45" on="1"/>
        <pt x="513" y="45" on="0"/>
        <pt x="700" y="215" on="0"/>
        <pt x="716" y="350" on="1"/>
        <pt x="731" y="480" on="0"/>
        <pt x="591" y="645" on="0"/>
      </contour>
      <contour>
        <pt x="539" y="217" on="1"/>
        <pt x="544" y="150" on="1"/>
        <pt x="480" y="134" on="0"/>
        <pt x="409" y="134" on="1"/>
        <pt x="290" y="134" on="0"/>
        <pt x="212" y="228" on="0"/>
        <pt x="229" y="351" on="1"/>
        <pt x="245" y="470" on="0"/>
        <pt x="345" y="560" on="0"/>
        <pt x="458" y="560" on="1"/>
        <pt x="521" y="560" on="0"/>
        <pt x="583" y="546" on="1"/>
        <pt x="572" y="478" on="1"/>
        <pt x="507" y="481" on="0"/>
        <pt x="463" y="481" on="1"/>
        <pt x="388" y="481" on="0"/>
        <pt x="332" y="432" on="0"/>
        <pt x="320" y="344" on="1"/>
        <pt x="310" y="266" on="0"/>
        <pt x="342" y="213" on="0"/>
        <pt x="398" y="213" on="1"/>
        <pt x="468" y="212" on="0"/>
      </contour>
    </TTGlyph>
    <TTGlyph name="currency" xMin="43" yMin="108" xMax="564" yMax="599">
      <contour>
        <pt x="564" y="531" on="1"/>
        <pt x="486" y="462" on="1"/>
        <pt x="511" y="412" on="0"/>
        <pt x="502" y="347" on="1"/>
        <pt x="493" y="281" on="0"/>
        <pt x="456" y="233" on="1"/>
        <pt x="524" y="158" on="1"/>
        <pt x="470" y="108" on="1"/>
        <pt x="401" y="184" on="1"/>
        <pt x="350" y="153" on="0"/>
        <pt x="282" y="153" on="1"/>
        <pt x="215" y="153" on="0"/>
        <pt x="168" y="186" on="1"/>
        <pt x="92" y="119" on="1"/>
        <pt x="43" y="175" on="1"/>
        <pt x="120" y="244" on="1"/>
        <pt x="95" y="292" on="0"/>
        <pt x="104" y="357" on="1"/>
        <pt x="113" y="423" on="0"/>
        <pt x="151" y="474" on="1"/>
        <pt x="85" y="548" on="1"/>
        <pt x="140" y="599" on="1"/>
        <pt x="207" y="522" on="1"/>
        <pt x="256" y="552" on="0"/>
        <pt x="323" y="552" on="1"/>
        <pt x="391" y="552" on="0"/>
        <pt x="438" y="519" on="1"/>
        <pt x="515" y="587" on="1"/>
      </contour>
      <contour>
        <pt x="284" y="220" on="1"/>
        <pt x="345" y="220" on="0"/>
        <pt x="425" y="293" on="0"/>
        <pt x="432" y="356" on="1"/>
        <pt x="438" y="416" on="0"/>
        <pt x="377" y="485" on="0"/>
        <pt x="320" y="485" on="1"/>
        <pt x="260" y="485" on="0"/>
        <pt x="181" y="412" on="0"/>
        <pt x="174" y="349" on="1"/>
        <pt x="167" y="289" on="0"/>
        <pt x="227" y="220" on="0"/>
      </contour>
    </TTGlyph>
    <TTGlyph name="d" xMin="41" yMin="-12" xMax="572" yMax="700">
      <contour>
        <pt x="572" y="700" on="1"/>
        <pt x="474" y="0" on="1"/>
        <pt x="378" y="0" on="1"/>
        <pt x="381" y="94" on="1"/>
        <pt x="279" y="-12" on="0"/>
        <pt x="168" y="-12" on="1"/>
        <pt x="90" y="-12" on="0"/>
        <pt x="21" y="109" on="0"/>
        <pt x="41" y="253" on="1"/>
        <pt x="53" y="334" on="0"/>
        <pt x="94" y="437" on="0"/>
        <pt x="156" y="487" on="0"/>
        <pt x="220" y="504" on="0"/>
        <pt x="267" y="504" on="1"/>
        <pt x="343" y="504" on="0"/>
        <pt x="426" y="491" on="1"/>
        <pt x="428" y="539" on="0"/>
        <pt x="433" y="585" on="1"/>
        <pt x="450" y="700" on="1"/>
      </contour>
      <contour>
        <pt x="409" y="409" on="1"/>
        <pt x="317" y="410" on="1"/>
        <pt x="258" y="410" on="0"/>
        <pt x="204" y="389" on="0"/>
        <pt x="174" y="323" on="0"/>
        <pt x="164" y="247" on="1"/>
        <pt x="151" y="151" on="0"/>
        <pt x="168" y="91" on="0"/>
        <pt x="208" y="92" on="1"/>
        <pt x="249" y="92" on="0"/>
        <pt x="324" y="135" on="0"/>
        <pt x="378" y="185" on="1"/>
      </contour>
    </TTGlyph>
    <TTGlyph name="dagger" xMin="48" yMin="-110" xMax="454" yMax="691">
      <contour>
        <pt x="227" y="-110" on="1"/>
        <pt x="121" y="-110" on="1"/>
        <pt x="201" y="419" on="1"/>
        <pt x="210" y="485" on="1"/>
        <pt x="234" y="691" on="1"/>
        <pt x="340" y="691" on="1"/>
        <pt x="305" y="485" on="1"/>
        <pt x="295" y="419" on="1"/>
      </contour>
      <contour>
        <pt x="454" y="490" on="1"/>
        <pt x="441" y="392" on="1"/>
        <pt x="313" y="404" on="1"/>
        <pt x="325" y="490" on="1"/>
      </contour>
      <contour>
        <pt x="48" y="392" on="1"/>
        <pt x="62" y="490" on="1"/>
        <pt x="191" y="490" on="1"/>
        <pt x="179" y="404" on="1"/>
      </contour>
    </TTGlyph>
    <TTGlyph name="daggerdbl" xMin="25" yMin="-110" xMax="473" yMax="691">
      <contour>
        <pt x="324" y="489" on="1"/>
        <pt x="268" y="92" on="1"/>
        <pt x="245" y="-110" on="1"/>
        <pt x="139" y="-110" on="1"/>
        <pt x="173" y="92" on="1"/>
        <pt x="229" y="489" on="1"/>
        <pt x="252" y="691" on="1"/>
        <pt x="358" y="691" on="1"/>
      </contour>
      <contour>
        <pt x="197" y="404" on="1"/>
        <pt x="66" y="392" on="1"/>
        <pt x="80" y="490" on="1"/>
        <pt x="209" y="490" on="1"/>
      </contour>
      <contour>
        <pt x="459" y="392" on="1"/>
        <pt x="331" y="404" on="1"/>
        <pt x="344" y="490" on="1"/>
        <pt x="473" y="490" on="1"/>
      </contour>
      <contour>
        <pt x="417" y="91" on="1"/>
        <pt x="288" y="91" on="1"/>
        <pt x="300" y="177" on="1"/>
        <pt x="430" y="189" on="1"/>
      </contour>
      <contour>
        <pt x="165" y="177" on="1"/>
        <pt x="154" y="91" on="1"/>
        <pt x="25" y="91" on="1"/>
        <pt x="38" y="189" on="1"/>
      </contour>
    </TTGlyph>
</ttFont>
